<svg width="96" height="139" viewBox="0 0 96 139" fill="none" xmlns="http://www.w3.org/2000/svg">
<ellipse cx="44.5008" cy="126.612" rx="30.368" ry="12.3883" fill="black" fill-opacity="0.35"/>
<path d="M20.7543 94.1035L25.1081 92.5925L37.3466 89.0762L57.3322 91.9709L62.9004 94.5772L67.4023 96.6801L72.0819 98.9014L73.2962 100.471L73.1185 102.752L72.4965 103.492C72.151 103.798 71.4125 104.434 71.2229 104.529C70.986 104.647 69.1497 105.24 68.7054 105.388C68.35 105.506 65.3981 105.437 63.9666 105.388L57.7765 104.943L57.3619 109.741L57.0064 113.088L54.874 116.494L57.6876 120.641L58.6058 123.81L58.1615 125.232L55.4663 125.913L53.63 125.587L50.5202 124.402L47.7065 123.514L41.6052 128.578L38.288 130.889L34.4081 131.984L32.0979 131.422L31.4167 130.148V127.897L32.5126 126.09L33.9935 123.81L36.3925 120.641L32.5126 118.034L31.5944 116.435L30.7651 114.066L29.1361 108.705L27.9218 102.071H26.8852L23.9827 103.078L20.3989 104.055L17.2594 104.262C16.5091 104.252 14.973 104.239 14.8308 104.262C14.6887 104.286 12.7576 103.305 11.8098 102.811L11.0693 101.449L11.3359 99.6122L12.2245 98.1313L14.8308 96.4135L20.7543 94.1035Z" fill="#64BF4B"/>
<path d="M27.5777 91.8691C26.8186 92.0029 24.517 92.5897 21.6848 93.6821C16.0392 95.8596 14.4748 96.5014 13.1007 97.5872C11.9208 98.5195 11.3247 99.5352 11.1418 100.074C10.9107 100.755 11.121 101.467 11.3319 101.978C11.7687 103.036 13.3551 103.7 14.859 104.019C16.9649 104.466 20.1935 104.035 22.1673 103.349C24.2292 102.71 25.4833 102.28 26.3449 102.063C26.7158 101.977 26.9522 101.941 27.1395 101.903" stroke="black" stroke-width="1.73328" stroke-linecap="round"/>
<path d="M27.6758 102.104C28.0645 104.013 29.948 112.107 31.1304 116.152C32.1906 117.696 33.5947 118.701 34.2683 119.351C34.6626 119.66 35.1632 119.926 36.5063 120.694" stroke="black" stroke-width="1.73328" stroke-linecap="round"/>
<path d="M37.4079 120.033C36.998 120.313 35.4284 121.849 34.0752 123.434C32.8458 124.874 32.0106 126.74 31.4358 128.454C31.1579 129.283 31.3041 130.164 31.6294 130.883C32.4159 132.622 35.7741 131.479 37.5053 131.13C39.5685 130.714 40.7849 129.029 42.2131 127.744C44.7386 125.472 47.3271 123.744 49.1721 121.989C50.713 120.523 51.8991 119.193 53.1351 117.951C54.3966 116.685 55.8694 115.603 56.5147 114.013C57.1333 112.334 57.4627 110.522 57.5884 108.557C57.5886 107.952 57.5572 107.197 57.7122 105.848" stroke="black" stroke-width="1.73328" stroke-linecap="round"/>
<path d="M56.7576 104.991C57.8416 104.959 60.1525 105.019 61.9475 105.239C63.9085 105.478 67.2941 105.484 69.8372 105.152C70.7665 105.031 71.5336 104.406 72.2366 103.915C72.9292 103.431 73.1944 102.565 73.2724 101.677C73.35 100.793 72.9415 99.9902 72.3238 99.3243C71.0815 97.9852 69.3062 97.3049 67.5469 96.7533C65.8695 96.2273 64.3864 95.2943 62.7645 94.5775C61.0386 93.8147 59.158 93.0248 57.3262 92.0442C56.8786 91.8202 56.4697 91.6315 56.0703 91.4242C55.6709 91.2168 55.2934 90.9966 54.6152 90.5791" stroke="black" stroke-width="1.73328" stroke-linecap="round"/>
<path d="M48.1357 123.899C49.0282 123.883 50.8399 124.518 53.0872 125.459C55.1337 126.316 57.2646 125.657 57.9697 125.182C58.6521 124.723 58.6074 123.602 58.4524 122.612C58.1487 121.774 57.6082 120.662 56.9695 119.38C56.6769 118.821 56.4482 118.45 55.6406 117.496" stroke="black" stroke-width="1.73328" stroke-linecap="round"/>
<path d="M37.4434 119.889C37.5723 119.889 37.9949 119.365 38.6639 118.389C39.2351 117.578 39.7914 116.813 40.2954 116.004C40.5093 115.588 40.6383 115.162 40.9665 114.226" stroke="black" stroke-width="1.73328" stroke-linecap="round"/>
<path d="M2.88314 47.6584C6.71411 39.772 7.60109 36.3235 16.9557 29.9717C16.2279 29.3659 16.781 24.4843 15.209 20.2839C13.2441 15.0334 11.9341 12.2061 11.9341 9.58084C11.9341 6.95559 10.4058 2.71517 16.9557 1.70545C23.5055 0.695738 26.1254 0.695423 25.9071 4.12845C25.6887 7.56148 24.5971 8.57119 24.3788 10.5906C24.1604 12.6101 22.9203 19.1279 24.8118 23.3396C25.8269 25.5999 28.2231 27.0826 27.7137 27.3518C34.5546 26.4094 42.0094 24.468 46.9629 24.7287C51.9165 24.9894 61.8972 25.6285 67.1399 27.3518C72.3825 29.0752 75.211 34.0244 75.211 34.0244C76.2667 32.2969 79.3253 30.3492 80.6771 28.5091C82.029 26.669 85.5006 19.2947 89.6586 20.2839C94.9148 21.5345 96.0014 26.0162 94.4175 29.9717C92.8337 33.9272 92.678 34.8479 87.8934 34.9944C85.7461 35.6149 81.2967 37.2265 80.6771 38.708C82.8604 41.5352 89.6586 48.5155 89.6586 53.2006C89.6586 59.0569 90.9685 63.2818 89.6586 67.7245C88.3486 72.1672 87.9119 74.6778 78.9605 82.9575C70.0332 91.2149 60.8464 92.1385 40.8726 94.1466L40.7108 94.1629C24.642 95.7784 16.965 89.7523 10.4509 84.0979C3.93683 78.4435 -0.806143 55.2532 2.88314 47.6584Z" fill="#64BF4B" stroke="black" stroke-width="1.73328" stroke-linejoin="round"/>
<mask id="mask0_1504_6467" style="mask-type:alpha" maskUnits="userSpaceOnUse" x="35" y="62" width="29" height="20">
<path d="M45.1338 67.5262C49.0643 64.7616 50.2136 64.1956 53.214 63.4389C55.0079 62.6934 59.4794 61.7914 63.014 64.1469C63.4354 64.5448 64.0219 65.0283 63.984 65.7465C63.8889 67.5518 63.7933 69.077 63.185 70.1102C62.5036 71.2674 61.6237 72.511 60.1674 73.846C58.8893 75.0176 56.7594 75.7199 54.2706 76.988C51.6204 78.3383 48.0212 79.3872 44.2095 80.5324C40.1733 81.7451 37.3535 82.3315 36.498 81.466C35.9854 80.9473 35.4403 80.3631 35.5279 79.6323C35.7995 77.3653 37.0582 75.0041 39.7957 72.2071C41.4135 70.5541 43.0607 68.9842 45.1338 67.5262Z" fill="black"/>
</mask>
<g mask="url(#mask0_1504_6467)">
<path d="M45.1338 67.5262C49.0643 64.7616 50.2136 64.1956 53.214 63.4389C55.0079 62.6934 59.4794 61.7914 63.014 64.1469C63.4354 64.5448 64.0219 65.0283 63.984 65.7465C63.8889 67.5518 63.7933 69.077 63.185 70.1102C62.5036 71.2674 61.6237 72.511 60.1674 73.846C58.8893 75.0176 56.7594 75.7199 54.2706 76.988C51.6204 78.3383 48.0212 79.3872 44.2095 80.5324C40.1733 81.7451 37.3535 82.3315 36.498 81.466C35.9854 80.9473 35.4403 80.3631 35.5279 79.6323C35.7995 77.3653 37.0582 75.0041 39.7957 72.2071C41.4135 70.5541 43.0607 68.9842 45.1338 67.5262Z" fill="black"/>
<circle cx="53.3829" cy="62.8585" r="9.03035" fill="#D9D9D9"/>
</g>
<path d="M45.1338 67.5262C49.0643 64.7616 50.2136 64.1956 53.214 63.4389C55.0079 62.6934 59.4794 61.7914 63.014 64.1469C63.4354 64.5448 64.0219 65.0283 63.984 65.7465C63.8889 67.5518 63.7933 69.077 63.185 70.1102C62.5036 71.2674 61.6237 72.511 60.1674 73.846C58.8893 75.0176 56.7594 75.7199 54.2706 76.988C51.6204 78.3383 48.0212 79.3872 44.2095 80.5324C40.1733 81.7451 37.3535 82.3315 36.498 81.466C35.9854 80.9473 35.4403 80.3631 35.5279 79.6323C35.7995 77.3653 37.0582 75.0041 39.7957 72.2071C41.4135 70.5541 43.0607 68.9842 45.1338 67.5262Z" stroke="black" stroke-width="1.73328" stroke-linecap="round"/>
<mask id="mask1_1504_6467" style="mask-type:alpha" maskUnits="userSpaceOnUse" x="10" y="56" width="15" height="23">
<path d="M18.6587 61.8299C16.8739 58.8904 16.0128 57.8362 15.7743 57.5736C15.2827 57.0325 13.8724 56.8646 13.7079 56.8932C13.3765 56.9697 12.6661 57.365 12.3233 57.6513C11.7947 58.1014 11.3618 58.4728 11.1905 59.2235C11.0277 59.9374 10.9223 60.7088 10.9097 61.594C10.8836 63.4297 11.1468 64.8037 11.462 65.8535C11.9385 67.4401 12.5131 69.1138 12.9846 70.0731C13.438 70.9952 14.1416 72.9157 15.2369 74.1395C16.5696 75.6285 17.6422 76.3427 18.8298 77.0616C19.5744 77.5124 20.2261 78.2498 21.2381 78.3599C22.1392 78.458 23.3 78.4925 23.7553 77.8066C23.9272 77.5476 24.0833 77.0642 23.9772 76.1288C23.8201 74.7444 23.457 72.5605 22.0271 69.0752C21.1184 66.8602 19.8387 63.7732 18.6587 61.8299Z" fill="black"/>
</mask>
<g mask="url(#mask1_1504_6467)">
<path d="M18.6587 61.8299C16.8739 58.8904 16.0128 57.8362 15.7743 57.5736C15.2827 57.0325 13.8724 56.8646 13.7079 56.8932C13.3765 56.9697 12.6661 57.365 12.3233 57.6513C11.7947 58.1014 11.3618 58.4728 11.1905 59.2235C11.0277 59.9374 10.9223 60.7088 10.9097 61.594C10.8836 63.4297 11.1468 64.8037 11.462 65.8535C11.9385 67.4401 12.5131 69.1138 12.9846 70.0731C13.438 70.9952 14.1416 72.9157 15.2369 74.1395C16.5696 75.6285 17.6422 76.3427 18.8298 77.0616C19.5744 77.5124 20.2261 78.2498 21.2381 78.3599C22.1392 78.458 23.3 78.4925 23.7553 77.8066C23.9272 77.5476 24.0833 77.0642 23.9772 76.1288C23.8201 74.7444 23.457 72.5605 22.0271 69.0752C21.1184 66.8602 19.8387 63.7732 18.6587 61.8299Z" fill="black"/>
<circle cx="22.2598" cy="60.4991" r="9.03035" fill="#D9D9D9"/>
</g>
<path d="M18.6587 61.8299C16.8739 58.8904 16.0128 57.8362 15.7743 57.5736C15.2827 57.0325 13.8724 56.8646 13.7079 56.8932C13.3765 56.9697 12.6661 57.365 12.3233 57.6513C11.7947 58.1014 11.3618 58.4728 11.1905 59.2235C11.0277 59.9374 10.9223 60.7088 10.9097 61.594C10.8836 63.4297 11.1468 64.8037 11.462 65.8535C11.9385 67.4401 12.5131 69.1138 12.9846 70.0731C13.438 70.9952 14.1416 72.9157 15.2369 74.1395C16.5696 75.6285 17.6422 76.3427 18.8298 77.0616C19.5744 77.5124 20.2261 78.2498 21.2381 78.3599C22.1392 78.458 23.3 78.4925 23.7553 77.8066C23.9272 77.5476 24.0833 77.0642 23.9772 76.1288C23.8201 74.7444 23.457 72.5605 22.0271 69.0752C21.1184 66.8602 19.8387 63.7732 18.6587 61.8299Z" stroke="black" stroke-width="1.73328" stroke-linecap="round"/>
<path d="M80.6415 38.7227C79.1898 39.8303 77.6102 41.0846 75.8199 42.8405C75.2432 43.5132 74.614 44.3679 74.2241 44.8797C73.8341 45.3916 73.7026 45.5348 73.4873 45.7606" stroke="black" stroke-width="1.73328" stroke-linecap="round"/>
<path d="M75.2895 33.9502C75.0472 33.9997 74.2642 34.2393 73.2896 34.7189C72.3552 35.2896 71.1865 35.9059 70.465 36.1318C70.2914 36.1776 70.1204 36.2294 69.9043 36.2827" stroke="black" stroke-width="1.73328" stroke-linecap="round"/>
<path d="M27.7305 84.7879C27.7305 84.7569 28.1374 84.4971 29.1029 84.0377C29.6615 83.8221 30.3595 83.6423 30.822 83.5497C31.2845 83.457 31.4903 83.457 31.5616 83.457" stroke="black" stroke-width="1.73328" stroke-linecap="round"/>
</svg>
