<svg width="120" height="120" viewBox="0 0 120 120" fill="none" xmlns="http://www.w3.org/2000/svg">
<path d="M43.6893 26.2762C42.5699 26.6453 38.1342 28.8417 37.8907 28.6744C37.6472 28.5072 37.7663 27.9073 37.7952 27.6051C37.8242 27.3028 37.862 27.0232 37.8907 26.7485C38.0156 25.6799 38.4481 24.6053 38.5594 23.4596C38.6852 22.1634 39.3602 20.9327 39.6494 19.6582C39.8879 18.6074 39.508 16.8301 40.4946 16.704C42.1086 16.4977 43.517 16.5471 43.8536 15.5821C44.0342 15.0644 44.0892 14.4956 43.7945 14.0404C43.1203 12.9991 42.2688 11.8683 41.1848 11.8542C39.8892 11.8374 38.6394 11.6204 37.7685 12.2398C36.8514 12.8922 35.6874 13.7456 35.7068 14.8025C35.7274 15.9236 36.0272 17.1645 35.928 18.2565C35.8413 19.2124 35.1047 20.0245 34.7146 21.0176C34.3199 22.0225 34.0279 23.0641 33.6264 24.409C33.3089 25.4725 33.0767 26.5556 32.8742 27.6337C32.6615 28.7664 33.3381 30.6122 31.9858 31.3763C31.0326 31.9149 29.9468 32.4587 29.1439 33.3878C28.2689 34.4005 27.4276 35.2277 26.7465 36.1004C26.1047 36.9227 25.2681 37.7689 24.6472 38.7571C23.9981 39.7901 23.3769 40.9052 22.7464 42.0994L22.6923 42.2019C22.1608 43.2082 21.6383 44.1976 21.2578 45.2039C20.8816 46.1988 20.402 47.1583 20.1499 48.1848C19.9056 49.1797 19.8277 50.179 19.6715 51.2233C19.5111 52.2947 20.1706 53.9502 19.3887 54.5209C19.2425 54.6277 18.807 54.5111 18.751 54.7063C18.5053 55.5621 18.2372 58.2287 18.5558 60.0131C18.737 61.0275 18.6244 62.1171 18.9958 63.0513C19.413 64.1007 19.8332 65.1861 20.2155 66.2022C20.6076 67.2447 21.0297 68.2172 21.5534 69.1255C22.0991 70.0719 22.5368 71.0388 23.5239 71.9923C24.6421 73.0723 25.4439 73.904 26.3222 74.4266C27.2217 74.9617 28.2098 75.4304 29.208 76.0027C30.1257 76.529 31.0019 77.1416 32.0174 77.5984C33.1651 78.1146 34.1412 78.6119 35.1989 78.9736C36.3179 79.3562 38.1483 79.5694 38.1482 80.9556C38.1477 84.958 37.7133 85.9987 37.0941 86.8861C36.4523 87.8059 35.8116 88.8227 35.1633 89.6377C34.4814 90.495 33.8004 91.3876 33.0774 92.4544C32.4283 93.412 31.3549 94.7472 31.672 95.8655C31.9511 96.8503 32.3741 98.2705 33.4642 98.3177C34.3421 98.3558 35.1162 98.3071 35.6303 98.2109C36.8155 97.9892 38.0907 97.7161 39.0909 97.3965C40.2266 97.0337 41.4283 96.5051 42.6025 96.0397C43.6934 95.6073 44.7791 95.1276 45.8397 94.8567C46.9636 94.5697 47.9075 94.1884 48.9898 93.8547C49.9941 93.5451 51.2662 93.0927 52.1997 93.6355C53.108 94.1638 53.9854 94.9266 54.8364 95.8446C55.6876 96.7629 56.543 97.4555 57.4257 97.9638C58.3246 98.4815 59.3423 99.2227 60.3133 99.9144C61.2122 100.555 62.0505 101.089 62.8926 101.682C63.7344 102.274 64.5084 103.001 65.5585 103.813C66.4872 104.531 67.8963 105.844 69.0264 106.717C69.9071 107.397 70.7785 108.146 71.7688 108.761C72.6771 109.325 73.5676 109.797 74.492 110.347C75.5055 110.95 76.3327 111.681 77.2335 112.162C78.2204 112.689 79.2272 113.724 80.5512 113.804C81.3331 113.852 82.1001 113.806 82.3821 113.379C82.6676 112.947 83.1173 110.925 82.6957 108.288C82.4227 106.58 82.3373 105.57 82.4273 104.445C82.5227 103.253 82.2993 101.843 83.1077 100.898C83.4605 100.486 83.8927 100.189 84.5214 100.011C86.131 99.5535 87.1506 99.2846 89.7074 99.2135C92.1898 99.1446 93.3334 99.1444 94.38 98.8994C95.4224 98.6554 96.5674 98.5254 97.1588 97.6666C97.7509 96.8068 98.3435 95.6833 97.9513 94.7319C97.5469 93.7512 97.0103 92.8168 96.0585 92.3253C95.0372 91.7978 93.8235 91.1366 92.8299 90.7324C91.8552 90.3359 90.8999 89.832 89.8748 89.1524C88.9679 88.5511 87.9935 87.9514 87.1852 87.2615C86.4007 86.5919 85.2851 85.7434 84.2982 84.6676C83.4201 83.7103 82.16 82.5492 82.5517 81.5424C82.6398 81.3158 82.8083 81.072 83.0503 81.0167C84.0363 80.7915 85.146 80.7352 86.7784 80.5912C88.0946 80.4751 89.1263 80.2969 90.1741 79.9737C91.3369 79.6151 93.1261 79.419 93.8595 78.2016C94.4232 77.2656 95.5123 76.2281 95.0604 75.2874C94.844 74.8369 94.488 74.3612 93.9669 74.0376C93.0133 73.4454 92.0105 73.0496 91.0165 72.8798C89.8652 72.6832 88.5928 72.4043 87.5762 72.2056C86.4556 71.9865 85.2853 71.7186 84.205 71.5004C83.1476 71.2869 81.1212 71.1703 81.4401 70.3084C81.768 69.4222 82.2578 68.5238 82.8375 67.4755C83.38 66.4944 83.8593 65.4684 84.5649 64.4893C85.1935 63.6168 85.785 62.7362 86.4014 61.8184L86.4087 61.8075C87.0304 60.8818 87.7769 60.0331 88.1178 58.9322C88.4429 57.8825 88.8095 56.8687 89.0536 55.7679C89.2832 54.7328 89.2248 53.6311 89.549 50.6275C89.7138 49.1015 89.5155 47.8278 89.4038 46.6796C89.3001 45.6133 89.2852 44.4484 88.6414 43.4714C88.0386 42.5569 87.4807 41.6892 86.9687 40.7869C86.4229 39.8251 85.8945 38.7235 85.2674 37.844C84.6357 36.9582 83.9386 36.0829 83.2553 35.1971C82.6229 34.3773 81.9687 33.5712 81.269 32.757C80.5718 31.9457 79.5892 31.0111 78.6345 30.2164C77.8428 29.5573 77.0334 28.8916 76.0902 28.332C75.1413 27.7689 74.1358 27.3054 72.952 26.883C71.8006 26.4722 70.2095 26.4568 69.8708 25.4609C69.75 25.1059 69.721 24.4272 69.8174 23.9747C70.0756 22.7622 70.301 21.7152 70.7257 20.7761C71.1659 19.8027 71.6292 18.6377 72.0307 17.6012C72.4048 16.6357 72.5608 15.4542 73.3409 14.7743C74.1268 14.0893 75.2265 14.2427 76.151 13.7605C77.0754 13.2783 78.4101 12.8537 78.5107 11.8427C78.5599 11.3486 78.5428 10.7998 78.3123 10.2559C77.7278 8.8768 77.0521 7.35076 75.9692 7.10171C74.5501 6.77532 72.8225 6.62587 71.675 7.44683C70.44 8.33039 69.4773 9.10476 69.1334 10.2928C68.7871 11.4892 69.9257 12.6573 69.3151 13.5524C69.0619 13.9236 68.4601 14.4417 67.6476 15.1531C66.8286 15.8701 66.1515 16.6829 65.5688 17.6082L65.5146 17.6942C64.9175 18.642 64.1253 19.8995 63.3949 21.5519C62.8335 22.822 63.1323 24.9067 61.7509 24.9783C56.9924 25.2251 52.6156 25.211 50.5028 25.3805C48.956 25.5046 47.807 25.5474 46.7707 25.7021C45.7416 25.8558 44.6665 25.9541 43.6893 26.2762Z" fill="#64BF4B" stroke="black" stroke-width="1.24756" stroke-linecap="round"/>
<path d="M29.2142 59.9117C28.7558 59.5534 26.5518 56.8345 26.3033 56.2996C26.0549 55.7646 26.0236 54.9776 25.9907 54.855C25.912 54.2129 25.9691 53.4093 26.0503 52.9097C26.1892 52.4097 26.4047 51.8429 26.7803 51.4272C27.2095 50.9519 27.6604 50.6176 28.1096 50.3236C28.6689 49.9575 29.2576 49.5657 29.7625 49.4816C30.2683 49.3973 30.8173 49.3199 31.391 49.2619C32.0823 49.192 33.8068 49.156 35.6635 49.2294C37.287 49.2937 38.5197 49.379 39.2396 49.4146C39.9708 49.4508 40.6227 49.5116 41.3852 49.5444C42.2732 49.5826 43.2145 49.5786 44.0058 49.6649C44.6324 49.7332 45.1841 49.7901 45.7537 49.8506C46.3363 49.9125 47.0367 49.9807 47.6488 50.0203C48.4317 50.0709 49.2681 50.0687 49.7724 50.3239C50.2537 50.5676 50.6978 50.8849 51.2634 51.4971C51.7885 52.0652 52.259 52.6174 52.5157 53.1795L52.5395 53.2315C52.8828 53.9829 53.1101 54.4804 53.1003 55.0956C53.0816 56.2658 53.1101 56.9979 52.8871 57.4981C52.6134 58.1122 52.335 58.661 51.9513 59.0493C51.5793 59.4258 51.131 59.7453 50.7011 60.0714C50.2864 60.3859 49.8432 60.6857 49.3593 60.9238C48.8457 61.1765 48.3669 61.4194 47.8432 61.5474C47.3383 61.6709 46.8336 61.7483 46.3363 61.7995C45.8261 61.8521 45.3344 61.9161 44.8332 62.0345C44.2803 62.1651 43.7784 62.2956 43.2491 62.3694C42.6884 62.4477 41.8688 62.5326 40.8098 62.5432C39.0511 62.5607 36.8643 62.588 36.0919 62.4604C35.5136 62.3648 34.9483 62.2376 34.3869 62.12C33.8174 62.0007 33.2597 61.965 32.71 61.6959C32.129 61.4115 31.3517 60.9541 30.7448 60.6855C30.2245 60.4552 29.671 60.2687 29.2142 59.9117Z" fill="black" stroke="black" stroke-width="1.24756" stroke-linecap="round"/>
<path d="M69.0532 45.478C69.5422 45.0492 71.4415 43.5938 72.0451 43.2526C72.6487 42.9115 73.5664 42.4233 73.6401 42.3885C73.9248 42.2325 74.1422 42.211 74.4315 41.9953C74.8865 41.734 75.3126 41.5247 75.7187 41.2707C76.0356 41.0725 76.3625 40.9019 76.6806 40.8392C77.0237 40.7716 77.4073 40.6478 77.7515 40.6356C78.7109 40.6014 80.3839 40.5601 80.7569 40.7193C81.3257 40.962 81.8352 41.1817 82.1077 41.3704C82.3835 41.5613 82.7519 41.7086 83.0282 42.0104C83.369 42.3827 83.6494 42.7102 83.7847 43.0359C83.9195 43.3605 84.1001 43.6655 84.0097 44.9265C83.9597 45.623 84.014 46.1188 83.7558 46.5556C83.5766 46.8587 83.3685 47.1678 83.1512 47.6429C82.8705 48.2567 82.6456 48.589 82.4191 48.9059C82.1939 49.2209 82.0061 49.5661 81.7519 49.9008C81.5288 50.1948 81.2792 50.4577 80.9572 50.8128C80.576 51.2332 80.3161 51.5204 80.0952 51.7838C79.8756 52.0457 79.6282 52.5105 79.2734 52.8802C79 53.1652 78.7843 53.512 78.4875 53.8378C78.1832 54.1719 78.0043 54.4416 77.7635 54.7057C77.4587 55.04 77.1867 55.2722 76.8349 55.6123C76.5674 55.8709 76.2764 56.1244 75.9895 56.3825C75.74 56.607 75.4967 56.8178 75.2354 57.0821C74.9916 57.3287 74.7696 57.6201 74.4212 57.7808C73.983 57.9829 73.5312 58.0787 73.1971 58.1678C72.8706 58.2549 72.5475 58.3205 72.2201 58.4472C71.684 58.6547 71.1749 58.9226 70.8449 58.931C69.979 58.9531 68.6617 58.8939 68.2868 58.8531C67.9165 58.8127 67.4805 58.7868 66.9775 58.5176C66.5542 58.2911 66.1315 58.0113 65.8795 57.8095C65.6186 57.6006 65.3112 57.3244 65.1529 57.0069C64.9713 56.6425 64.7052 56.2198 64.5981 55.6277C64.5312 55.2575 64.4379 54.9429 64.4415 54.4851C64.4485 53.5932 64.4526 53.2482 64.523 52.701C64.5724 52.3169 64.5903 51.8301 64.7051 51.4162C64.8163 51.0149 64.8725 50.6608 65.1008 50.1891C65.2818 49.8152 65.4336 49.4821 65.6979 49.159C66.0321 48.7503 66.3875 48.3314 66.6696 47.9033C66.8794 47.585 67.0549 47.2782 67.437 46.9262C68.0589 46.3534 68.563 45.908 69.0532 45.478Z" fill="black" stroke="black" stroke-width="1.24756" stroke-linecap="round"/>
<ellipse cx="43.9748" cy="53.5347" rx="5.12711" ry="2.87748" fill="#D9D9D9"/>
<ellipse cx="76.8343" cy="44.6501" rx="4.41385" ry="2.47718" transform="rotate(-24.7126 76.8343 44.6501)" fill="#D9D9D9"/>
<path d="M66.761 55.5404C67.2571 55.0446 69.2872 53.292 69.7133 52.9638C70.1393 52.6356 71.0106 52.2733 71.1281 52.1893C71.2455 52.1053 71.3613 52.0225 71.4842 51.9438C71.9897 51.6559 72.5352 51.3849 73.1317 51.2226C73.6902 51.0706 74.2725 50.7956 74.8949 50.7575C75.5746 50.7159 76.3249 50.6219 78.3095 50.6712C79.3943 50.6981 79.9657 50.7577 80.6539 50.7945C81.8202 50.8568 82.6832 50.8545 83.3938 51.0187C84.0196 51.1632 84.6461 51.369 85.1778 51.6388C85.7565 51.9324 86.3986 52.1386 86.9561 52.4776C87.6094 52.8749 88.2847 53.4474 88.9551 54.0032C89.425 54.3928 89.9425 54.7481 90.1549 55.2895C90.4072 55.9324 90.7349 56.4259 91.1091 57.1275C91.4525 57.7713 91.8407 58.3684 92.0669 59.0188C92.3029 59.6976 92.4978 60.3625 92.5603 61.0405C92.6325 61.8234 92.7704 62.4878 92.7237 63.5658C92.6928 64.2778 92.6532 64.9612 92.5697 65.657C92.4777 66.4243 92.4281 67.0225 92.2864 67.6232C92.1413 68.2379 91.9482 68.8792 91.6285 69.6431C91.3535 70.2999 91.0076 71.2756 90.5275 72.0898C89.9994 72.9852 89.6105 73.4327 89.2219 73.8758C88.8117 74.3437 88.3952 74.768 87.9156 75.3663C87.5264 75.8518 87.0608 76.2475 86.591 76.6193L86.5786 76.6291C85.9756 77.1063 85.4747 77.5028 84.8553 77.7539C84.27 77.9912 83.5625 78.2705 82.7918 78.3235C81.4781 78.4139 80.2493 78.6938 76.4115 78.451C75.1707 78.3725 74.5319 78.3584 73.8958 78.2075C73.2724 78.0596 72.6499 77.8599 72.125 77.5368C71.6157 77.2232 71.0989 76.9568 70.5145 76.7172C69.6229 76.3516 68.6693 75.902 68.1434 75.5498C67.4854 75.109 66.6377 74.6462 66.1621 73.7955C65.7853 73.1216 65.59 72.5033 65.2982 71.8941C64.9736 71.2164 64.5939 70.4633 64.3877 69.8352C64.1785 69.1978 63.8423 68.6287 63.8084 67.9373C63.751 66.7667 63.4585 66.0789 63.6415 63.6749C63.7225 62.61 63.8176 61.779 63.9862 61.0778C64.1706 60.3109 64.3374 59.7366 64.5693 59.1741C64.8146 58.5789 65.1015 57.9666 65.4419 57.3864C65.9623 56.4992 66.3119 55.9892 66.761 55.5404Z" fill="#FFC3FA" stroke="#FD9DFF" stroke-width="1.24756" stroke-linecap="round"/>
<path d="M77.4062 54.3318C78.4091 54.2568 78.9641 54.2469 79.3779 54.2196C79.759 54.1945 80.2743 54.3431 80.6323 54.4391C81.2058 54.5928 81.5085 54.7858 81.9087 54.9261C82.3626 55.0852 82.7892 55.3411 83.1638 55.5497C83.4265 55.6959 83.6943 55.8267 84.0624 56.0843C84.3397 56.2783 84.5333 56.57 84.7379 56.7967C84.9461 57.0494 85.1869 57.4801 85.4012 57.8609C85.4432 57.9289 85.4823 57.9876 85.566 58.1664" stroke="white" stroke-width="2.07927" stroke-linecap="round"/>
<path d="M86.7852 61.4521C86.8635 61.5008 87.0452 61.9425 87.2594 62.6079C87.3322 62.9252 87.337 63.1764 87.3394 63.4844C87.337 63.6117 87.3271 63.6802 87.3169 63.765" stroke="white" stroke-width="2.07927" stroke-linecap="round"/>
</svg>
