<svg width="94" height="116" viewBox="0 0 94 116" fill="none" xmlns="http://www.w3.org/2000/svg">
<ellipse cx="53.8646" cy="98.6623" rx="21.4613" ry="16.4465" fill="black" fill-opacity="0.29"/>
<path d="M30.4582 96.9584C27.9053 95.2992 29.2177 89.2996 34.8342 80.1092L67.7865 77.3184C68.8802 77.8834 70.6896 77.9946 72.7457 81.7131C74.6213 85.1052 75.456 88.0882 70.7533 86.2837C66.9912 84.8401 66.4854 86.1409 66.791 87.066C66.791 91.666 68.6649 95.4267 65.6013 96.9585C62.5378 98.4903 59.3212 95.5254 58.4232 95.0438C57.5253 94.5621 56.2479 94.9519 51.8967 96.9584C48.5423 98.5053 51.5562 109.851 46.8332 109.979C42.1102 110.106 41.3443 97.9797 41.089 95.0438C40.8337 92.1078 41.5363 90.2289 39.6215 90.2289C37.7068 90.2289 33.0112 98.6176 30.4582 96.9584Z" fill="#64BF4B" stroke="black" stroke-width="1.73328"/>
<path d="M70.5461 17.6461C53.2306 11.9553 31.4347 17.1615 23.443 24.1843C17.0695 25.828 13.7245 18.225 13.7245 15.4234C13.7245 12.6218 17.4066 13.5378 9.63338 6.96836C1.86018 0.398956 -1.41275 16.6508 2.54204 17.6461C6.49682 18.6415 7.99692 26.6059 13.7245 31.1062C9.49701 38.028 8.13327 45.0161 6.49681 51.1529C4.86035 57.2896 10.9862 66.807 13.7245 70.8566C17.2941 76.1354 27.5725 79.2395 31.9417 80.3685C39.2585 82.259 46.7574 82.3435 52.9912 82.138C59.2249 81.9324 68.963 79.8425 78.0053 75.1843C83.7737 72.2127 88.4755 62.0667 91.2156 55.4904C93.9557 48.9142 93.4077 42.749 91.2156 35.8302C89.0235 28.9114 78.6796 23.0202 78.6111 22.5407L78.608 22.5189C78.539 22.04 78.4365 21.3288 80.4607 18.225C82.5158 15.0739 80.8032 15.2109 83.133 13.5378C88.2292 12.2293 87.3339 6.37562 83.8906 3.4832C80.4472 0.590778 76.935 1.14179 73.836 4.37854C71.3568 6.96795 74.869 10.0485 76.935 11.2651C76.43 12.895 74.4452 16.453 70.5461 17.6461Z" fill="#64BF4B" stroke="black" stroke-width="1.73328"/>
<mask id="mask0_1504_6516" style="mask-type:alpha" maskUnits="userSpaceOnUse" x="58" y="45" width="21" height="25">
<path d="M69.352 48.9333C71.1952 47.1125 71.7612 46.6361 71.7972 46.6361C72.1289 46.4548 72.2812 46.5603 72.5549 46.4892C72.8286 46.4182 73.1503 46.4005 73.4607 46.3534C74.7924 46.0511 76.6024 45.539 77.4153 46.2425C77.7869 46.5642 78.4062 46.892 78.6234 47.5119C79.0448 48.7145 79.0916 50.2194 78.8466 51.3323C78.591 52.4938 78.4871 54.0019 78.2618 55.3141C78.0432 56.5875 77.8791 58.2787 75.9987 60.3258C74.2092 62.274 71.7237 64.9694 68.4058 66.6504C63.8719 68.9475 61.2206 69.5156 59.7701 68.7344C59.2009 68.4279 58.4473 68.1222 58.3824 67.4134C58.2814 66.3095 58.3514 65.1733 58.6879 64.3136C59.4205 62.4425 61.9122 58.2699 63.2695 55.9246C63.7057 55.1707 65.8964 52.3468 69.352 48.9333Z" fill="black"/>
</mask>
<g mask="url(#mask0_1504_6516)">
<path d="M69.352 48.9333C71.1952 47.1125 71.7612 46.6361 71.7972 46.6361C72.1289 46.4548 72.2812 46.5603 72.5549 46.4892C72.8286 46.4182 73.1503 46.4005 73.4607 46.3534C74.7924 46.0511 76.6024 45.539 77.4153 46.2425C77.7869 46.5642 78.4062 46.892 78.6234 47.5119C79.0448 48.7145 79.0916 50.2194 78.8466 51.3323C78.591 52.4938 78.4871 54.0019 78.2618 55.3141C78.0432 56.5875 77.8791 58.2787 75.9987 60.3258C74.2092 62.274 71.7237 64.9694 68.4058 66.6504C63.8719 68.9475 61.2206 69.5156 59.7701 68.7344C59.2009 68.4279 58.4473 68.1222 58.3824 67.4134C58.2814 66.3095 58.3514 65.1733 58.6879 64.3136C59.4205 62.4425 61.9122 58.2699 63.2695 55.9246C63.7057 55.1707 65.8964 52.3468 69.352 48.9333Z" fill="black"/>
<circle cx="66.4151" cy="48.8487" r="9.51963" fill="#D9D9D9"/>
</g>
<path d="M69.352 48.9333C71.1952 47.1125 71.7612 46.6361 71.7972 46.6361C72.1289 46.4548 72.2812 46.5603 72.5549 46.4892C72.8286 46.4182 73.1503 46.4005 73.4607 46.3534C74.7924 46.0511 76.6024 45.539 77.4153 46.2425C77.7869 46.5642 78.4062 46.892 78.6234 47.5119C79.0448 48.7145 79.0916 50.2194 78.8466 51.3323C78.591 52.4938 78.4871 54.0019 78.2618 55.3141C78.0432 56.5875 77.8791 58.2787 75.9987 60.3258C74.2092 62.274 71.7237 64.9694 68.4058 66.6504C63.8719 68.9475 61.2206 69.5156 59.7701 68.7344C59.2009 68.4279 58.4473 68.1222 58.3824 67.4134C58.2814 66.3095 58.3514 65.1733 58.6879 64.3136C59.4205 62.4425 61.9122 58.2699 63.2695 55.9246C63.7057 55.1707 65.8964 52.3468 69.352 48.9333Z" stroke="black" stroke-width="1.73328" stroke-linecap="round"/>
<mask id="mask1_1504_6516" style="mask-type:alpha" maskUnits="userSpaceOnUse" x="22" y="52" width="24" height="21">
<path d="M22.6773 57.526C21.8628 54.7305 22.2968 53.8433 22.3539 53.5696C22.5427 53.3274 22.6844 53.1743 22.8355 53.0401C23.4586 52.5672 24.138 52.2514 26.1515 52.2188C27.4012 52.3081 28.8744 52.206 30.4557 52.5817C32.8236 53.1442 35.2286 53.9177 36.4695 55.201C38.6731 57.48 39.9509 58.7251 41.9855 61.6394C43.207 63.3891 45.4489 65.6175 45.8658 68.5454C46.0271 69.6783 45.9271 70.6148 45.5041 71.3131C45.1222 71.9434 41.0471 72.6905 38.3541 72.0653C35.7491 71.4605 33.0042 70.0827 31.6736 69.2586C30.221 68.359 26.6817 66.468 25.2884 63.4625C24.2438 61.209 23.1614 59.1873 22.6773 57.526Z" fill="black"/>
</mask>
<g mask="url(#mask1_1504_6516)">
<path d="M22.6773 57.526C21.8628 54.7305 22.2968 53.8433 22.3539 53.5696C22.5427 53.3274 22.6844 53.1743 22.8355 53.0401C23.4586 52.5672 24.138 52.2514 26.1515 52.2188C27.4012 52.3081 28.8744 52.206 30.4557 52.5817C32.8236 53.1442 35.2286 53.9177 36.4695 55.201C38.6731 57.48 39.9509 58.7251 41.9855 61.6394C43.207 63.3891 45.4489 65.6175 45.8658 68.5454C46.0271 69.6783 45.9271 70.6148 45.5041 71.3131C45.1222 71.9434 41.0471 72.6905 38.3541 72.0653C35.7491 71.4605 33.0042 70.0827 31.6736 69.2586C30.221 68.359 26.6817 66.468 25.2884 63.4625C24.2438 61.209 23.1614 59.1873 22.6773 57.526Z" fill="black"/>
<circle cx="34.4464" cy="52.8624" r="9.51963" fill="#D9D9D9"/>
</g>
<path d="M22.6773 57.526C21.8628 54.7305 22.2968 53.8433 22.3539 53.5696C22.5427 53.3274 22.6844 53.1743 22.8355 53.0401C23.4586 52.5672 24.138 52.2514 26.1515 52.2188C27.4012 52.3081 28.8744 52.206 30.4557 52.5817C32.8236 53.1442 35.2286 53.9177 36.4695 55.201C38.6731 57.48 39.9509 58.7251 41.9855 61.6394C43.207 63.3891 45.4489 65.6175 45.8658 68.5454C46.0271 69.6783 45.9271 70.6148 45.5041 71.3131C45.1222 71.9434 41.0471 72.6905 38.3541 72.0653C35.7491 71.4605 33.0042 70.0827 31.6736 69.2586C30.221 68.359 26.6817 66.468 25.2884 63.4625C24.2438 61.209 23.1614 59.1873 22.6773 57.526Z" stroke="black" stroke-width="1.73328" stroke-linecap="round"/>
<path d="M50.3105 73.2988C51.0236 73.8199 52.2185 74.9058 52.7423 75.2215C53.0001 75.3768 53.3126 75.3852 53.5417 75.2741C54.0258 75.0393 54.2147 74.1545 54.4812 73.5733C54.6106 73.291 55.2052 74.2877 55.8193 74.7722C56.4289 74.9933 57.0306 75.0154 57.5796 74.8907C57.8373 74.7875 58.0529 74.6034 58.3392 74.0871" stroke="black" stroke-width="1.73328" stroke-linecap="round"/>
</svg>
