<svg width="120" height="120" viewBox="0 0 120 120" fill="none" xmlns="http://www.w3.org/2000/svg">
<path d="M37.7809 13.4779C38.6342 14.0763 47.5812 22.4074 47.8992 22.487C48.2173 22.5665 49.7362 21.4535 49.9834 21.3215C50.4741 21.05 51.0687 20.7342 51.7353 20.4257C52.9375 20.008 54.0279 19.532 55.2693 19.3289C56.409 19.1424 57.5335 18.9358 58.6453 18.7169C59.794 18.4907 61.1036 18.121 62.4029 18.054C64.8627 17.9271 68.8762 17.9714 71.0015 18.7926C72.428 19.3437 74.487 21.0704 74.6336 20.067C74.9406 17.9665 74.551 14.7297 73.9313 13.8374C73.2562 12.8654 72.4503 11.759 72.5894 10.5414C72.6546 9.97134 72.8655 9.38969 73.3853 9.0379C73.9521 8.6543 74.5678 8.27322 75.2739 8.51467C76.424 8.90794 77.8255 9.16805 79.0981 9.83076C81.6691 11.1696 83.0254 11.7817 83.3685 13.016C83.8272 14.6664 83.9176 15.9863 83.1317 16.9167C82.0182 18.2348 81.7445 19.3349 81.4898 20.4369C81.2154 21.6238 80.7039 23.0354 81.5642 23.9444C82.0061 24.4114 82.4903 24.7829 82.9051 25.2184C83.8539 26.2145 84.635 27.2423 85.4911 28.2175C86.2854 29.1223 87.6589 30.1951 88.3596 31.4209C89.0897 32.6983 90.1556 34.2592 90.8293 35.9325L90.8547 35.9956C91.5936 37.8305 92.268 39.5054 92.2218 41.1258C92.1527 43.5464 92.2086 45.5655 91.8481 47.0333C91.3637 49.0058 90.5995 52.0056 89.9342 53.8446C89.4951 55.0588 89.1634 56.2216 88.2926 57.3308L88.2892 57.3351C87.2974 58.5986 86.3535 59.8008 85.3597 60.8025C84.3827 61.7873 83.4927 62.8265 82.4652 63.3452C81.2141 63.9768 79.5482 64.3593 77.9536 64.9993C76.833 65.449 75.6035 66.161 75.2315 67.4164C74.9003 68.5343 74.4263 69.5597 74.1932 71.6649C74.0678 72.7973 74.2847 77.147 73.9545 83.0558C73.7098 87.4351 73.6814 89.5337 72.2924 90.7793C71.3701 91.6064 70.4582 92.25 69.4993 92.8701C68.373 93.5984 67.1024 94.097 65.7279 94.8236C64.2926 95.5823 62.6162 96.6715 60.6494 97.5833C59.2431 98.2352 57.6758 98.8085 57.2629 99.8386C56.7072 101.225 55.9124 103.226 55.7919 105.995C55.6832 108.491 55.3541 109.669 54.4773 110.405C53.5366 111.195 52.3649 112.05 50.5705 111.718C49.7607 111.568 49.1617 111.284 48.8162 110.832C48.4697 110.378 48.047 109.87 47.8506 109.203C47.4671 107.901 47.3745 104.285 47.2496 101.641C47.1716 99.9904 47.966 98.7387 47.2818 96.567C47.1408 96.1195 46.8576 95.9047 46.608 96.0159C45.5253 96.4987 44.2248 97.2391 42.3545 97.7329C38.8147 98.6676 36.1081 100.815 35.5357 99.768C34.7907 98.4057 33.9486 95.8917 34.5962 94.8573C35.218 93.864 36.9538 92.0964 38.6573 90.9411C40.8977 89.4217 44.0787 88.8384 44.2199 87.253C44.3354 85.9552 44.2131 84.5492 43.9719 81.827C43.8453 80.3989 44.532 78.0201 43.2986 77.9582C40.5432 77.8201 36.1161 78.2881 33.6938 76.6321C33.2321 76.3164 33.1261 76.0605 33.1257 75.6799C33.1249 74.8125 33.1679 73.8945 33.5663 73.3109C34.2632 72.2898 35.2648 71.3719 36.4617 71.1289C38.5293 70.7091 41.2133 69.9865 42.5566 69.4288C44.161 68.7628 45.9751 68.5367 46.5423 67.3041C46.7897 66.7662 47.0915 66.1925 47.285 65.5586C47.6351 64.4113 48.3434 62.4857 47.1958 61.8274C46.7443 61.5684 44.5859 60.9305 42.6779 59.9825C40.4659 58.8834 39.0773 58.1614 38.1357 57.1704C37.2658 56.2549 35.5011 54.7783 34.3254 53.0242C33.5022 51.7961 32.3932 50.3554 31.8835 48.8261C31.2113 46.8092 30.9444 43.9814 31.0618 41.0153C31.1231 39.4678 31.1386 37.9726 32.0538 36.6746C32.9943 35.3405 34.1525 34.0705 35.9828 32.1824C37.7656 30.3435 39.2769 28.9223 40.3997 27.9064C41.5614 26.8553 43.9885 26.3975 43.3909 25.827C43.0894 25.5393 42.1892 24.9887 41.2158 23.9873C39.5181 22.2408 38.6918 21.5191 37.959 20.6015C37.2064 19.6593 36.742 18.1169 35.2419 17.9165C34.6389 17.836 34.0737 18.1688 33.4009 18.309C31.975 18.6061 29.8718 18.6475 29.0259 17.7014C28.1852 16.7611 27.2307 15.4365 27.5341 13.844C27.8211 12.3382 28.5913 10.7614 29.8778 9.77803C31.0086 8.91366 32.0743 8.37399 33.2617 8.38982C34.711 8.40915 36.6797 7.77803 37.2214 8.76083C37.724 9.67264 36.3757 12.4926 37.7809 13.4779Z" fill="#64BF4B" stroke="black" stroke-width="1.41348" stroke-linecap="round"/>
<path d="M61.7194 75.9849C60.0205 78.0063 56.5329 82.9067 56.0871 84.8848C55.9907 85.3126 55.9979 85.6318 56.1491 85.8737C56.837 86.9744 59.0169 86.5889 60.8634 86.1759C62.1074 85.8978 63.5491 85.0033 64.7507 84.2549C65.9095 83.5332 66.576 82.4502 67.3476 81.4753C67.531 81.2383 67.6909 81.0151 67.863 80.7885C68.0352 80.5619 68.2147 80.3387 68.4601 79.9243" stroke="black" stroke-width="1.41348" stroke-linecap="round"/>
<mask id="mask0_2161_218" style="mask-type:alpha" maskUnits="userSpaceOnUse" x="66" y="39" width="18" height="17">
<path d="M78.0183 39.8551C76.4824 40.1034 70.2872 45.2113 69.3007 46.3805C68.3143 47.5498 67.8484 48.3704 67.5836 48.7851C66.9598 49.7883 66.3578 50.9123 66.5591 52.7008C67.3623 53.7497 68.1378 54.4557 68.6891 54.5667C69.8328 54.7971 71.2894 55.1317 72.4992 54.9506C73.6821 54.7735 75.2272 54.3118 76.5001 53.8036C77.672 53.3357 79.5956 52.6878 80.7639 51.0235C82.2259 48.9407 83.6998 45.3432 83.345 43.9415C83.0603 42.8166 82.9268 41.4554 81.9607 40.8725C80.9656 40.2721 79.7836 39.5698 78.0183 39.8551Z" fill="black"/>
</mask>
<g mask="url(#mask0_2161_218)">
<path d="M78.0183 39.8551C76.4824 40.1034 70.2872 45.2113 69.3007 46.3805C68.3143 47.5498 67.8484 48.3704 67.5836 48.7851C66.9598 49.7883 66.3578 50.9123 66.5591 52.7008C67.3623 53.7497 68.1378 54.4557 68.6891 54.5667C69.8328 54.7971 71.2894 55.1317 72.4992 54.9506C73.6821 54.7735 75.2272 54.3118 76.5001 53.8036C77.672 53.3357 79.5956 52.6878 80.7639 51.0235C82.2259 48.9407 83.6998 45.3432 83.345 43.9415C83.0603 42.8166 82.9268 41.4554 81.9607 40.8725C80.9656 40.2721 79.7836 39.5698 78.0183 39.8551Z" fill="black"/>
<circle cx="74.0891" cy="52.1199" r="5.24536" fill="#D9D9D9"/>
</g>
<path d="M78.0183 39.8556C76.4824 40.1038 70.2872 45.2117 69.3007 46.381C68.3143 47.5503 67.8484 48.3709 67.5836 48.7856C66.9598 49.7888 66.3578 50.9128 66.5591 52.7013C67.3623 53.7502 68.1378 54.4562 68.6891 54.5672C69.8328 54.7976 71.2894 55.1322 72.4992 54.9511C73.6821 54.774 75.2272 54.3123 76.5001 53.8041C77.672 53.3362 79.5956 52.6883 80.7639 51.024C82.2259 48.9412 83.6998 45.3436 83.345 43.942C83.0603 42.8171 82.9268 41.4559 81.9607 40.873C80.9656 40.2726 79.7836 39.5703 78.0183 39.8556Z" stroke="black" stroke-width="1.41348" stroke-linecap="round"/>
<mask id="mask1_2161_218" style="mask-type:alpha" maskUnits="userSpaceOnUse" x="37" y="41" width="18" height="14">
<path d="M41.9589 41.1072C43.3293 41.152 49.3231 43.9369 50.3624 44.4278C51.4017 44.9187 53.16 46.671 53.3042 46.9081C53.5904 47.3886 53.8636 47.8787 54.1096 48.3715C54.5467 49.437 55.1094 50.82 54.6045 51.8673C54.363 52.3681 54.0211 52.8734 53.4923 53.1469C52.5034 53.6581 51.4864 54.1035 50.3624 54.2112C48.6616 54.3742 46.3434 54.3119 45.3067 53.9576C44.2296 53.5895 43.205 53.0843 42.1751 52.4145C40.8927 51.5805 39.3867 50.7504 38.6247 49.3091C37.9722 48.0751 37.5441 47.0099 37.5045 45.8318C37.4649 44.6541 37.677 43.0782 38.6384 42.3417C39.665 41.5553 40.7515 41.0677 41.9589 41.1072Z" fill="black"/>
</mask>
<g mask="url(#mask1_2161_218)">
<path d="M41.9589 41.1072C43.3293 41.152 49.3231 43.9369 50.3624 44.4278C51.4017 44.9187 53.16 46.671 53.3042 46.9081C53.5904 47.3886 53.8636 47.8787 54.1096 48.3715C54.5467 49.437 55.1094 50.82 54.6045 51.8673C54.363 52.3681 54.0211 52.8734 53.4923 53.1469C52.5034 53.6581 51.4864 54.1035 50.3624 54.2112C48.6616 54.3742 46.3434 54.3119 45.3067 53.9576C44.2296 53.5895 43.205 53.0843 42.1751 52.4145C40.8927 51.5805 39.3867 50.7504 38.6247 49.3091C37.9722 48.0751 37.5441 47.0099 37.5045 45.8318C37.4649 44.6541 37.677 43.0782 38.6384 42.3417C39.665 41.5553 40.7515 41.0677 41.9589 41.1072Z" fill="black"/>
<ellipse cx="48.0724" cy="51.7275" rx="4.8771" ry="5.05958" fill="#D9D9D9"/>
</g>
<path d="M41.9589 41.1067C43.3293 41.1516 49.3231 43.9364 50.3624 44.4273C51.4017 44.9182 53.16 46.6705 53.3042 46.9076C53.5904 47.3881 53.8636 47.8782 54.1096 48.371C54.5467 49.4365 55.1094 50.8195 54.6045 51.8668C54.363 52.3676 54.0211 52.8729 53.4923 53.1464C52.5034 53.6576 51.4864 54.103 50.3624 54.2107C48.6616 54.3737 46.3434 54.3114 45.3067 53.9571C44.2296 53.589 43.205 53.0838 42.1751 52.414C40.8927 51.58 39.3867 50.7499 38.6247 49.3087C37.9722 48.0746 37.5441 47.0094 37.5045 45.8313C37.4649 44.6536 37.677 43.0777 38.6384 42.3412C39.665 41.5548 40.7515 41.0672 41.9589 41.1067Z" stroke="black" stroke-width="1.41348" stroke-linecap="round"/>
</svg>
