<svg width="120" height="120" viewBox="0 0 120 120" fill="none" xmlns="http://www.w3.org/2000/svg">
<path d="M74.4576 23.4055C73.04 23.2899 64.4021 23.5166 64.2012 23.4055C64.0003 23.2944 63.7863 22.4207 63.5802 21.8915C63.0811 20.6143 62.6454 19.504 62.3922 18.8276C61.9641 17.5807 61.3505 16.1599 60.8312 14.7367C60.3011 13.2836 59.1598 12.0258 59.5032 10.7465C59.9283 9.16314 60.7362 7.17249 60.1307 5.96501C59.8411 5.38756 59.386 4.93308 58.7756 4.73754C57.3947 4.29522 55.7779 3.942 54.5044 4.41284C53.2603 4.87279 51.8965 5.23664 51.1726 6.41991C50.8058 7.01958 50.5337 7.70601 50.8016 8.66931C51.2438 10.2594 51.6709 11.5209 52.1833 11.853C53.228 12.5299 55.1344 12.4412 55.6291 13.804C55.9993 14.8238 56.0879 15.7786 56.2255 16.3749C56.5174 17.6406 56.7591 19.0427 57.1843 20.2246C57.6622 21.553 58.3751 22.8716 58.0121 23.9996C57.8228 24.5877 57.4871 25.164 56.8921 25.3918C55.7388 25.8334 54.5781 26.1881 53.3607 26.6385C52.1609 27.0824 50.8963 27.6044 48.3489 29.4795C46.9955 30.4758 46.0026 31.188 45.0383 32.0822C43.9635 33.0788 42.692 34.3202 42.0218 35.5251C41.3529 36.7278 40.8851 37.9817 40.2277 39.2779C39.6578 40.4014 38.9296 41.5895 38.5553 42.9062C38.2099 44.1212 37.8701 45.5209 37.9105 47.2693C37.9911 50.7649 38.1979 51.9384 38.4518 53.108C38.713 54.3117 39.0081 55.6015 39.746 56.6904C40.4382 57.7118 41.1381 58.7296 42.1053 59.7629C43.0941 60.8194 44.3539 62.0047 45.4681 62.9236C46.5542 63.8192 49.235 65.7098 48.7792 67.4116C48.7 67.7075 48.6124 68.0142 48.3875 68.2389C47.492 69.1334 46.3068 69.7452 44.7176 69.9024C41.9629 70.1748 35.3243 69.4578 32.645 70.2575C32.3351 70.35 32.0919 70.5296 31.9249 70.7698C31.7578 71.0099 31.6211 71.308 31.6832 71.598C31.8092 72.1861 32.1109 72.7703 32.5493 73.3053C33.451 74.4054 34.3044 75.3926 35.3808 75.8968C36.4963 76.4192 37.6952 76.9499 39.5548 77.3162C41.5541 77.7099 43.3242 77.4224 45.0276 78.3269C46.2349 78.9679 48.0202 79.953 49.0446 81.4658C49.8003 82.5819 50.6155 83.7543 51.1376 84.9398C51.6928 86.2 52.1308 87.3896 52.3938 88.5902C52.679 89.892 52.8685 91.249 53.0224 92.779C53.1609 94.157 53.3427 95.7023 53.5997 97.2419C53.8423 98.6954 53.8802 100.125 54.1417 101.814C54.3457 103.132 54.5654 104.373 54.8898 105.572C55.2233 106.805 55.603 107.978 55.9779 109.187C56.4346 110.66 56.9672 114.195 58.7196 115.246C59.3031 115.596 59.874 116.02 60.6326 116.041C61.6567 116.07 62.5996 115.986 63.5384 115.065C66.8438 111.823 67.4703 110.535 67.8628 109.274C68.2261 108.107 68.5448 106.648 69.5316 105.788C70.52 104.926 71.7626 103.945 73.1001 104.2C74.4069 104.448 75.6945 104.802 76.6912 105.578C77.6619 106.334 78.6398 107.28 79.8466 108.174C81.3433 109.282 83.3989 110.898 85.1799 111.023C85.9542 111.077 86.8905 111.094 87.3586 110.477C87.7573 109.951 87.9309 109.364 88.0524 108.751C88.3267 107.368 88.3636 104.075 88.2715 101.571C88.2 99.6247 88.0499 98.1273 87.8643 96.8419C87.669 95.4899 87.593 93.8826 87.1578 92.5C86.7359 91.1598 86.0676 89.9135 86.4079 88.6085C86.492 88.2861 86.6303 87.9228 86.9682 87.8597C87.7301 87.7176 88.4998 87.7248 89.0979 87.9521C90.4849 88.4795 91.7562 89.0647 92.835 89.7598C94.1341 90.5969 95.9244 92.1348 97.4126 91.7675C98.0368 91.6135 98.6906 91.4075 99.0061 90.9125C99.1642 90.6643 99.3053 90.3389 99.2084 90.0499C98.7764 88.7612 98.1269 87.2523 97.1682 85.5408C96.1129 83.6569 95.2056 82.0093 94.5239 80.7497C93.8952 79.5879 92.7137 77.883 91.7736 76.4976C90.7921 75.0512 89.2941 73.5983 89.8187 72.6013C89.936 72.3784 90.2113 72.2566 90.4788 72.1002C91.5687 71.4636 92.6057 70.7487 93.5177 69.8386C94.6749 68.6837 95.6694 67.7407 96.2431 66.652C96.8705 65.4616 97.6821 64.1259 98.4499 63.0173C99.1645 61.9853 99.8992 60.9039 100.326 59.499C100.705 58.2553 101.25 56.7678 101.823 55.1405C102.249 53.9306 102.558 50.9185 102.305 48.7202C102.153 47.3979 102.075 46.0887 101.73 44.8648C101.387 43.6448 101.003 42.4114 100.382 41.1415C99.7 39.7472 98.739 38.5802 98.0713 37.554C97.388 36.5038 96.7887 35.2766 95.8891 34.3378C94.8802 33.285 93.0797 32.8789 93.0619 31.7104C93.0536 31.1642 93.3636 30.2948 93.6094 29.0722C93.8475 27.8879 93.966 26.6565 94.178 25.2392C94.3853 23.8537 94.2743 22.3128 95.0562 21.3584C95.8222 20.4234 97.2252 19.7771 97.4505 18.5672C97.5631 17.9625 97.588 17.2173 97.1438 16.6906C96.3324 15.7283 95.4414 14.8611 94.2317 14.358C93.0375 13.8613 91.0026 13.1063 89.9778 14.096C89.5323 14.5263 89.0809 15.0584 89.0656 15.8193C89.0445 16.8697 89.0697 17.8124 89.3866 18.3324C89.7037 18.8525 90.5376 19.0298 90.6681 19.6022C90.792 20.1457 90.686 20.7629 90.5011 21.3488C90.1212 22.5526 89.926 23.8584 89.5428 25.0792C89.1556 26.3126 89.0921 28.9967 88.0522 28.6353C87.6056 28.48 87.0794 28.0753 86.5289 27.7528C85.3428 27.058 83.9546 26.3077 82.6649 25.7379C81.2808 25.1265 79.6176 24.2665 78.3244 24.0215C77.0079 23.7722 75.7267 23.509 74.4576 23.4055Z" fill="#64BF4B" stroke="black" stroke-width="1.65532" stroke-linecap="round"/>
<path d="M13.2367 66.4494C13.1918 66.4494 13.7935 62.5519 14.8364 56.4821C15.474 52.7714 17.5454 51.0424 18.3701 50.0979C18.8207 49.6219 19.324 49.1725 19.8493 48.7737C20.1157 48.5788 20.3821 48.3992 21.0577 48.0781" stroke="black" stroke-width="1.65532" stroke-linecap="round"/>
<path d="M20.8727 69.4428C20.7829 69.4428 20.9824 67.5669 21.4224 64.5744C21.6165 63.4577 21.7516 63.1571 21.9112 62.8609C22.0708 62.5647 22.2507 62.282 22.9735 61.5825" stroke="black" stroke-width="1.65532" stroke-linecap="round"/>
</svg>
