<svg width="120" height="120" viewBox="0 0 120 120" fill="none" xmlns="http://www.w3.org/2000/svg">
<g clip-path="url(#clip0_2161_201)">
<path d="M92.8106 62.2479C91.7529 62.1086 90.8136 61.8603 87.7071 61.089C87.066 61.333 86.2253 61.7247 86.0147 61.829C85.804 61.9333 85.5915 62.0293 85.3561 62.0859C84.3435 62.1395 82.4354 61.9564 80.8439 61.7108C79.7419 61.5408 78.6091 61.3427 77.5814 61.2892C76.2555 61.2202 74.9738 61.0183 73.7973 61.2716C72.6984 61.5083 71.4985 61.8161 69.5473 63.5492C68.5943 64.3957 67.9175 65.0721 67.4069 66.0823C66.9315 67.0229 67.0707 68.8024 65.8732 69.7504C63.3935 71.7134 60.9855 73.1939 61.0852 74.17C61.1334 74.6423 61.2953 75.0978 61.4909 75.5256C61.898 76.4166 62.2888 77.3554 62.6356 78.2721C63.0141 79.2724 63.3543 80.3139 63.5936 81.3139C63.8456 82.3673 64.4371 83.5697 64.1765 84.5055C63.8951 85.5161 63.4451 86.9742 62.0509 87.4234C61.0706 87.7392 59.6263 88.3709 58.2836 88.0208C57.1939 87.7366 56.2555 87.311 55.2957 87.2033C54.3135 87.0929 53.1221 87.0938 51.9753 86.738C50.8019 86.374 49.8248 85.4584 48.8986 85.5876C47.961 85.7185 45.9033 87.1106 44.1898 88.6699C43.257 89.5187 42.2959 90.4301 39.7212 92.516C38.0349 93.8821 37.2353 94.7502 35.8621 95.7422C33.2666 97.6171 31.1299 98.3129 29.6488 100.453C29.2624 101.012 29.1173 101.481 29.1447 101.956C29.2006 102.924 29.3913 103.868 29.528 104.934C29.7132 106.378 29.6785 107.412 29.6803 108.561C29.6819 109.59 29.8037 110.718 29.2272 111.715C28.7176 112.597 27.8525 113.636 26.8519 113.537C25.9177 113.444 24.9313 113.345 24.1046 112.875C23.2295 112.377 22.2335 111.906 20.9819 110.017C20.205 108.844 19.6765 107.967 19.2633 107.05C18.8769 106.192 18.4859 105.301 18.1608 104.38C17.8158 103.403 17.5057 102.417 17.2952 101.505C17.0845 100.593 16.6414 99.7674 16.2393 98.7196C15.8494 97.704 15.5018 96.6787 15.2732 95.572L15.253 95.4742C15.05 94.4921 14.842 93.486 14.7864 92.4864C14.7278 91.4344 14.7617 90.3954 14.8446 88.9463C14.9191 87.6465 14.6836 86.6727 14.9316 85.4989L14.9408 85.4557C15.1568 84.4327 15.3668 83.4384 16.0197 82.5755C16.7245 81.6441 17.488 80.6825 18.1447 79.8796C18.8279 79.0444 19.5308 78.3328 20.1643 77.4537C20.8342 76.5242 21.4542 75.793 22.0437 74.9512C22.6076 74.1458 23.1404 73.2887 23.7494 72.5383C24.3402 71.8101 24.9675 71.0386 25.6091 70.2522C26.2149 69.5096 26.768 68.6102 27.7013 67.6872C28.5054 66.892 29.3738 66.0877 30.208 65.3877C30.9982 64.7245 37.8578 62.2849 37.4495 59.2265C37.3853 58.7456 37.2221 58.233 37.0808 57.691C36.8053 56.6339 36.5333 55.6116 36.2219 54.5517C35.9242 53.5384 35.536 52.5975 35.3978 51.6308C35.2549 50.6317 35.0696 49.622 34.9608 48.6591C34.8457 47.6402 34.8493 46.549 35.0526 45.3873C35.269 44.1499 35.5298 42.9713 35.8103 41.9839C36.0833 41.0231 36.4341 40.1128 36.7577 39.1617C37.0703 38.2427 37.5278 37.3835 37.9837 36.5272L38.0156 36.4673C38.4834 35.5886 39.2087 34.7125 39.7943 33.8586C40.3528 33.0441 41.0924 32.4291 42.2098 31.239C43.0229 30.3729 43.9484 29.8719 44.3552 28.8976C44.5345 28.4681 44.5071 28.0118 44.4563 27.533C44.3458 26.4914 44.2076 25.4086 44.0995 24.3936C43.9905 23.3697 43.9203 22.327 43.7957 21.3389C43.6576 20.2444 43.6911 18.8975 43.4157 17.8364C43.1713 16.8951 42.0208 16.4907 41.763 15.5626L41.7535 15.5285C41.5002 14.617 41.1926 13.5099 41.6894 12.6417C42.1954 11.7575 43.097 10.6175 44.2029 10.2193C45.1663 9.87236 46.2727 9.5365 47.1486 9.93785C47.6312 10.159 48.2077 10.57 48.4831 11.2342C48.6984 11.7535 48.8977 12.2422 48.8177 12.75C48.6436 13.8559 47.7527 14.4283 47.3477 15.5107C47.1796 15.9598 47.1683 16.4413 47.3028 16.8993C47.5774 17.8342 47.9056 18.7179 48.3217 19.7272C48.6946 20.6318 49.0017 21.5297 49.3582 22.4329C49.709 23.3213 49.8443 24.3125 50.403 25.0642C50.5451 25.2555 50.8008 25.5038 51.0013 25.4089C51.8521 25.006 52.7121 24.408 53.6013 23.9423C54.571 23.4344 55.5775 22.7989 56.5685 22.3575C57.4616 21.9598 58.3411 21.5052 59.2851 21.0527C60.2747 20.5783 61.1428 20.0894 62.0787 19.7693C62.9914 19.457 63.8757 19.057 64.8055 18.8609C65.7422 18.6635 66.8755 18.4275 68.1208 18.262C69.3665 18.0965 70.4644 17.935 71.4734 17.8435C72.4578 17.7542 73.4344 17.7791 74.4426 17.7822C75.407 17.7851 76.3691 17.8731 77.4476 18.0045C78.6483 18.1509 79.8045 18.3109 80.8296 18.6166C81.7876 18.9022 82.6393 19.5512 83.6452 19.5561C83.8778 19.5572 84.0927 19.4402 84.2603 19.2695C84.428 19.0988 84.5405 18.8788 84.6651 18.6478C85.1709 17.7102 85.6945 16.8541 86.2688 16.021C86.8184 15.2238 87.4047 14.4222 87.957 13.6126C88.5247 12.7804 89.1704 12.0231 89.5739 11.1597C89.9844 10.2813 90.2921 9.32457 90.1897 8.40149C90.0825 7.43542 89.8112 6.15968 90.6334 5.531C91.4097 4.9374 92.4665 4.15704 93.4864 4.40014C94.4578 4.63169 95.5807 4.85919 96.317 5.61402C97.3113 6.63346 98.7907 8.50869 98.2498 9.61933C98.0204 10.0905 97.5446 10.7546 96.7262 11.0792C95.7211 11.4778 94.4446 10.7629 94.01 11.4238C93.5706 12.092 93.0158 12.9112 92.6487 13.8306C92.2807 14.7524 91.7527 15.609 91.4006 16.6351C91.0612 17.624 90.6829 18.6998 90.465 19.7351C90.2427 20.7921 89.6451 22.1114 90.275 22.8856C90.5594 23.235 90.9529 23.5435 91.3629 23.8367C92.1701 24.4137 92.9836 24.9981 93.9519 25.6672C94.9227 26.338 95.7893 26.9938 96.5389 27.7767C97.3203 28.5927 98.7733 29.5252 102.727 35.5119C103.881 37.2586 104.367 38.2015 104.673 39.2169C104.954 40.147 105.07 41.1094 105.118 42.1815C105.162 43.1794 105.157 44.1686 105.226 45.1236C105.293 46.0488 105.394 46.967 105.324 47.907C105.25 48.8955 105.408 50.0429 105.014 51.3092C104.717 52.2653 104.512 53.2192 104.119 54.1558C103.751 55.0329 103.391 55.9525 102.856 56.7937C102.313 57.647 101.741 58.5071 101.088 59.2034C100.405 59.9299 99.7095 60.8373 98.6913 61.1923C97.6995 61.5381 96.7783 62.0211 95.8165 62.1663C94.7519 62.327 93.7727 62.3746 92.8106 62.2479Z" fill="#64BF4B" stroke="black" stroke-width="1.48816" stroke-linecap="round"/>
<path d="M63.7668 68.9617C63.2999 68.5437 62.1684 66.821 61.7087 66.0646L66.9983 60.8976L76.9376 55.7997L84.3342 57.6027L86.886 59.2982C86.8921 59.6707 86.904 59.8183 86.9161 59.9682L86.9161 59.9682C86.9282 60.1181 86.9401 60.2657 86.9475 60.4191C86.9378 61.0454 86.8709 61.6912 86.737 62.3111C86.5978 62.9559 86.3993 63.58 86.2055 64.2154C86.0171 64.8333 85.8584 65.525 85.4496 66.0228C85.0442 66.5161 84.1639 67.6399 83.2537 67.7458C82.4933 67.8342 81.6692 67.8361 81.0134 67.7435C80.2988 67.6426 79.6574 67.5627 79.0395 67.3283C78.4246 67.095 77.8637 66.7687 77.2931 66.4568C76.6953 66.13 76.0413 65.7372 75.5365 65.262C75.0325 64.7875 74.2166 63.1865 74.0137 63.8039C73.7691 64.5477 73.652 65.259 73.4286 65.8463C73.2017 66.4428 72.9575 67.1024 72.5498 67.7564C72.1568 68.387 70.9605 69.7742 69.826 70.0287C69.1015 70.1912 68.2808 70.2687 67.5681 70.2733C66.923 70.2775 66.1836 70.3535 65.5385 70.0513C64.8802 69.743 64.2169 69.3647 63.7668 68.9617Z" fill="#64BF4B"/>
<path d="M61.7087 66.0634C62.1684 66.8198 63.2999 68.5426 63.7668 68.9606C64.2169 69.3635 64.8802 69.7418 65.5385 70.0502C66.1835 70.3524 66.923 70.2764 67.5681 70.2722C68.2808 70.2675 69.1015 70.19 69.826 70.0275C70.9605 69.7731 72.1568 68.3858 72.5498 67.7552C72.9575 67.1012 73.2017 66.4416 73.4286 65.8451C73.652 65.2578 73.7691 64.5466 74.0137 63.8027C74.2166 63.1853 75.0325 64.7863 75.5365 65.2608C76.0412 65.736 76.6953 66.1288 77.2931 66.4557C77.8637 66.7676 78.4246 67.0938 79.0395 67.3271C79.6574 67.5615 80.2987 67.6414 81.0134 67.7423C81.6692 67.8349 82.4933 67.8331 83.2537 67.7446C84.1639 67.6388 85.0442 66.515 85.4495 66.0216C85.8584 65.5239 86.0171 64.8322 86.2055 64.2143C86.3993 63.5788 86.5978 62.9547 86.737 62.3099C86.8709 61.69 86.9378 61.0443 86.9475 60.418C86.9401 60.2646 86.9282 60.1169 86.9161 59.967C86.904 59.8172 86.8921 59.6695 86.886 59.2971" stroke="black" stroke-width="1.48816" stroke-linecap="round"/>
<mask id="mask0_2161_201" style="mask-type:alpha" maskUnits="userSpaceOnUse" x="77" y="37" width="23" height="17">
<path d="M88.9981 38.4087C88.4104 38.5755 84.9868 40.2054 84.6405 40.4145C84.2941 40.6235 82.7931 41.5573 82.6423 41.6615C82.2881 41.9193 81.9365 42.2256 81.5905 42.5375C81.1048 42.9552 80.8528 43.3033 80.4434 43.6818C79.9637 44.1254 79.6146 44.5412 79.1969 44.9289C78.759 45.3353 78.4291 45.6881 78.1553 46.1365C77.8963 46.5607 77.6729 46.9505 77.5536 47.3976C77.427 47.8716 77.3222 48.3941 77.3593 48.8748C77.4018 49.4253 77.5043 50.0759 78.3797 51.0669C78.9211 51.6797 79.2947 51.9555 79.7209 52.1696C80.2559 52.4382 80.7366 52.7194 81.238 52.7841C81.7393 52.8489 82.2011 52.8846 82.7261 52.9692C83.3325 53.0669 84.0861 53.2577 84.7702 53.2947C85.5584 53.3373 86.0051 53.3327 86.4701 53.2592C87.2255 53.1397 88.0693 53.1789 88.5153 53.0213C88.9262 52.8761 89.3618 52.7074 89.8059 52.6011C90.2467 52.4956 90.7939 52.4517 91.3123 52.2133C91.7626 52.0062 92.2129 51.7723 92.8446 51.2727C94.0525 50.3173 95.1429 49.4683 95.7127 48.9931C96.0829 48.6843 96.4281 48.3804 96.7096 48.0206C96.999 47.651 97.35 47.346 97.6395 47.0049C97.9598 46.6275 98.2837 46.2785 98.5829 45.8368L98.6006 45.8106C98.8724 45.4095 99.1903 44.9404 99.3421 44.3885C99.4683 43.9293 99.5034 43.4367 99.5769 42.927C99.6552 42.3843 99.7641 41.7797 99.7105 41.2971C99.6361 40.6282 99.5224 40.1202 99.3599 39.6994C99.2045 39.2969 99.1005 38.8057 98.5324 38.2586C98.1784 37.9178 97.7626 37.6094 97.2875 37.5045C96.8324 37.4039 96.2418 37.2101 95.6289 37.2525C95.1588 37.285 94.7297 37.4406 94.1726 37.4547C93.6135 37.4688 93.1673 37.496 92.7336 37.5586C92.213 37.6336 91.2719 37.8236 90.6645 37.9995C90.2139 38.13 89.7288 38.2013 88.9981 38.4087Z" fill="black"/>
</mask>
<g mask="url(#mask0_2161_201)">
<path d="M88.9981 38.4087C88.4104 38.5755 84.9868 40.2054 84.6405 40.4145C84.2941 40.6235 82.7931 41.5573 82.6423 41.6615C82.2881 41.9193 81.9365 42.2256 81.5905 42.5375C81.1048 42.9552 80.8528 43.3033 80.4434 43.6818C79.9637 44.1254 79.6146 44.5412 79.1969 44.9289C78.759 45.3353 78.4291 45.6881 78.1553 46.1365C77.8963 46.5607 77.6729 46.9505 77.5536 47.3976C77.427 47.8716 77.3222 48.3941 77.3593 48.8748C77.4018 49.4253 77.5043 50.0759 78.3797 51.0669C78.9211 51.6797 79.2947 51.9555 79.7209 52.1696C80.2559 52.4382 80.7366 52.7194 81.238 52.7841C81.7393 52.8489 82.2011 52.8846 82.7261 52.9692C83.3325 53.0669 84.0861 53.2577 84.7702 53.2947C85.5584 53.3373 86.0051 53.3327 86.4701 53.2592C87.2255 53.1397 88.0693 53.1789 88.5153 53.0213C88.9262 52.8761 89.3618 52.7074 89.8059 52.6011C90.2467 52.4956 90.7939 52.4517 91.3123 52.2133C91.7626 52.0062 92.2129 51.7723 92.8446 51.2727C94.0525 50.3173 95.1429 49.4683 95.7127 48.9931C96.0829 48.6843 96.4281 48.3804 96.7096 48.0206C96.999 47.651 97.35 47.346 97.6395 47.0049C97.9598 46.6275 98.2837 46.2785 98.5829 45.8368L98.6006 45.8106C98.8724 45.4095 99.1903 44.9404 99.3421 44.3885C99.4683 43.9293 99.5034 43.4367 99.5769 42.927C99.6552 42.3843 99.7641 41.7797 99.7105 41.2971C99.6361 40.6282 99.5224 40.1202 99.3599 39.6994C99.2045 39.2969 99.1005 38.8057 98.5324 38.2586C98.1784 37.9178 97.7626 37.6094 97.2875 37.5045C96.8324 37.4039 96.2418 37.2101 95.6289 37.2525C95.1588 37.285 94.7297 37.4406 94.1726 37.4547C93.6135 37.4688 93.1673 37.496 92.7336 37.5586C92.213 37.6336 91.2719 37.8236 90.6645 37.9995C90.2139 38.13 89.7288 38.2013 88.9981 38.4087Z" fill="black"/>
<ellipse cx="88.6088" cy="49.9242" rx="4.08554" ry="5.91568" transform="rotate(75.3295 88.6088 49.9242)" fill="#D9D9D9"/>
</g>
<path d="M88.9981 38.4077C88.4104 38.5745 84.9868 40.2045 84.6405 40.4135C84.2941 40.6226 82.7931 41.5564 82.6423 41.6605C82.2881 41.9184 81.9365 42.2246 81.5905 42.5365C81.1048 42.9542 80.8528 43.3024 80.4434 43.6809C79.9637 44.1244 79.6146 44.5402 79.1969 44.9279C78.759 45.3343 78.4291 45.6871 78.1553 46.1355C77.8963 46.5597 77.6729 46.9495 77.5536 47.3966C77.427 47.8706 77.3222 48.3931 77.3593 48.8739C77.4018 49.4244 77.5043 50.0749 78.3797 51.0659C78.9211 51.6787 79.2947 51.9546 79.7209 52.1686C80.2559 52.4372 80.7366 52.7184 81.238 52.7831C81.7393 52.8479 82.2011 52.8836 82.7261 52.9682C83.3325 53.0659 84.0861 53.2567 84.7702 53.2937C85.5584 53.3363 86.0051 53.3317 86.4701 53.2582C87.2255 53.1387 88.0693 53.1779 88.5153 53.0203C88.9262 52.8752 89.3618 52.7064 89.8059 52.6001C90.2467 52.4946 90.7939 52.4508 91.3123 52.2123C91.7626 52.0052 92.2129 51.7713 92.8446 51.2717C94.0525 50.3164 95.1429 49.4674 95.7127 48.9921C96.0829 48.6833 96.4281 48.3794 96.7096 48.0197C96.999 47.65 97.35 47.345 97.6395 47.0039C97.9598 46.6265 98.2837 46.2776 98.5829 45.8358L98.6006 45.8097C98.8724 45.4085 99.1903 44.9394 99.3421 44.3876C99.4683 43.9284 99.5034 43.4357 99.5769 42.926C99.6552 42.3833 99.7641 41.7787 99.7105 41.2961C99.6361 40.6272 99.5224 40.1192 99.3599 39.6984C99.2045 39.2959 99.1005 38.8047 98.5324 38.2576C98.1784 37.9168 97.7626 37.6084 97.2875 37.5035C96.8324 37.403 96.2418 37.2091 95.6289 37.2515C95.1588 37.2841 94.7297 37.4396 94.1726 37.4537C93.6135 37.4678 93.1673 37.4951 92.7336 37.5576C92.213 37.6326 91.2719 37.8226 90.6645 37.9986C90.2139 38.1291 89.7288 38.2003 88.9981 38.4077Z" stroke="black" stroke-width="1.48816" stroke-linecap="round"/>
<mask id="mask1_2161_201" style="mask-type:alpha" maskUnits="userSpaceOnUse" x="44" y="43" width="23" height="14">
<path d="M58.3253 44.0653C57.8955 43.9622 55.1702 43.8224 54.8977 43.807C54.6251 43.7916 52.3307 43.6989 52.2115 43.6889C52.0923 43.6789 51.964 43.6677 51.8369 43.6537C51.3684 43.611 50.9152 43.6175 50.3948 43.625L50.3481 43.6257C49.8623 43.6326 49.2627 43.5666 48.6618 43.655C48.1863 43.7249 47.7199 43.7309 47.2697 43.8619C46.8194 43.9928 46.3938 44.1249 45.7098 44.7137C45.2014 45.1514 44.8204 45.4832 44.6618 45.9182C44.509 46.3373 44.3153 46.798 44.3884 47.3107L44.3912 47.33C44.4519 47.7557 44.5165 48.2095 44.9967 48.8431C46.3964 50.69 46.7578 51.0291 47.0903 51.4026C47.5125 51.8768 47.8001 52.2035 48.1313 52.4785C48.4782 52.7665 48.9032 53.0125 49.257 53.3381C49.5816 53.6368 49.8735 53.9888 50.3035 54.2148C50.8076 54.4798 51.3379 54.7095 51.7477 54.901C52.1957 55.1103 52.6935 55.3104 53.142 55.4729C53.615 55.6443 54.0322 55.8199 54.498 55.9098C55.0988 56.0256 55.5442 56.2165 56.0796 56.2981C56.7931 56.4068 57.4053 56.5235 58.2364 56.5436C59.0197 56.5626 59.9043 56.5812 60.496 56.4303C60.9419 56.3166 61.476 56.3134 62.0034 56.136C62.4505 55.9855 62.8848 55.8541 63.2854 55.6356C63.7322 55.3919 64.7158 54.767 65.1927 54.2312C65.5057 53.8795 65.8406 53.5432 66.1154 53.0876C66.3516 52.6962 66.5715 52.2586 66.6039 51.7667C66.6348 51.2965 66.6534 50.7997 66.5083 50.3373L66.5042 50.3242C66.3752 49.9131 66.2339 49.4624 65.3948 48.4343C64.649 47.5205 64.2059 46.9825 63.8305 46.6504C63.4241 46.2909 62.9226 45.9128 62.4679 45.6138C62.0919 45.3666 61.7282 45.1057 61.1779 44.8666C60.7234 44.6692 60.1403 44.528 59.6219 44.3878C59.1844 44.2695 58.7485 44.1669 58.3253 44.0653Z" fill="black"/>
</mask>
<g mask="url(#mask1_2161_201)">
<path d="M58.3253 44.0653C57.8955 43.9622 55.1702 43.8224 54.8977 43.807C54.6251 43.7916 52.3307 43.6989 52.2115 43.6889C52.0923 43.6789 51.964 43.6677 51.8369 43.6537C51.3684 43.611 50.9152 43.6175 50.3948 43.625L50.3481 43.6257C49.8623 43.6326 49.2627 43.5666 48.6618 43.655C48.1863 43.7249 47.7199 43.7309 47.2697 43.8619C46.8194 43.9928 46.3938 44.1249 45.7098 44.7137C45.2014 45.1514 44.8204 45.4832 44.6618 45.9182C44.509 46.3373 44.3153 46.798 44.3884 47.3107L44.3912 47.33C44.4519 47.7557 44.5165 48.2095 44.9967 48.8431C46.3964 50.69 46.7578 51.0291 47.0903 51.4026C47.5125 51.8768 47.8001 52.2035 48.1313 52.4785C48.4782 52.7665 48.9032 53.0125 49.257 53.3381C49.5816 53.6368 49.8735 53.9888 50.3035 54.2148C50.8076 54.4798 51.3379 54.7095 51.7477 54.901C52.1957 55.1103 52.6935 55.3104 53.142 55.4729C53.615 55.6443 54.0322 55.8199 54.498 55.9098C55.0988 56.0256 55.5442 56.2165 56.0796 56.2981C56.7931 56.4068 57.4053 56.5235 58.2364 56.5436C59.0197 56.5626 59.9043 56.5812 60.496 56.4303C60.9419 56.3166 61.476 56.3134 62.0034 56.136C62.4505 55.9855 62.8848 55.8541 63.2854 55.6356C63.7322 55.3919 64.7158 54.767 65.1927 54.2312C65.5057 53.8795 65.8406 53.5432 66.1154 53.0876C66.3516 52.6962 66.5715 52.2586 66.6039 51.7667C66.6348 51.2965 66.6534 50.7997 66.5083 50.3373L66.5042 50.3242C66.3752 49.9131 66.2339 49.4624 65.3948 48.4343C64.649 47.5205 64.2059 46.9825 63.8305 46.6504C63.4241 46.2909 62.9226 45.9128 62.4679 45.6138C62.0919 45.3666 61.7282 45.1057 61.1779 44.8666C60.7234 44.6692 60.1403 44.528 59.6219 44.3878C59.1844 44.2695 58.7485 44.1669 58.3253 44.0653Z" fill="black"/>
<ellipse cx="60.7181" cy="54.0004" rx="4.08554" ry="5.91568" transform="rotate(75.3295 60.7181 54.0004)" fill="#D9D9D9"/>
</g>
<path d="M58.3253 44.0653C57.8955 43.9622 55.1702 43.8224 54.8977 43.807C54.6251 43.7916 52.3307 43.6989 52.2115 43.6889C52.0923 43.6789 51.964 43.6677 51.8369 43.6537C51.3684 43.611 50.9152 43.6175 50.3948 43.625L50.3481 43.6257C49.8623 43.6326 49.2627 43.5666 48.6618 43.655C48.1863 43.7249 47.7199 43.7309 47.2697 43.8619C46.8194 43.9928 46.3938 44.1249 45.7098 44.7137C45.2014 45.1514 44.8204 45.4832 44.6618 45.9182C44.509 46.3373 44.3153 46.798 44.3884 47.3107L44.3912 47.33C44.4519 47.7557 44.5165 48.2095 44.9967 48.8431C46.3964 50.69 46.7578 51.0291 47.0903 51.4026C47.5125 51.8768 47.8001 52.2035 48.1313 52.4785C48.4782 52.7665 48.9032 53.0125 49.257 53.3381C49.5816 53.6368 49.8735 53.9888 50.3035 54.2148C50.8076 54.4798 51.3379 54.7095 51.7477 54.901C52.1957 55.1103 52.6935 55.3104 53.142 55.4729C53.615 55.6443 54.0322 55.8199 54.498 55.9098C55.0988 56.0256 55.5442 56.2165 56.0796 56.2981C56.7931 56.4068 57.4053 56.5235 58.2364 56.5436C59.0197 56.5626 59.9043 56.5812 60.496 56.4303C60.9419 56.3166 61.476 56.3134 62.0034 56.136C62.4505 55.9855 62.8848 55.8541 63.2854 55.6356C63.7322 55.3919 64.7158 54.767 65.1927 54.2312C65.5057 53.8795 65.8406 53.5432 66.1154 53.0876C66.3516 52.6962 66.5715 52.2586 66.6039 51.7667C66.6348 51.2965 66.6534 50.7997 66.5083 50.3373L66.5042 50.3242C66.3752 49.9131 66.2339 49.4624 65.3948 48.4343C64.649 47.5205 64.2059 46.9825 63.8305 46.6504C63.4241 46.2909 62.9226 45.9128 62.4679 45.6138C62.0919 45.3666 61.7282 45.1057 61.1779 44.8666C60.7234 44.6692 60.1403 44.528 59.6219 44.3878C59.1844 44.2695 58.7485 44.1669 58.3253 44.0653Z" stroke="black" stroke-width="1.48816" stroke-linecap="round"/>
</g>
<defs>
<clipPath id="clip0_2161_201">
<rect width="120" height="120" fill="white"/>
</clipPath>
</defs>
</svg>
