<svg width="107" height="114" viewBox="0 0 107 114" fill="none" xmlns="http://www.w3.org/2000/svg">
<ellipse cx="57.7669" cy="107.185" rx="33.5814" ry="4.99798" fill="black" fill-opacity="0.6"/>
<path d="M76.8837 97.4308C76.3544 96.2864 75.859 95.1036 75.7173 94.6379L76.141 93.2009L78.5954 91.883L80.96 89.5543V86.0792L79.3437 80.5113L77.5179 74.915L62.2389 69.4785L38.4348 74.915L37.1926 78.9263L45.0823 94.6379L36.5715 95.5186V96.5772C36.5594 96.8011 36.5623 96.9991 36.5715 97.1652C36.6764 97.9131 36.8064 98.6163 36.9 99.5962C36.8827 100.639 36.8274 101.748 37.0136 102.507C37.1878 103.216 37.3907 104.109 37.8842 104.702C38.3956 105.317 39.0729 105.998 39.8358 106.4C40.8461 106.934 41.726 107.411 42.5293 107.706C43.3722 108.016 44.1734 108.271 45.0823 108.498C46.561 108.869 47.3264 108.982 48.2665 109.051C49.2503 109.125 49.9865 109.28 50.7812 109.418C51.6903 109.576 53.9798 110.065 55.1547 109.371C55.3224 109.272 55.5192 109.144 55.5484 108.963C55.6067 108.603 55.509 108.168 55.2523 107.783C54.7813 107.078 54.2035 106.42 53.5175 105.66C52.8643 104.937 52.1456 104.182 51.6987 103.575C51.5888 103.426 51.4766 103.202 51.7993 103.19C54.2387 103.098 55.9841 103.166 56.6816 103.262C57.3954 103.359 58.8808 103.3 60.9965 103.559C61.9813 103.68 62.8505 103.602 63.5596 104.06C63.723 104.165 63.8753 104.316 63.8239 104.456C63.7136 104.754 62.95 104.932 62.4177 106.11C62.0555 106.911 61.4308 108.369 62.2389 108.675C62.8725 108.915 63.7471 109.229 66.6008 109.035C67.7795 108.954 68.8111 108.937 69.6994 108.859C70.6456 108.776 71.569 108.802 72.5274 108.596C73.8564 108.311 74.8059 108.202 75.6492 107.993C76.5096 107.78 77.5417 107.501 78.2552 106.994C78.9102 106.529 79.731 106.196 80.0428 105.463C80.1793 105.141 80.2102 104.788 80.1326 104.438C79.9819 103.759 79.8432 103.019 79.3862 102.29C78.8948 101.506 78.3943 100.769 78.0267 100.061C77.6287 99.294 77.3453 98.429 76.8837 97.4308Z" fill="#64BF4B"/>
<path d="M75.7173 94.6387C75.859 95.1044 76.3544 96.2872 76.8837 97.4316C77.3454 98.4298 77.6287 99.2947 78.0267 100.062C78.3943 100.77 78.8948 101.506 79.3862 102.291C79.8432 103.02 79.9819 103.76 80.1326 104.439C80.2102 104.788 80.1793 105.142 80.0428 105.464C79.731 106.197 78.9102 106.529 78.2552 106.995C77.5418 107.502 76.5096 107.78 75.6492 107.994C74.8059 108.203 73.8564 108.311 72.5274 108.597C71.569 108.802 70.6456 108.777 69.6994 108.86C68.8111 108.938 67.7795 108.955 66.6008 109.035C63.7471 109.23 62.8725 108.916 62.2389 108.676C61.4308 108.37 62.0555 106.912 62.4177 106.11C62.95 104.932 63.7136 104.755 63.8239 104.456C63.8753 104.317 63.723 104.166 63.5596 104.06C62.8505 103.603 61.9813 103.68 60.9965 103.56C58.8808 103.301 57.3954 103.36 56.6816 103.262C55.9841 103.167 54.2387 103.099 51.7993 103.19C51.4766 103.203 51.5888 103.427 51.6987 103.576C52.1456 104.183 52.8643 104.937 53.5175 105.661C54.2035 106.421 54.7813 107.079 55.2523 107.784C55.509 108.169 55.6067 108.604 55.5484 108.964C55.5192 109.145 55.3224 109.272 55.1547 109.372C53.9798 110.066 51.6903 109.577 50.7812 109.419C49.9865 109.281 49.2503 109.125 48.2665 109.052C47.3264 108.982 46.561 108.87 45.0823 108.499C44.1734 108.271 43.3722 108.017 42.5293 107.707C41.726 107.412 40.8461 106.935 39.8358 106.401C39.0729 105.998 38.3956 105.318 37.8842 104.703C37.3907 104.11 37.1878 103.217 37.0136 102.508C36.8274 101.749 36.8827 100.64 36.9 99.597C36.8064 98.617 36.6764 97.9139 36.5715 97.166C36.5582 96.9271 36.5582 96.6223 36.5967 96.2691" stroke="black" stroke-width="1.79325" stroke-linecap="round"/>
<path d="M66.1388 87.9266C65.7551 88.8842 65.1092 90.8758 64.8273 92.0747C64.6451 92.8494 64.8782 93.729 65.2947 94.4639C65.7001 95.1792 66.9349 95.0772 68.7586 95.0934C70.1735 95.1059 71.1218 94.7001 72.5406 94.345C73.4055 94.1286 74.2417 93.9778 75.2728 93.6034C76.8521 93.0299 77.6112 92.6362 78.1919 92.2348C78.8073 91.8094 79.6085 91.2245 80.2876 90.7112C80.9185 90.2345 81.1913 89.4457 81.3829 88.7079C81.6678 87.6109 81.4478 86.3392 80.9853 85.052C80.6366 84.0813 80.1194 83.0017 79.8138 82.1121C79.5335 81.2957 79.4126 80.4549 79.0815 79.594C78.8026 78.8688 78.5151 78.2152 78.3865 77.4581C78.3502 77.2716 78.3115 77.1037 78.2592 76.9332C78.2069 76.7627 78.1423 76.5947 77.9583 76.0693" stroke="black" stroke-width="1.79325" stroke-linecap="round"/>
<g style="mix-blend-mode:plus-lighter" filter="url(#filter0_f_1504_6494)">
<path d="M19.7577 35.2404L18.8359 76.9663L37.9669 95.4613C39.4373 95.0937 51.0599 93.6881 77.712 84.3139C75.1387 50.1256 34.8908 28.1948 19.7577 35.2404Z" fill="url(#paint0_radial_1504_6494)" fill-opacity="0.4"/>
</g>
<path d="M20.0121 83.0728C21.0053 84.2876 22.3215 87.3918 22.8762 88.7895L23.9254 91.566L31.4163 94.9952C31.6874 95.4831 31.9974 95.4704 32.2682 95.4557C32.7637 95.4248 33.3974 95.3757 34.4156 95.3156C35.3679 95.2389 36.5393 95.5483 41.2234 95.1262C42.7141 94.9919 43.9256 95.1065 44.8248 94.7358C44.9958 94.6653 45.1796 94.541 45.13 94.4178C45.0176 94.1388 44.7187 93.6006 44.2808 92.8698C43.7863 92.0445 43.3162 91.4055 42.9454 90.4378C42.594 89.5206 42.249 88.6296 41.819 87.6812C41.192 86.2983 40.4316 84.6852 39.8108 83.6907C39.2515 82.7946 38.7163 81.6452 38.3361 80.8424C37.9744 80.0788 37.6463 78.8047 36.674 78.7747C35.6629 78.7435 32.732 78.7114 29.1929 78.823C26.7666 78.8995 24.9848 78.9536 23.9254 79.0131C22.5753 79.0889 19.0172 79.051 18.8418 80.3044C18.8187 80.4702 18.8661 80.64 18.9428 80.8087C19.2601 81.5066 19.3935 82.3162 20.0121 83.0728Z" fill="#686868" stroke="black" stroke-width="1.79325" stroke-linecap="round"/>
<path d="M22.0098 91.7207C21.6908 91.0637 21.9138 89.4382 21.956 89.2251C22.4098 88.969 22.5904 88.8801 22.7674 88.8225C23.6633 88.6508 26.4397 88.5611 28.231 88.6933C29.3582 88.8385 30.8388 89.0303 32.0389 89.2611C32.9638 89.439 34.4116 89.3564 34.6146 90.13C34.7053 90.4753 34.7125 90.8639 34.5825 91.2C34.3158 91.8893 34.3831 92.8339 33.7885 93.4745C33.2459 94.0589 31.024 95.5424 29.1879 95.7543C28.2012 95.8681 26.9495 95.9033 26.2794 95.4783C25.287 94.849 24.6137 94.234 23.9192 93.6104C23.2077 92.9714 22.3938 92.5116 22.0098 91.7207Z" fill="#64BF4B" stroke="black" stroke-width="1.79325" stroke-linecap="round"/>
<path d="M35.9971 78.7434C36.0479 78.7434 36.2613 78.714 36.631 78.6074C37.4132 78.3818 37.7017 77.4194 38.0753 76.7532C38.2163 76.4148 38.4087 76.1125 38.652 75.8457C38.7682 75.7081 39.4467 76.2645 39.8208 75.844" stroke="black" stroke-width="1.79325" stroke-linecap="round"/>
<path d="M44.5228 10.7572C43.8702 13.1811 42.799 14.896 43.3051 20.7179H62.7029C77.246 20.7179 77.8053 22.5973 79.9495 22.5973C82.0937 22.5973 82.9327 20.7179 84.8905 19.3344C86.8482 17.951 86.1956 15.2325 86.0092 14.1138C85.8227 12.9951 81.2547 10.1983 84.8905 6.56257C88.5262 2.92678 95.5181 7.77449 96.7301 10.1983C97.942 12.6222 94.9588 15.6054 94.1198 17.2835C93.2807 18.9615 93.6536 19.6141 91.8823 21.3854C90.1111 23.1567 88.7127 25.3008 91.8823 26.2331C98.3149 28.1908 103.442 35.8353 104.934 40.2169C106.425 44.5984 105.493 54.0142 103.442 59.7009C101.391 65.3877 99.1539 65.0148 93.6536 69.2099C88.1533 73.405 82.3734 72.9389 73.6102 76.2018C64.847 79.4647 61.7706 76.5747 50.0242 76.8544C38.2779 77.134 32.4979 73.5915 27.2773 71.9134C22.0567 70.2354 17.5826 67.3454 15.2519 59.0484C12.9213 50.7513 14.8755 45.6239 16.0874 37.0472C17.2993 28.4705 32.3086 22.4109 33.9866 20.7179C35.6647 19.0249 35.4805 15.9783 34.6429 12.8087C33.8053 9.639 34.9211 6.46746 35.4805 4.60295C36.0398 2.73845 39.7689 1.06175 43.3051 2.08723C46.8413 3.11271 45.1754 8.33332 44.5228 10.7572Z" fill="#64BF4B" stroke="black" stroke-width="1.79325"/>
<mask id="mask0_1504_6494" style="mask-type:alpha" maskUnits="userSpaceOnUse" x="23" y="40" width="17" height="27">
<path d="M25.5924 53.6151C23.9855 49.0856 24.0018 42.3578 24.4385 41.0312C25.0702 41.0312 25.6838 41.0312 26.2708 41.1426C27.402 41.4699 29.2138 42.8966 30.8795 44.9472C32.5631 47.3011 34.7674 49.7958 35.9271 52.8923C37.1103 56.0516 38.6629 58.8131 38.2647 61.3796C38.0981 62.4539 37.6503 64.1206 36.3119 65.2066C35.7645 65.6507 35.2319 65.6507 34.6575 65.5481C34.0832 65.4455 33.4067 65.3606 32.8143 64.8695C30.2516 62.7448 27.3365 58.5313 25.5924 53.6151Z" fill="black" stroke="black" stroke-width="1.79325" stroke-linecap="round"/>
</mask>
<g mask="url(#mask0_1504_6494)">
<path d="M25.5924 53.6151C23.9855 49.0856 24.0018 42.3578 24.4385 41.0312C25.0702 41.0312 25.6838 41.0312 26.2708 41.1426C27.402 41.4699 29.2138 42.8966 30.8795 44.9472C32.5631 47.3011 34.7674 49.7958 35.9271 52.8923C37.1103 56.0516 38.6629 58.8131 38.2647 61.3796C38.0981 62.4539 37.6503 64.1206 36.3119 65.2066C35.7645 65.6507 35.2319 65.6507 34.6575 65.5481C34.0832 65.4455 33.4067 65.3606 32.8143 64.8695C30.2516 62.7448 27.3365 58.5313 25.5924 53.6151Z" fill="black" stroke="black" stroke-width="1.79325" stroke-linecap="round"/>
<ellipse cx="37.157" cy="45.0519" rx="10.9031" ry="8.26576" fill="#D9D9D9"/>
</g>
<path d="M25.5924 53.6151C23.9855 49.0856 24.0018 42.3578 24.4385 41.0312C25.0702 41.0312 25.6838 41.0312 26.2708 41.1426C27.402 41.4699 29.2138 42.8966 30.8795 44.9472C32.5631 47.3011 34.7674 49.7958 35.9271 52.8923C37.1103 56.0516 38.6629 58.8131 38.2647 61.3796C38.0981 62.4539 37.6503 64.1206 36.3119 65.2066C35.7645 65.6507 35.2319 65.6507 34.6575 65.5481C34.0832 65.4455 33.4067 65.3606 32.8143 64.8695C30.2516 62.7448 27.3365 58.5313 25.5924 53.6151Z" stroke="black" stroke-width="1.79325" stroke-linecap="round"/>
<mask id="mask1_1504_6494" style="mask-type:alpha" maskUnits="userSpaceOnUse" x="49" y="40" width="32" height="28">
<path d="M60.1525 49.677C64.2024 46.1764 68.112 43.2687 69.6212 42.296C71.1304 41.3234 72.9515 41.4647 74.0585 41.6115C76.1895 42.0434 77.7014 42.5727 78.5288 43.1485C79.2638 44.8948 80.3147 48.4349 77.4262 51.4757C73.0548 56.0774 65.8422 62.8026 62.8301 64.0791C58.6947 65.8317 55.8762 67.0147 53.2391 66.5321C52.0542 66.3153 51.0256 65.8995 50.5034 65.0709L50.4946 65.057C50.2276 64.6335 49.879 64.0805 50.1267 63.6122C51.2197 61.546 55.3686 53.8121 60.1525 49.677Z" fill="black" stroke="black" stroke-width="1.79325" stroke-linecap="round"/>
</mask>
<g mask="url(#mask1_1504_6494)">
<path d="M60.1525 49.677C64.2024 46.1764 68.112 43.2687 69.6212 42.296C71.1304 41.3234 72.9515 41.4647 74.0585 41.6115C76.1895 42.0434 77.7014 42.5727 78.5288 43.1485C79.2638 44.8948 80.3147 48.4349 77.4262 51.4757C73.0548 56.0774 65.8422 62.8026 62.8301 64.0791C58.6947 65.8317 55.8762 67.0147 53.2391 66.5321C52.0542 66.3153 51.0256 65.8995 50.5034 65.0709L50.4946 65.057C50.2276 64.6335 49.879 64.0805 50.1267 63.6122C51.2197 61.546 55.3686 53.8121 60.1525 49.677Z" fill="black" stroke="black" stroke-width="1.79325" stroke-linecap="round"/>
<ellipse cx="61.2459" cy="45.0519" rx="10.9031" ry="8.26576" fill="#D9D9D9"/>
</g>
<path d="M60.1525 49.677C64.2024 46.1764 68.112 43.2687 69.6212 42.296C71.1304 41.3234 72.9515 41.4647 74.0585 41.6115C76.1895 42.0434 77.7014 42.5727 78.5288 43.1485C79.2638 44.8948 80.3147 48.4349 77.4262 51.4757C73.0548 56.0774 65.8422 62.8026 62.8301 64.0791C58.6947 65.8317 55.8762 67.0147 53.2391 66.5321C52.0542 66.3153 51.0256 65.8995 50.5034 65.0709L50.4946 65.057C50.2276 64.6335 49.879 64.0805 50.1267 63.6122C51.2197 61.546 55.3686 53.8121 60.1525 49.677Z" stroke="black" stroke-width="1.79325" stroke-linecap="round"/>
<defs>
<filter id="filter0_f_1504_6494" x="0.836224" y="15.9241" width="94.8754" height="97.5365" filterUnits="userSpaceOnUse" color-interpolation-filters="sRGB">
<feFlood flood-opacity="0" result="BackgroundImageFix"/>
<feBlend mode="normal" in="SourceGraphic" in2="BackgroundImageFix" result="shape"/>
<feGaussianBlur stdDeviation="8.99986" result="effect1_foregroundBlur_1504_6494"/>
</filter>
<radialGradient id="paint0_radial_1504_6494" cx="0" cy="0" r="1" gradientUnits="userSpaceOnUse" gradientTransform="translate(27.9996 87.3945) rotate(-39.2368) scale(29.7482 32.4412)">
<stop stop-color="#50FFFF"/>
<stop offset="1" stop-color="#50FFFF" stop-opacity="0"/>
</radialGradient>
</defs>
</svg>
