<svg width="120" height="120" viewBox="0 0 120 120" fill="none" xmlns="http://www.w3.org/2000/svg">
<path d="M47.8589 108.99C48.4366 108.579 49.1981 108.196 49.3698 108.135C49.6431 108.018 49.9569 107.74 50.0384 107.699C50.1198 107.658 50.1994 107.639 50.2773 107.615C50.8252 107.538 51.6896 107.474 51.9809 107.686C52.2954 107.914 52.7623 108.162 52.986 108.53C53.3664 109.156 53.726 109.804 53.6876 110.483C53.6592 110.986 53.5773 111.521 53.3924 111.832C53.0791 112.359 52.8044 113.074 52.114 113.274C51.3218 113.503 50.5208 113.851 49.3775 113.586C48.5707 113.399 48.249 113.293 47.9344 113.042C47.5041 112.698 47.0786 112.413 46.8259 111.845C46.6185 111.379 46.4489 110.797 46.6712 110.419C46.9044 110.022 47.3648 109.342 47.8589 108.99Z" fill="#656565" stroke="black" stroke-width="1.51146" stroke-linecap="round"/>
<path d="M38.1371 104.821C38.7447 104.38 39.435 104.116 39.5803 104.135C39.737 104.079 39.8213 104.059 39.9329 104.023C40.1796 103.937 40.3979 103.858 40.5595 103.803C40.9083 103.728 41.2993 103.676 41.7242 103.772C42.0974 103.855 43.1571 104.377 43.4842 105.364C43.73 106.105 43.941 106.973 43.7379 107.479C43.6777 107.628 43.569 107.774 43.3489 107.928C42.7375 108.357 42.3405 108.947 41.2003 109.015C40.4159 109.061 39.9097 109.103 39.4046 108.769C39.0386 108.526 38.6505 108.227 38.4663 107.97C38.2658 107.69 38.0631 107.34 38.0308 107.014C37.9995 106.7 37.4584 105.314 38.1371 104.821Z" fill="#656565" stroke="black" stroke-width="1.51146" stroke-linecap="round"/>
<path d="M88.0364 91.6084C88.2161 91.1871 88.219 91.0511 88.5191 90.7842C88.7506 90.6027 88.8394 90.5436 88.9195 90.4907C89.0689 90.3923 89.2143 90.3044 89.3631 90.2308C89.7044 90.1188 90.0737 89.941 90.5189 89.8946C91.0986 89.8341 92.0066 89.7818 92.3891 89.9703C92.8986 90.2214 93.3867 90.6374 93.627 91.168C94.0067 92.0063 94.2375 93.0747 94.0549 93.6328C93.9343 94.0017 93.8543 94.3627 93.4443 94.925C92.7382 95.8935 92.6131 96.2907 92.319 96.4949C91.834 96.8317 91.2972 97.0341 90.6757 97.0857C90.1151 97.1322 89.4083 97.163 89.0295 96.9615C88.3727 96.6121 87.4541 96.1355 87.266 95.4774C87.1862 95.1981 87.1166 94.9311 87.1825 94.6173C87.4594 93.2981 87.8598 92.0227 88.0364 91.6084Z" fill="#656565" stroke="black" stroke-width="1.51146" stroke-linecap="round"/>
<path d="M55.695 93.5943C57.4131 93.1264 58.9637 92.7839 59.5141 92.7344C59.7453 92.6631 62.0757 91.8434 62.26 91.7855C62.6245 91.6822 63.4886 91.4784 64.3925 91.3019C65.1803 91.0694 65.944 90.6971 66.9226 90.1639C67.763 89.7059 68.9799 89.131 70.3055 88.3684C72.6615 87.0131 74.1657 86.0472 75.856 85.0563C77.2009 84.2678 78.102 83.7511 79.1689 83.2059C80.3016 82.627 81.3741 81.8219 82.2965 81.2889C83.4207 80.6393 84.3878 80.0543 85.6391 80.1949C86.4992 80.2915 87.2508 80.4047 87.8991 80.7644C88.5972 81.1518 89.4329 81.5946 90.1 82.0811C90.7881 82.5829 91.81 83.0965 92.3694 84.4206C92.7435 85.3062 92.9052 86.339 92.5558 87.5687C92.2561 88.6234 91.7889 89.4121 91.0724 89.9667C90.0286 90.7748 88.9609 91.5585 87.5935 92.3439C86.5656 92.9343 85.5784 93.4123 84.8722 93.904C84.2074 94.3667 83.6121 94.8882 82.908 95.4104C81.8195 96.2176 80.9354 96.7606 79.9727 97.1961C78.8682 97.6958 77.8967 98.1364 76.8744 98.7811C75.9958 99.3352 75.0676 100.136 73.133 101.169C71.7295 101.919 70.5731 102.388 68.9916 103.012C67.4835 103.608 65.8854 104.253 64.3323 104.759C62.4633 105.369 61.5837 105.518 60.8914 105.962C60.0973 106.47 59.0925 106.936 58.2389 107.199C57.403 107.456 56.6051 107.648 55.5719 107.868C54.4052 108.117 52.9908 108.843 49.6968 108.407C48.2527 108.216 47.1372 108.013 46.2147 107.494C45.3178 106.99 44.3456 106.869 43.4471 106.603C42.3103 106.267 41.0819 105.714 40.2405 104.775C39.6167 104.079 39.0032 103.283 38.5918 102.478C38.2167 101.744 37.9944 100.842 38.1376 99.9709C38.2718 99.1542 38.3947 98.1429 39.172 97.8204C39.589 97.6474 40.0041 97.5238 40.4319 97.4421C41.407 97.2556 42.207 97.1693 43.0096 96.9209C43.7583 96.6892 44.8326 96.1149 45.945 95.7803C46.8744 95.5007 47.8993 95.3242 48.8512 95.1552C49.7081 95.0029 50.7894 94.8492 51.8784 94.5568C53.6171 94.0899 54.4577 93.9312 55.695 93.5943Z" fill="#A2A2A2" stroke="black" stroke-width="1.51146" stroke-linecap="round"/>
<path d="M44.3427 24.2806C43.9458 24.4901 43.5659 24.7539 43.4266 24.8316L42.5563 22.9028L42.0205 16.3323L42.5563 14.4234L43.0252 12.2466L42.0205 9.83543L40.2456 8.49587L37.2986 7.92656L35.3562 9.0317L34.2511 11.2085L35.1218 12.8494L37.8344 15.2941L37.5665 17.27L37.2986 19.9826L37.5665 28.0869L32.945 31.4693L29.5626 35.2536L27.2184 39.6406L25.8789 44.2621V48.9841L26.8836 53.3041L28.3907 57.9926L31.572 62.1787L33.0789 63.8197L37.4996 65.829L42.8244 67.6709L46.4077 68.0728L54.6795 68.5082L53.1055 71.0868L49.6896 72.3929L42.1546 75.4069L38.9732 77.3827L37.801 81.1335L38.5377 84.2815L40.0783 86.2908L41.7527 86.6592L42.7908 85.8889L43.1927 83.9131V81.1335L43.9964 80.0619L45.3694 79.1911L52.804 77.952L52.5696 81.1335L52.1007 88.0657L53.0719 89.5058L54.8803 90.3765L58.1957 90.6109L62.4823 93.5579L62.7167 94.3617L61.1428 95.1319L57.7939 95.5673L57.5594 97.9785L58.966 99.8204L61.5111 101.193L65.1279 101.595L65.6638 100.557L64.0563 98.5813L64.2572 97.9785H66.1996L66.9698 96.4045L67.5726 94.9645L71.5243 97.1078H74.6053L76.2798 96.4045V95.3328L73.4332 92.2519V91.5486L74.6053 90.1755L75.2751 88.3002L74.3374 86.6927L71.2899 83.6117L70.4192 81.4349V79.0237L70.8881 74.2683L71.2899 72.0245L74.1365 69.5798L79.2603 67.5035C80.8566 67.3472 84.0827 67.0346 84.2167 67.0346H88.5702L89.3405 65.9295L87.666 64.1211L82.8101 63.8867L78.3226 63.6857C79.0147 63.4402 80.4324 62.9289 80.5664 62.8485C80.7003 62.7681 82.4753 61.922 83.346 61.509L85.9581 58.6624L89.8428 53.2372L91.8857 49.6204L92.6894 45.0993L92.3545 41.4825L90.881 37.2964L89.3405 32.6749L86.6614 28.9911L85.0176 27.015C84.9114 26.9502 84.8421 26.9042 84.7604 26.8498C84.5873 26.7347 84.3204 26.5336 83.9554 26.2859C83.6032 26.0848 83.3398 25.8282 83.0499 25.6761C82.7592 25.5235 82.3947 25.4093 81.9511 25.1443C81.645 24.9614 81.3258 24.7857 80.9937 24.637C80.5189 24.4244 79.9124 24.0719 79.413 23.8712C78.8458 23.6433 78.4722 23.4843 78.1041 23.3491C77.6817 23.1939 77.249 23.0643 76.67 22.8237C76.2491 22.6489 75.8141 22.6145 75.4403 22.5009C75.0436 22.3805 74.5462 22.3207 74.3094 22.0872C74.2558 22.0343 74.2094 21.9573 74.2034 21.8524C74.1784 21.4201 74.2553 21.0693 74.324 20.7245C74.3906 20.3906 74.4101 20.0487 74.4965 19.7025C74.6127 19.2363 74.7261 18.8124 74.8617 18.3478C75.0452 17.7192 75.0441 17.3682 75.1674 16.8747C75.3906 15.9813 75.4598 15.5102 75.7491 15.1336C76.046 14.747 76.045 14.2433 76.3433 14.1611C76.7111 14.0598 77.3006 13.9092 77.8051 13.6796C78.3847 13.4158 79.0894 13.2993 79.52 12.9602C79.8499 12.7004 80.5041 12.1281 80.5955 11.6081C80.6559 11.2639 80.6599 10.8332 80.394 10.4669C79.8269 9.6858 79.1525 8.80328 78.551 8.45211C78.1249 8.20338 77.6604 7.94065 77.2753 7.76294C76.6533 7.47594 75.9801 7.11297 75.3537 6.89825L75.3439 6.8949C74.9755 6.76856 74.4127 6.57557 73.687 6.97346C72.8388 7.43851 71.95 8.06045 71.7279 8.60454C71.6633 8.76291 71.5617 9.05503 71.6524 9.40603C71.808 10.0083 72.1764 10.5268 72.2575 10.8875C72.2947 11.0525 71.9184 11.3944 71.7783 11.8363C71.6501 12.2405 71.6143 12.7598 71.3607 13.2661C71.0052 13.9758 70.6705 14.6806 70.2767 15.5227C69.8708 16.3907 69.6523 16.9186 69.4331 17.3598C69.0429 18.1448 68.3774 19.211 68.2519 19.5844C68.1134 19.9968 68.5769 20.768 67.9379 21.0075C67.5864 21.1393 66.1495 21.1557 64.1636 21.174C63.3471 21.1815 62.897 21.189 62.0277 21.1957C61.1584 21.2024 59.9076 21.1975 59.2416 21.2181C58.496 21.2411 58.2675 21.2292 57.9759 21.266C57.3799 21.341 56.9378 21.3393 55.8568 21.5717C55.2745 21.6969 54.7904 21.7197 54.0181 21.8377C52.6344 22.0493 51.5233 22.2527 50.2679 22.4551C49.3099 22.6096 48.5202 22.6484 47.8229 22.9028C46.6722 23.3227 44.8823 23.9959 44.3427 24.2806Z" fill="#64BF4B"/>
<path d="M43.4258 24.8326C43.5651 24.7549 43.945 24.4911 44.3419 24.2816C44.8815 23.9969 46.6714 23.3237 47.8221 22.9038C48.5194 22.6494 49.3091 22.6106 50.2671 22.4561C51.5224 22.2537 52.6336 22.0502 54.0173 21.8387C54.7896 21.7206 55.2737 21.6979 55.856 21.5727C56.937 21.3403 57.3791 21.342 57.9751 21.2669C58.2667 21.2302 58.4952 21.2421 59.2408 21.219C59.9067 21.1984 61.1576 21.2034 62.0269 21.1967C62.8962 21.19 63.3463 21.1825 64.1628 21.175C66.1487 21.1566 67.5855 21.1403 67.9371 21.0085C68.5761 20.769 68.1125 19.9978 68.2511 19.5853C68.3766 19.212 69.0421 18.1458 69.4322 17.3607C69.6515 16.9195 69.8699 16.3917 70.2759 15.5237C70.6697 14.6816 71.0044 13.9768 71.3599 13.267C71.6134 12.7608 71.6492 12.2415 71.7774 11.8373C71.9176 11.3953 72.2938 11.0535 72.2567 10.8885C72.1756 10.5278 71.8071 10.0093 71.6516 9.40701C71.5609 9.056 71.6625 8.76389 71.7271 8.60552C71.9492 8.06143 72.8379 7.43948 73.6861 6.97444C74.4183 6.57302 74.9846 6.77301 75.3528 6.89922C75.9793 7.11395 76.6525 7.47692 77.2745 7.76392C77.6596 7.94163 78.1241 8.20436 78.5501 8.45309C79.1517 8.80426 79.8261 9.68678 80.3932 10.4679C80.6591 10.8342 80.6551 11.2649 80.5946 11.609C80.5033 12.1291 79.8491 12.7013 79.5192 12.9612C79.0886 13.3003 78.3839 13.4167 77.8043 13.6805C77.2997 13.9102 76.7103 14.0608 76.3424 14.1621C76.0442 14.2443 76.0452 14.748 75.7482 15.1346C75.459 15.5112 75.3898 15.9823 75.1666 16.8756C75.0433 17.3692 75.0443 17.7202 74.8609 18.3488C74.7253 18.8134 74.6119 19.2373 74.4956 19.7035C74.4093 20.0497 74.3898 20.3916 74.3232 20.7255C74.2545 21.0703 74.1776 21.421 74.2025 21.8534C74.2086 21.9583 74.255 22.0353 74.3086 22.0881C74.5454 22.3216 75.0428 22.3814 75.4394 22.5019C75.8133 22.6155 76.2483 22.6499 76.6692 22.8247C77.2481 23.0652 77.6809 23.1949 78.1032 23.35C78.4713 23.4852 78.8449 23.6442 79.4122 23.8721C79.9116 24.0728 80.518 24.4254 80.9929 24.638C81.325 24.7867 81.6442 24.9624 81.9503 25.1453C82.3938 25.4103 82.7584 25.5245 83.0491 25.677C83.339 25.8292 83.6024 26.0857 83.9546 26.2869C84.3196 26.5345 84.5865 26.7356 84.7595 26.8508C84.8413 26.9052 84.9105 26.9512 85.0167 27.016" stroke="black" stroke-width="1.51146" stroke-linecap="round"/>
<path d="M85.7372 27.8564C85.92 27.9704 86.4597 28.4982 87.0055 29.2733C87.6876 30.2419 88.3295 31.2463 88.8897 32.2322C89.5017 33.309 89.7434 33.9608 90.0515 34.6167C90.4614 35.4896 90.8914 36.5611 91.2053 37.3987C91.78 38.9324 92.351 41.7338 92.5862 42.722C92.9665 44.3202 92.5811 45.1308 92.4926 45.8866C92.3902 46.7624 92.2948 47.6855 92.1401 48.4983C92.0106 49.1787 91.5277 49.961 91.0275 50.799C90.5904 51.5312 90.2039 52.0947 89.9349 52.6884C89.6598 53.2956 89.0501 54.1881 88.6284 54.928C88.3155 55.4772 88.0279 56.1486 87.5587 56.8227C86.9022 57.7657 86.4591 58.278 85.9989 58.8314C85.8645 58.9817 85.7146 59.1415 85.5854 59.2805C85.4563 59.4196 85.3524 59.5332 85.1406 59.822" stroke="black" stroke-width="1.51146" stroke-linecap="round"/>
<path d="M42.9701 24.9972C42.8358 24.8015 42.5161 23.4314 42.4438 22.1352C42.4026 21.3989 42.3561 19.4123 42.2686 18.0977C42.2259 17.4575 42.1064 16.8244 42.153 15.7592C42.184 15.0501 42.8383 14.6064 42.9266 13.8985C43.0387 12.9998 42.8757 11.823 42.5959 11.2002C42.306 10.5552 41.8625 9.89399 41.4034 9.33081C40.8676 8.67363 40.0612 8.45087 39.3877 8.28179C38.3559 8.02277 36.8027 8.21116 36.147 8.42783C35.4104 8.67126 35.0137 9.6407 34.6827 10.3932C34.507 10.7927 34.4935 11.2364 34.5162 11.6118C34.5559 12.2693 35.2382 12.809 35.993 13.5171C36.5117 14.0038 37.0235 14.4085 37.4376 14.9598C38.3125 16.1247 37.4105 17.7005 37.3626 19.7258C37.3366 20.8264 37.491 21.8325 37.5177 22.6107C37.5347 23.0158 37.5608 24.0602 37.59 25.6695C37.6047 26.442 37.6191 27.1249 37.6684 28.1383" stroke="black" stroke-width="1.51146" stroke-linecap="round"/>
<path d="M36.9948 28.4277C36.234 28.8543 33.9699 30.4833 32.8372 31.5736C31.9978 32.3815 31.3629 33.1344 30.3671 34.3694C28.573 36.5942 27.7326 38.4428 27.1873 39.8913C26.775 40.9866 26.3352 42.5837 26.1445 43.8796C25.9899 44.93 25.9308 46.0237 25.8988 48.3944C25.8782 49.9281 26.6839 52.4725 27.1714 54.2189C27.3914 55.0072 27.5851 56.1196 27.8828 56.9262C28.2065 57.8032 28.6854 58.5268 29.2138 59.4477C29.7001 60.2952 30.4595 60.8091 30.9085 61.3508C31.0066 61.4726 31.1093 61.5868 31.2497 61.7155C31.3902 61.8442 31.5654 61.984 31.8146 62.266" stroke="black" stroke-width="1.51146" stroke-linecap="round"/>
<path d="M32.5352 62.8806C33.5787 63.5502 35.0762 64.8033 36.1201 65.273C36.8534 65.6029 37.9525 66.0243 39.0978 66.4406C41.1471 67.1855 42.2288 67.4669 43.171 67.6656C44.0532 67.8516 45.1283 67.9309 45.8429 68.0209C46.5214 68.1063 47.5634 68.1662 48.6563 68.2098C49.3399 68.2371 49.8969 68.2742 51.1407 68.3254C54.2148 68.4518 56.8409 68.4591 57.7845 68.4796C58.8152 68.502 59.9412 68.3795 61.2853 68.2747C63.9303 68.0685 65.2617 67.7432 66.6707 67.6199C68.8737 67.427 69.9505 66.8057 70.845 66.5983C72.2017 66.2838 73.7241 65.6753 74.8551 65.2237C75.774 64.8568 76.5523 64.5461 77.2004 64.2617C77.8408 63.9807 78.9483 63.3281 80.0786 62.9236C81.2288 62.512 82.4408 62.1848 83.2458 61.8053C83.5173 61.6233 83.7814 61.3866 84.045 61.1076C84.1834 60.9671 84.331 60.8287 84.758 60.4414" stroke="black" stroke-width="1.51146" stroke-linecap="round"/>
<path d="M52.8298 77.8515C52.5888 77.8976 52.3876 77.9089 52.2093 77.9267C51.8802 77.9679 51.4225 78.0144 50.8098 78.1253C50.1886 78.3278 49.5462 78.4231 48.4549 78.5761C47.4102 78.7226 46.7229 78.798 45.9506 79.0542C45.1226 79.3288 44.4425 79.5434 44.0261 80.081C43.6258 80.5976 43.348 81.2013 43.238 81.8359C43.1292 82.4632 43.1396 83.1097 43.1333 83.8846C43.1248 84.9404 43.0854 85.737 42.6025 86.12C42.3516 86.3189 42.0727 86.5219 41.615 86.5173C40.8497 86.5097 40.2071 86.4458 40.0021 86.2008C39.5946 85.7136 39.1185 85.1277 38.7269 84.328C38.3681 83.5956 37.8908 82.9313 37.8906 81.9925C37.8904 81.0313 38.0016 80.2886 38.2099 79.6187C38.4738 78.7703 38.6539 77.9264 39.3142 77.4478C40.0725 76.8982 40.7178 76.4641 41.5016 75.9476C42.3456 75.3915 43.16 74.8851 46.1294 73.7835C49.8943 72.3869 52.5092 71.4298 52.9377 71.2928L54.8602 68.7998" stroke="black" stroke-width="1.51146" stroke-linecap="round"/>
<path d="M52.9814 78.3389C52.8867 79.3593 52.6548 80.7916 52.5193 81.5254C52.393 82.2092 52.1856 85.0667 52.2233 87.6339C52.2353 88.4582 52.6268 89.1021 53.1534 89.666C53.6072 90.1519 54.3092 90.2918 54.9392 90.4077C55.5816 90.5258 56.5467 90.5301 57.6878 90.5764C58.4372 90.6068 59.0519 90.8937 59.6165 91.2012C60.1672 91.501 60.6912 92.0693 61.1615 92.5475C61.6558 92.9658 62.0251 93.2952 62.2906 93.5061C62.4142 93.6149 62.5152 93.7272 62.653 93.8767" stroke="black" stroke-width="1.51146" stroke-linecap="round"/>
<path d="M62.6423 94.6713C62.3527 94.8734 61.5306 95.3231 60.4192 95.4125C59.3441 95.4989 58.5297 95.4697 58.2227 95.5711C57.5723 95.786 57.6544 96.777 57.6947 97.4771C57.7332 98.1477 58.2285 98.7641 58.7049 99.3528C59.1523 99.9057 59.8704 100.249 60.4054 100.678C60.8867 101.064 61.5192 101.294 62.2044 101.409C62.8818 101.523 63.4897 101.702 64.24 101.752C64.9453 101.799 65.3279 101.311 65.5458 101.13C65.6529 101.041 65.6646 100.872 65.6536 100.722C65.6091 100.118 64.8718 99.676 64.3372 99.1426C64.111 98.9169 64.0172 98.6062 64.0369 98.3201C64.0786 97.7127 65.2824 97.8868 65.9683 97.7956C66.2842 97.7537 66.5285 97.4868 66.7337 97.2138C67.1594 96.6472 67.174 95.8258 67.3294 95.0889C67.4789 94.3798 67.4723 93.7029 67.3752 93.0232C67.2604 92.2194 66.9795 91.5266 66.5243 90.6592C66.0687 89.9959 65.7932 89.572 65.6674 89.2747C65.6096 89.1249 65.5642 88.9774 65.4831 88.791" stroke="black" stroke-width="1.51146" stroke-linecap="round"/>
<path d="M68.1992 95.1261C68.4948 95.4075 69.011 95.809 69.5508 96.2462C70.0532 96.6532 71.1051 96.9869 71.9239 97.1588C72.7386 97.3299 73.7645 97.2133 74.4372 97.1071C74.8752 97.038 75.347 96.8917 75.7867 96.8187C76.1475 96.7589 76.3323 96.4167 76.4195 96.1321C76.6187 95.4817 75.7798 94.8924 75.3735 94.4178C74.8875 93.8501 74.2297 93.2615 73.7187 92.7902C73.4721 92.5628 73.3105 92.2742 73.2413 91.9769C73.1056 91.3945 73.8379 90.9224 74.2794 90.4235C74.7396 89.9034 74.9868 89.2935 75.1889 88.6795C75.4059 88.0204 74.643 87.1675 73.8629 86.3513C73.361 85.8262 72.9339 85.361 72.458 84.8106C72.0138 84.297 71.5701 83.7799 71.2003 83.1432C70.8676 82.5705 70.5677 81.9055 70.4211 81.0954C70.1471 79.5815 70.5024 78.8743 70.5847 78.1558C70.6893 77.2425 70.6805 76.3291 70.7256 75.6135C70.7819 74.9593 70.8719 74.3647 70.9872 73.7579C71.0062 73.5934 71.0062 73.4142 71.0062 73.2295" stroke="black" stroke-width="1.51146" stroke-linecap="round"/>
<path d="M78.138 64.0246C78.6399 64.008 80.7676 63.8905 81.8531 63.7973C83.453 63.66 86.6124 63.8831 87.6119 64.301C88.3102 64.593 88.7935 65.3424 89.0675 65.7707C89.3359 66.1901 89.1632 66.6561 89.0892 66.8962C89.0153 67.1359 88.6555 67.1565 87.5531 67.1882C84.758 67.2683 82.5665 67.2087 82.0103 67.2409C81.3143 67.2813 80.7936 67.418 79.9175 67.5658C79.2292 67.6819 78.1363 67.9706 77.1741 68.2584C76.3593 68.5022 75.6265 68.9577 74.3857 69.5656C73.6717 69.9153 73.1025 70.269 72.54 70.6966C72.0688 71.1737 71.8427 71.4806 71.711 71.6941C71.6539 71.8061 71.6166 71.9256 71.6055 72.1877" stroke="black" stroke-width="1.51146" stroke-linecap="round"/>
<mask id="mask0_2161_203" style="mask-type:alpha" maskUnits="userSpaceOnUse" x="55" y="41" width="20" height="16">
<path d="M60.4166 44.947C61.5003 44.2631 63.1477 43.4833 63.5318 43.3538C63.8228 43.2147 65.3888 42.3402 65.5071 42.2987C65.9876 42.1436 66.3918 42.0184 66.9415 41.9035C67.9592 41.6058 68.4426 41.3997 69.1935 41.4193C70.3171 41.4485 70.8678 41.4085 71.4062 41.5874C72.1504 41.8347 72.8593 41.7423 73.5433 42.4112C74.0529 42.9095 74.447 43.4099 74.482 44.099C74.5356 45.1528 74.6109 46.3561 74.493 47.1912C74.3392 48.2808 74.3816 49.0471 74.0912 49.6424C73.6758 50.4939 73.1086 51.4429 72.6712 51.8865C71.9325 52.6359 70.372 54.1326 69.466 54.6484L69.4376 54.6645C68.7751 55.0417 68.0787 55.4382 67.1016 55.7191C65.9542 56.0489 65.4228 56.1711 64.7039 56.258C64.1743 56.322 63.6095 56.6579 60.7955 56.4484C59.8827 56.3804 59.2373 56.6084 58.0518 55.9548C57.4233 55.6083 56.7251 55.3955 56.3393 54.5973C55.9579 53.8081 55.749 52.532 56.0763 51.7403C56.7148 50.1958 57.3113 48.6841 57.779 48.0522C58.4477 47.1488 58.9087 45.8986 60.4166 44.947Z" fill="black"/>
</mask>
<g mask="url(#mask0_2161_203)">
<path d="M60.4166 44.947C61.5003 44.2631 63.1477 43.4833 63.5318 43.3538C63.8228 43.2147 65.3888 42.3402 65.5071 42.2987C65.9876 42.1436 66.3918 42.0184 66.9415 41.9035C67.9592 41.6058 68.4426 41.3997 69.1935 41.4193C70.3171 41.4485 70.8678 41.4085 71.4062 41.5874C72.1504 41.8347 72.8593 41.7423 73.5433 42.4112C74.0529 42.9095 74.447 43.4099 74.482 44.099C74.5356 45.1528 74.6109 46.3561 74.493 47.1912C74.3392 48.2808 74.3816 49.0471 74.0912 49.6424C73.6758 50.4939 73.1086 51.4429 72.6712 51.8865C71.9325 52.6359 70.372 54.1326 69.466 54.6484L69.4376 54.6645C68.7751 55.0417 68.0787 55.4382 67.1016 55.7191C65.9542 56.0489 65.4228 56.1711 64.7039 56.258C64.1743 56.322 63.6095 56.6579 60.7955 56.4484C59.8827 56.3804 59.2373 56.6084 58.0518 55.9548C57.4233 55.6083 56.7251 55.3955 56.3393 54.5973C55.9579 53.8081 55.749 52.532 56.0763 51.7403C56.7148 50.1958 57.3113 48.6841 57.779 48.0522C58.4477 47.1488 58.9087 45.8986 60.4166 44.947Z" fill="black"/>
<ellipse cx="65.75" cy="46.2049" rx="6.57565" ry="4.84744" transform="rotate(-18.3987 65.75 46.2049)" fill="#D9D9D9"/>
</g>
<path d="M60.4166 44.946C61.5003 44.2621 63.1477 43.4823 63.5318 43.3529C63.8228 43.2137 65.3888 42.3393 65.5071 42.2977C65.9876 42.1426 66.3918 42.0174 66.9415 41.9025C67.9592 41.6048 68.4426 41.3987 69.1935 41.4183C70.3171 41.4475 70.8678 41.4075 71.4062 41.5864C72.1504 41.8337 72.8593 41.7413 73.5433 42.4102C74.0529 42.9085 74.447 43.4089 74.482 44.098C74.5356 45.1518 74.6109 46.3552 74.493 47.1902C74.3392 48.2798 74.3816 49.0462 74.0912 49.6415C73.6758 50.4929 73.1086 51.4419 72.6712 51.8856C71.9325 52.6349 70.372 54.1316 69.466 54.6474L69.4376 54.6636C68.7751 55.0407 68.0787 55.4372 67.1016 55.7181C65.9542 56.0479 65.4228 56.1702 64.7039 56.257C64.1743 56.321 63.6095 56.6569 60.7955 56.4474C59.8827 56.3794 59.2373 56.6074 58.0518 55.9538C57.4233 55.6073 56.7251 55.3945 56.3393 54.5964C55.9579 53.8071 55.749 52.5311 56.0763 51.7393C56.7148 50.1948 57.3113 48.6832 57.779 48.0513C58.4477 47.1478 58.9087 45.8976 60.4166 44.946Z" stroke="black" stroke-width="1.51146" stroke-linecap="round"/>
<mask id="mask1_2161_203" style="mask-type:alpha" maskUnits="userSpaceOnUse" x="32" y="42" width="11" height="16">
<path d="M32.9056 46.8367C32.8278 45.3601 32.6653 43.5219 33.2481 42.9104C33.8309 42.2988 34.5262 42.2777 34.7774 42.2988C35.5966 42.45 36.2799 42.7786 36.9906 43.4021C37.7472 44.0906 38.4533 44.7918 38.9398 45.444C39.4331 46.1055 40.0815 46.7302 41.3319 49.3104C42.0911 50.8772 42.906 52.1096 42.8677 53.1202C42.8065 54.7353 42.7007 56.2569 41.6684 56.9578C41.2429 57.2467 40.4475 57.5352 39.5772 57.297C38.5609 57.0189 37.447 56.3857 36.896 55.5491C36.1221 54.3739 34.2928 52.0788 33.5688 49.9393C33.2467 48.9872 32.9724 48.1057 32.9056 46.8367Z" fill="black"/>
</mask>
<g mask="url(#mask1_2161_203)">
<path d="M32.9056 46.8367C32.8278 45.3601 32.6653 43.5219 33.2481 42.9104C33.8309 42.2988 34.5262 42.2777 34.7774 42.2988C35.5966 42.45 36.2799 42.7786 36.9906 43.4021C37.7472 44.0906 38.4533 44.7918 38.9398 45.444C39.4331 46.1055 40.0815 46.7302 41.3319 49.3104C42.0911 50.8772 42.906 52.1096 42.8677 53.1202C42.8065 54.7353 42.7007 56.2569 41.6684 56.9578C41.2429 57.2467 40.4475 57.5352 39.5772 57.297C38.5609 57.0189 37.447 56.3857 36.896 55.5491C36.1221 54.3739 34.2928 52.0788 33.5688 49.9393C33.2467 48.9872 32.9724 48.1057 32.9056 46.8367Z" fill="black"/>
<ellipse cx="37.5159" cy="47.0568" rx="3.47811" ry="5.07335" transform="rotate(-37.5019 37.5159 47.0568)" fill="#D9D9D9"/>
</g>
<path d="M32.9095 46.8377C32.8317 45.3611 32.6692 43.5228 33.252 42.9113C33.8348 42.2998 34.5301 42.2787 34.7813 42.2998C35.6005 42.451 36.2838 42.7796 36.9945 43.4031C37.7511 44.0916 38.4572 44.7927 38.9437 45.445C39.437 46.1065 40.0854 46.7311 41.3358 49.3113C42.095 50.8782 42.9099 52.1106 42.8716 53.1212C42.8104 54.7363 42.7046 56.2578 41.6724 56.9587C41.2468 57.2477 40.4514 57.5362 39.5811 57.298C38.5648 57.0198 37.4509 56.3866 36.8999 55.5501C36.126 54.3748 34.2967 52.0798 33.5727 49.9403C33.2506 48.9882 32.9763 48.1066 32.9095 46.8377Z" stroke="black" stroke-width="1.51146" stroke-linecap="round"/>
</svg>
