<svg width="20" height="22" viewBox="0 0 20 22" fill="none" xmlns="http://www.w3.org/2000/svg">
<path d="M17.717 16.555C17.9679 14.245 18.1127 12.4228 18.2485 11.4645L17.4972 10.5698L6.90339 10.2812L6.08322 10.9962C6.07544 11.9256 6.08673 12.8277 6.08556 13.6327C6.08438 14.4376 6.07113 15.1245 6.07284 15.774C6.09073 17.0176 6.13257 17.7043 6.18178 17.8875C6.29686 18.3157 6.29198 19.1521 6.66328 19.6173C6.92946 19.9508 7.12374 20.6159 7.52774 20.9013C7.80322 21.096 8.19568 21.2227 8.88993 21.2404C9.95277 21.2675 10.886 21.2384 11.6379 21.2102C12.7215 21.1695 14.2945 21.2804 15.2349 20.8597C16.1756 20.4389 16.6604 20.3013 16.8811 19.942C17.1073 19.5735 17.1455 19.1458 17.2849 18.5111C17.3798 18.0791 17.6165 17.4799 17.717 16.555Z" fill="#8C8C8C"/>
<path d="M7.56838 13.8618C7.53565 14.0115 7.54694 14.193 7.51619 14.3144C7.4626 14.3787 7.51678 14.3117 7.50079 14.3411C7.4848 14.3705 7.47698 14.4016 7.47027 14.4344C7.44776 14.5712 7.43142 14.708 7.41368 14.8409C7.39232 15.0009 7.36944 15.1487 7.32581 15.383C7.27933 15.6326 7.25682 16.4051 7.26881 16.8676C7.28202 17.3774 7.32985 17.7364 7.38898 17.8732C7.44727 18.008 7.47247 18.1827 7.69841 18.4885C7.81495 18.6462 7.90013 18.7503 8.05468 18.8276C8.26291 18.9317 8.4326 18.95 9.11632 18.9861C9.32274 18.997 9.75597 19.0836 10.3343 18.9958C10.8374 18.9194 11.1119 18.7665 11.2341 18.6466C11.3377 18.545 11.4918 18.4618 11.5477 18.2923C11.6057 18.1163 11.7087 17.8828 11.7236 17.6482C11.7441 17.3248 11.7431 17.147 11.7794 16.9793C11.8297 16.747 11.9758 16.4289 11.9303 16.1569C11.8739 15.8197 11.8583 15.4212 11.5713 14.7184C11.406 14.3134 11.3133 14.0779 11.2604 14.0144C11.1395 13.8694 10.7385 13.5594 10.3279 13.4129C9.99309 13.2934 9.24704 13.0345 8.92576 13.0403C8.62613 13.0457 8.33899 12.9525 8.0199 13.1545C7.91463 13.2211 7.84401 13.3006 7.78971 13.398C7.68776 13.581 7.6006 13.7145 7.56838 13.8618Z" fill="#3A5547"/>
<path d="M13.6003 16.0993C13.6036 16.0993 13.6068 16.0993 14.1504 15.9975C14.6939 15.8956 15.7776 15.6919 16.3484 15.579C16.9903 15.4257 17.0777 15.3902 17.1717 15.3524C17.1956 15.3428 17.2196 15.3331 17.2292 15.3125" stroke="#3A5547" stroke-width="2" stroke-linecap="round"/>
<path d="M5.75589 10.4271L5.24808 9.30206V8.67653L5.75589 7.78191L6.24104 6.8484L6.98008 6.03157L8.06918 7.29571H9.68338L9.58224 5.80078L15.5762 6.47915L18.2173 6.71512L18.8435 7.56926L19.6214 10.4271L18.0656 11.2839C17.3395 11.3357 15.864 11.4395 15.7707 11.4395C15.654 11.4395 12.5228 11.5367 12.4061 11.5562C12.3128 11.5717 9.06104 11.3811 7.44683 11.2839L5.75589 10.4271Z" fill="#ACACAC"/>
<path d="M9.65106 7.19126L8.19403 7.4647L5.92565 2.46556L0.691471 2.04171V0.619141L7.46833 0.771843L9.19792 4.85911L9.65106 7.19126Z" fill="#D9D9D9"/>
<path d="M18.2485 11.4644C18.1127 12.4227 17.9679 14.245 17.717 16.555C17.6165 17.4798 17.3798 18.079 17.2849 18.511C17.1455 19.1458 17.1073 19.5734 16.8811 19.9419C16.6604 20.3012 16.1756 20.4389 15.2349 20.8597C14.2945 21.2803 12.7215 21.1694 11.6379 21.2101C10.886 21.2383 9.95277 21.2675 8.88993 21.2404C8.19568 21.2226 7.80322 21.0959 7.52774 20.9013C7.12374 20.6158 6.92946 19.9507 6.66328 19.6172C6.29198 19.152 6.29686 18.3156 6.18178 17.8874C6.13257 17.7042 6.09073 17.0175 6.07284 15.7739C6.07113 15.1244 6.08438 14.4375 6.08555 13.6326C6.08673 12.8276 6.07544 11.9255 6.08322 10.9961" stroke="black" stroke-linecap="round"/>
<path d="M19.4065 9.7316C19.4391 9.78002 19.4478 9.93025 19.3884 10.1713C19.2699 10.6521 18.7268 10.7908 18.2368 11.1221C17.6578 11.5136 16.8384 11.5244 15.6227 11.5792C14.8535 11.6138 13.4745 11.614 12.623 11.6101C10.9324 11.6024 10.1026 11.4243 9.00655 11.2842C8.36974 11.2028 7.63339 11.1868 6.98924 11.0591C6.47246 10.7911 6.02609 10.4658 5.81551 10.1523C5.76228 10.0481 5.70214 9.9162 5.60266 9.625" stroke="black" stroke-linecap="round"/>
<path d="M19.1195 8.24609C19.0129 8.31286 18.3098 8.71399 17.5879 9.00982C17.1064 9.20718 16.6884 9.23486 15.1158 9.45435C13.3599 9.69943 12.0398 9.54724 11.4224 9.49959C10.4582 9.42518 9.31893 9.33749 8.36928 9.11876C7.39735 8.80651 6.99592 8.64651 6.66727 8.49357C6.58487 8.44782 6.49726 8.39951 6.33066 8.27208" stroke="black" stroke-linecap="round"/>
<path d="M9.80799 6.8774C9.83362 6.92799 9.81511 7.03657 9.73418 7.19042C9.65372 7.34336 9.47125 7.4219 9.20062 7.49122C8.72579 7.61285 8.31762 7.46916 8.1496 7.34218C8.06811 7.27981 7.99429 7.22161 7.94366 7.15C7.89303 7.07838 7.86785 6.99511 8.01659 6.77344" stroke="black" stroke-linecap="round"/>
<path d="M9.61562 6.63558C9.57585 6.41471 9.43121 5.56024 9.2184 4.84285C9.04399 4.25492 8.42694 3.42565 7.93194 2.35452C7.66562 1.77821 7.62656 1.15484 7.44084 0.844968C7.32486 0.651473 6.94533 0.696155 5.8605 0.667547C4.94741 0.643468 3.29869 0.581722 2.40086 0.544105C1.4056 0.502405 1.08503 0.473422 0.749619 0.537207C0.32286 0.618363 0.546656 1.37133 0.668516 1.83965C0.757443 2.1814 1.28973 2.12964 1.79392 2.1634C2.30902 2.19788 2.97009 2.226 3.67397 2.24586C4.25217 2.26217 4.83464 2.30111 5.37558 2.34001C5.64026 2.35905 5.85569 2.41034 5.99458 2.51855C6.30124 2.75748 6.38926 3.20568 6.54185 3.55391C6.74979 4.02844 6.93567 4.7018 7.02654 5.06134C7.18151 5.41807 7.43314 6.00685 7.64162 6.47071C7.67843 6.5571 7.70405 6.63951 7.80809 6.81982" stroke="black" stroke-linecap="round"/>
<path d="M19.0297 7.81729C18.9095 7.52436 18.6886 7.11906 18.3879 6.88467C18.0734 6.63954 17.496 6.68296 16.522 6.58524C15.6167 6.49442 14.2103 6.22782 13.6732 6.18422C13.1407 6.14099 12.5544 6.04776 12.0097 6.00793C11.5541 5.97489 11.1476 5.94579 10.6119 5.92673C10.4038 5.92266 10.1101 5.91452 9.8075 5.88672" stroke="black" stroke-linecap="round"/>
<path d="M7.02187 6.17578C6.89684 6.23343 6.57112 6.45536 6.30938 6.72275C6.20105 6.87282 6.13644 7.04623 6.10161 7.23132C6.07938 7.3214 6.0479 7.4037 5.99637 7.5839" stroke="black" stroke-linecap="round"/>
<path d="M5.51796 8.02734C5.50537 8.05275 5.45936 8.17137 5.37608 8.37805C5.28553 8.5728 5.19238 8.74305 5.10853 8.89617C5.06963 8.97545 5.03815 9.05797 5.00637 9.29597" stroke="black" stroke-linecap="round"/>
<path d="M19.1317 8.55859C19.1573 8.82568 19.19 9.08106 19.2318 9.30797C19.2541 9.41707 19.2785 9.51392 19.3071 9.60495C19.3357 9.69599 19.3678 9.77829 19.4008 9.88216" stroke="black" stroke-linecap="round"/>
</svg>
