<svg width="175" height="182" viewBox="0 0 175 182" fill="none" xmlns="http://www.w3.org/2000/svg">
<path d="M32.9295 75.8348C29.5151 91.852 28.0197 100.261 28.1628 100.449C28.9841 102.991 30.5582 105.843 31.0419 106.716C33.8222 110.181 37.182 113.506 40.5863 116.765C43.8806 119.856 47.7994 124.309 60.3743 132.148C76.5386 142.224 78.9452 145.406 83.1254 147.928C87.9896 150.862 92.9707 154.299 97.7699 156.631C104.045 159.68 109.04 162.272 113.088 161.266C114.776 160.846 116.358 160.083 117.624 158.773C122.207 154.03 128.989 147.98 134.983 137.44C138.937 130.489 142.28 123.634 146.164 117.073C152.625 106.159 159.045 96.2405 157.214 92.9551C156.341 91.3889 155.132 89.8946 152.998 88.1283C146.33 82.6108 139.798 77.3048 129.004 69.4813C122.872 65.037 114.154 58.337 101.655 51.0114C94.1914 46.6371 80.8184 38.9264 73.4713 34.9948C62.858 29.3155 54.5927 23.0553 51.6973 26.6965C49.6619 29.2563 46.0792 33.4486 39.063 54.6051L38.985 54.8403C36.7952 61.443 34.5619 68.1768 32.9295 75.8348Z" fill="#D9D9D9" stroke="black" stroke-width="7" stroke-linecap="round"/>
<path d="M124.869 113.336C121.417 119.098 119.148 122.383 117.637 124.463C116.342 124.103 114.709 127.925 111.105 126.446C110.401 126.158 109.206 125.842 107.74 125.247C106.285 124.474 104.051 122.841 100.764 120.387C96.7696 117.405 93.484 115.596 93.2886 113.411C93.1076 111.387 93.9359 108.406 98.9715 97.6796C100.437 94.5583 101.458 91.7362 102.445 89.6717C105.027 84.2762 106.527 79.0922 108.971 80.4109C111.797 81.9359 115.372 84.0427 118.967 86.9755C124.419 91.4233 132.392 94.7402 131.925 98.6567C131.819 99.5515 129.715 105.252 124.869 113.336Z" fill="#D9D9D9"/>
<path d="M124.869 113.336C121.417 119.098 119.148 122.383 117.637 124.463C116.342 124.103 114.709 127.925 111.105 126.446C110.401 126.158 109.206 125.842 107.74 125.247C106.285 124.474 104.051 122.841 100.764 120.387C96.7696 117.405 93.484 115.596 93.2886 113.411C93.1076 111.387 93.9359 108.406 98.9715 97.6796C100.437 94.5583 101.458 91.7362 102.445 89.6717C105.027 84.2762 106.527 79.0922 108.971 80.4109C111.797 81.9359 115.372 84.0427 118.967 86.9755C124.419 91.4233 132.392 94.7402 131.925 98.6567C131.819 99.5515 129.715 105.252 124.869 113.336Z" fill="black" fill-opacity="0.2"/>
</svg>
