<svg width="9520" height="1902" viewBox="0 0 9520 1902" fill="none" xmlns="http://www.w3.org/2000/svg">
<g clip-path="url(#clip0_1811_1242)">
<rect width="9520" height="1902" fill="url(#paint0_linear_1811_1242)"/>
<path d="M1241.27 474.8C1263.62 466.921 1267.19 494.394 1274.55 496.105C1292.28 500.148 1375.58 497.349 1375.69 527.725C1375.79 552.503 1343.7 540.943 1332.71 548.615C1324.89 554.058 1329.76 571.734 1321.83 574.119C1299.75 580.702 1264.81 565.514 1241.27 566.602V474.852V474.8Z" fill="#A2884F"/>
<path d="M9340.39 559.501C9321.32 553.695 9308.36 570.905 9293.95 573.393C9255.95 579.924 9247.04 558.619 9222.15 554.006C9210.85 551.933 9194.06 561.885 9182.08 553.125C9171.15 545.142 9189.08 524.096 9156.68 531.25C9162.18 575.207 9133.82 567.276 9100.13 566.654C9152.02 632.487 9125.63 611.648 9077.06 624.711C9045.49 633.212 8986.82 667.321 8967.79 671.105C8955.77 673.49 8942.75 664.055 8928.08 665.818C8904.76 668.669 8836.59 677.637 8819.23 684.79C8775.84 702.725 8815.24 741.085 8794.03 769.128C8790.46 773.845 8780.04 775.141 8774.7 781.465C8762.1 796.343 8747.54 820.343 8729.03 834.702C8710.53 849.06 8693.11 867.1 8669 862.953C8666.78 819.617 8642.93 770.217 8683.93 740.255C8715.35 717.24 8791.65 691.218 8816.95 668.41C8827.62 658.768 8834.67 629.066 8845.66 616.003C8832.65 606.05 8780.97 650.111 8763.76 651.407C8744.69 652.859 8726.28 628.703 8681.45 639.07C8626.4 651.822 8631.32 709.723 8566.99 700.393C8552.37 698.268 8541.28 687.174 8524.02 685.982C8504.94 684.634 8371.88 691.425 8355.96 695.054C8347.2 697.023 8214.66 779.807 8202.99 789.293C8194.75 795.98 8185.83 800.697 8188.43 813.501C8210.3 805.207 8227.56 825.786 8241.92 827.756C8257.27 829.829 8271.31 819.565 8289.04 821.794C8306.77 824.023 8320.51 840.404 8333.62 841.596C8347.57 842.84 8363.74 831.436 8379.19 834.65C8369.91 868.396 8396.81 903.282 8400.49 929.978C8403.39 950.971 8377.32 935.576 8372.08 940.5C8366.43 945.84 8372.97 995.188 8386.29 1004L8358.04 1004.1C8358.04 984.924 8359.33 885.605 8350.42 877.519C8347.31 874.72 8329.94 878.296 8322.68 877C8339.01 934.85 8215.59 1071.7 8168.99 1080.3C8147.94 1084.19 8127.47 1072.58 8112.64 1079.58C8108.08 1081.7 8045.36 1147.85 8043.28 1152.41C8028.15 1185.17 8100.62 1195.95 8081.38 1253.65C8075.16 1272.36 8042.14 1263.75 8025.81 1265.21C8023.22 1249.08 8031.26 1213.01 8022.81 1201.14C8015.6 1191.03 7993.42 1196.88 7990.82 1194.29C7987.35 1190.82 7996.01 1164.02 7983.88 1155.31C7971.18 1146.19 7934.32 1157.28 7927.79 1151.27C7924.37 1148.16 7928.73 1129.19 7915.45 1124.47C7887.36 1114.41 7854.34 1166.87 7820.85 1159.41C7817.95 1176.82 7828.68 1189.01 7842.68 1197.51C7862.53 1209.53 7913.28 1199.68 7912.6 1212.28C7912.03 1222.85 7862.48 1236.33 7862.48 1268.83C7862.48 1273.4 7909.23 1322.9 7915.92 1343.38C7917.53 1348.35 7919.55 1389.51 7918.51 1393.86C7916.39 1402.62 7865.12 1484.16 7856.05 1494.38C7842.52 1509.67 7826.71 1522.06 7808.88 1531.96C7791.05 1541.86 7684.83 1578.87 7667.47 1581.36C7659.38 1582.5 7636.16 1560.36 7606.82 1568.55C7603.86 1569.38 7564.05 1608.26 7562.76 1611.06C7544.41 1649.99 7623.41 1690.99 7633.77 1730.7C7654.35 1809.54 7617.86 1853.45 7545.24 1872.06C7553.06 1825.25 7536.27 1843.6 7520.04 1830.38C7510.3 1822.45 7510.82 1806.64 7502.99 1797.83C7492.52 1785.96 7455.35 1749.98 7438.82 1762.11C7429.69 1768.8 7428.35 1832.77 7411.03 1815.61C7405.9 1810.53 7380.86 1692.65 7375.42 1688.71C7270.97 1727.85 7322.6 1696.23 7299.43 1634.13C7297.72 1629.62 7249.35 1559.22 7244.9 1554.4C7240.85 1550.05 7237.48 1546.68 7231 1547.35C7212.7 1563.27 7155.37 1561.82 7143.97 1570.16C7139.25 1573.58 7137.39 1591.67 7128.47 1600.54C7096.69 1632.16 7052.58 1672.85 7018.78 1702.76C7009.4 1711.05 6994.06 1713.07 6988.72 1718.52C6974.83 1732.62 6982.65 1769.27 6978.2 1789.22C6972.18 1816.18 6941.91 1883.67 6906.51 1871.54C6892.46 1866.72 6822.53 1675.6 6818.02 1649C6813.51 1622.41 6821.96 1594.89 6810.14 1568.61C6787.64 1578.14 6782.3 1595.87 6755.71 1584.52C6726.58 1572.08 6738.4 1552.74 6730.99 1541.86C6727.77 1537.14 6711.75 1536.78 6704.6 1529.47C6692.78 1517.39 6681.12 1490.33 6663.86 1485.36C6616.32 1471.52 6500.57 1500.75 6463.87 1473.23C6454.54 1466.28 6451.07 1449.69 6444.85 1448.19C6426.6 1443.89 6407.01 1459.54 6379.02 1452.49C6325.47 1438.96 6302.45 1372.51 6269.64 1370.33C6246.21 1368.78 6232.47 1374.89 6240.71 1399.51C6242.17 1403.87 6287.83 1472.71 6291.2 1476.39C6298.72 1484.73 6311.52 1483.54 6319.09 1490.95C6326.66 1498.37 6327.13 1515.73 6330.7 1518.06C6336.09 1521.54 6385.96 1520.45 6395.34 1517.7C6409.13 1513.66 6418.15 1489.14 6431.16 1491.42C6434.64 1492.04 6481.34 1532.32 6485.18 1536.67C6517.68 1573.69 6485.23 1579.18 6467.91 1604.37C6461.33 1613.96 6461.64 1630.65 6455.11 1637.5C6437.85 1655.64 6365.9 1694 6339.1 1708.67C6278.76 1741.69 6216.3 1768.75 6150.1 1787.93C6138.39 1786.06 6123.1 1703.38 6115.74 1686.85C6099.15 1649.57 6054.78 1619.41 6040.68 1592.4C6031.24 1574.36 6034.25 1555.7 6024.81 1537.66C6021.65 1531.59 5949.91 1431.6 5944.62 1427.2C5931.87 1416.52 5917.31 1417.55 5908.13 1410.66C5902.22 1406.2 5878.58 1368.46 5870.24 1378.05L5941.88 1528.74C5993.76 1575.03 5999.73 1651.03 6034.66 1707.79C6042.49 1720.54 6093.5 1743.09 6112.26 1774.97C6123.67 1794.35 6129.68 1840.7 6132.43 1843.03C6151.19 1858.79 6283.53 1811.31 6315.41 1815.61C6321.22 1821.62 6298.72 1897.09 6293.43 1910.05C6246.52 2024.77 6154.04 2063.85 6082.04 2150.63C6069.91 2165.25 6047.73 2193.08 6043.11 2210.55C6022.43 2288.57 6092 2402.5 6062.81 2470.15C6051.3 2496.79 5953.33 2546.92 5934.46 2582.53C5921.71 2606.64 5954.21 2652.72 5937.21 2690.56C5928.5 2709.95 5893.93 2715.75 5887.76 2725.81C5879.46 2739.39 5887.29 2765.88 5882.63 2784.23C5878.53 2800.35 5821.56 2865.14 5805.96 2877.02C5755.21 2915.69 5736.03 2900.55 5683.47 2909.98C5659.99 2914.18 5626.86 2931.81 5604.78 2931.03C5595.92 2930.72 5562.07 2911.54 5560.15 2908.22C5558.08 2904.64 5564.56 2881.58 5559.79 2863.59C5549.26 2823.57 5519.77 2799.99 5504.32 2770.23C5484.47 2732.03 5485.51 2675.79 5470.84 2634.32C5446.16 2564.7 5407.03 2562.68 5421.07 2471.55C5426.05 2439.31 5458.81 2384.77 5459.43 2370C5460.21 2350.92 5437.35 2259.33 5428.54 2239.01C5416.46 2211.28 5358.14 2143.73 5355.4 2127.98C5349.12 2092 5387.17 2034.93 5357.62 1999.37C5336.68 1974.23 5312.06 1999.06 5288.37 1991.07C5275.88 1986.88 5270.33 1960.34 5255.2 1953.39C5226.32 1940.17 5186.15 1945.82 5156.55 1953.39C5136.23 1958.62 5098.08 1981.23 5081.28 1982.83C5061.9 1984.7 5031.31 1975.01 5004.36 1977.86C4956.41 1982.99 4957.03 2007.09 4905.51 1970.81C4844.13 1927.52 4820.55 1873.77 4774.72 1819.08C4768.24 1811.36 4755.23 1808.61 4750.36 1801.09C4710.24 1739.61 4745.43 1687.05 4739.06 1621.89C4737.81 1608.99 4726.25 1598.62 4725.94 1586.39C4725.58 1571.2 4790.84 1450.57 4802.82 1437.82C4826.82 1412.16 4879.69 1405.68 4892.81 1365.56C4898.46 1348.3 4892.18 1333.47 4905.61 1314.66C4915.51 1300.77 4943.71 1288.07 4958.95 1275.99C4967.45 1269.25 4970.77 1252.51 4977.61 1250.85C5001.14 1245.09 5041.16 1255.67 5067.75 1250.69C5082.89 1247.84 5103.52 1230.73 5126.54 1224.72C5181.59 1210.36 5244.47 1216.43 5300.86 1208.29C5320.77 1205.44 5330.77 1185.74 5351.09 1201.03C5383.75 1225.65 5370.9 1247.68 5361.62 1278.84C5395 1297.76 5439.11 1289.72 5471.46 1306.83C5503.8 1323.94 5515.52 1344.57 5564.19 1355.45C5591.51 1361.57 5575.29 1336.74 5594.16 1317.56C5625.88 1285.27 5720.74 1336.74 5761.28 1342.13C5783.05 1345.03 5901.5 1349.34 5913.21 1337.98C5924.1 1327.46 5934.88 1286.98 5941.57 1270.7C5944.93 1262.41 5961.89 1266.92 5955.04 1233.53C5948.67 1202.38 5913 1234.41 5875.37 1228.3C5830.12 1220.89 5854.69 1225.45 5816.54 1230.01C5782.06 1234.1 5728.36 1186.41 5728.36 1148.57C5728.36 1118.46 5791.24 1146.45 5785.38 1116.95C5755.73 1116.07 5673.98 1113.22 5654.13 1137.79C5644.9 1149.25 5683.73 1177.13 5647.39 1208.55C5614.73 1236.75 5604.68 1178.85 5594.83 1162.57C5589.54 1153.76 5573.94 1147.23 5569.9 1138.05C5563.83 1124.21 5569.38 1107.57 5562.69 1095.8C5556.94 1085.64 5506.03 1065.53 5490.07 1055.21C5479.13 1048.17 5476.64 1037.23 5469.33 1031.89C5462.02 1026.55 5446.78 1028.57 5440.67 1023.59C5433.67 1017.89 5433.62 998.246 5431.85 997.002C5423.61 991.041 5398.63 1005.5 5397.02 1015.51C5396.4 1019.5 5433.1 1065.17 5439.48 1070.56C5466.02 1092.95 5510.8 1104.41 5537.86 1127.58C5496.29 1125.04 5502.15 1128.56 5509.61 1166.3C5488.15 1169.2 5495.56 1146.55 5476.85 1131.99C5444.3 1106.64 5388.16 1102.28 5362.08 1062.99C5351.97 1047.8 5360.32 1024.84 5330.62 1027.28C5287.75 1030.8 5274.95 1063.56 5264.63 1066.93C5247.26 1072.58 5224.25 1050.14 5191.95 1071.49C5188.12 1074.03 5140.74 1126.75 5134.83 1134.37C5127.26 1144.06 5128.66 1159.1 5121.2 1170.14C5085.22 1223.22 5061.33 1208.5 5011.72 1216.06C4999.54 1217.93 4991.24 1231.3 4976.73 1230.32C4974.66 1230.16 4964.03 1206.84 4945.89 1202.95C4931.53 1199.84 4917.32 1209.64 4916.08 1208.81C4897.52 1195.95 4911.47 1086.06 4909.7 1061.28C4944.43 1039.04 5064.59 1068.8 5082.73 1054.13C5123.79 1021 5060.03 965.278 5029.19 951.127C5041.68 932.103 5064.8 944.647 5080.66 940.708C5087.76 938.945 5087.35 926.349 5092.69 923.239C5103.78 916.759 5124.72 917.692 5142.55 909.191C5171.58 895.402 5226.79 845.276 5256.96 832.887C5275.93 825.06 5312.53 832.576 5317.81 808.628C5322.06 789.241 5294.33 757.361 5343.73 743.054C5366.96 736.316 5345.7 783.798 5348.19 794.528C5354.67 822.468 5399.87 811.116 5421.02 813.76C5431.39 815.056 5439.63 827.6 5448.18 826.408C5461.66 824.49 5501.58 797.638 5526.82 799.297C5531.12 799.556 5530.29 812.827 5535.42 813.915C5539 814.641 5606.08 809.198 5608.62 806.554C5613.96 801.112 5596.28 737.093 5639.15 750.208C5642.78 751.296 5651.69 775.608 5679.27 764.204C5681.19 753.629 5676.47 710.501 5679.27 707.754C5683 704.177 5773.41 703.244 5778.12 682.872C5788.7 637.308 5651.44 683.494 5626.09 658.457C5577.15 610.041 5695.34 578.836 5700.42 555.872C5706.28 529.073 5638.79 528.554 5616.13 542.343C5601.21 551.414 5599.24 566.499 5589.23 573.859C5565.44 591.38 5471.3 608.123 5505.77 658.612C5511.48 667.01 5541.7 665.507 5537.81 682.872C5535.74 692.203 5502.72 705.887 5495.04 717.862C5487.79 729.162 5489.91 744.091 5481.31 753.577C5479.18 755.962 5443.31 774.312 5438.9 775.452C5405.94 783.85 5389.04 699.563 5370.69 694.172C5348.19 687.537 5303.09 748.756 5265.72 707.287C5263.64 704.954 5248.15 650.63 5248.15 647.519C5248.15 614.603 5350.68 594.439 5377.74 579.561C5454.04 537.47 5436 482.731 5544.76 449.918C5695.13 404.561 5730.07 426.177 5868.63 458.626C5924.46 471.741 6019.06 478.946 6066.03 508.286C6071.62 511.811 6085.57 513.884 6075.04 524.148C6072.56 526.533 6016.37 538.662 6007.92 538.922C5974.9 539.855 5945.76 521.193 5912.54 524.252C5923.22 563.285 5944.99 587.7 5988.22 585.886C5991.28 585.73 6044.72 572.097 6047.26 570.438C6054.31 565.721 6048.4 552.036 6062.6 543.172C6082.56 530.783 6129.06 533.79 6131.6 531.302C6137.35 525.651 6115.84 483.664 6155.86 495.534C6164.83 498.178 6150.42 527.155 6191.68 524.822C6212.31 523.63 6225.47 505.487 6244.6 499.526C6334.33 471.534 6400.89 489.988 6481.29 482.005C6495.7 480.553 6500.47 464.069 6516.8 460.855C6554.79 453.339 6676.3 488.433 6682.78 481.901C6700.45 464.069 6648.67 455.464 6655.3 430.375C6659.4 414.928 6716.16 369.001 6734.61 370.66C6785.26 375.118 6761.98 416.328 6767.89 449.866C6771.52 470.497 6798.79 482.99 6767.43 506.524C6751.82 518.239 6731.61 511.085 6725.18 524.2C6757.73 536.796 6817.14 534.153 6823.2 490.869C6826 470.964 6789.92 456.968 6804.39 409.278C6817.19 367.187 6842.23 411.766 6855.76 411.455C6864.88 411.248 6873.59 398.962 6884.47 397.459C6903.55 394.867 6949.89 404.509 6958.34 386.573L6944.29 369.001C7003.39 360.914 7072.18 380.82 7104.42 320.741L7328.61 304.671C7382.37 298.347 7392.16 266.001 7456.86 269.941C7489.51 271.911 7505.63 287.047 7527.72 290.935C7557.31 296.118 7594.33 288.032 7625.64 291.92C7682.19 298.969 7696.81 335.566 7629.78 333.7L7670.01 368.793C7731.02 351.325 7806.03 385.744 7859.57 383.722C7882.12 382.841 7893.48 371.074 7909.34 369.364C7927.95 367.342 7984.19 365.631 7999.48 370.297C8016.07 375.377 8020.84 407.256 8039.29 422.237C8081.07 456.086 8092.22 422.963 8127.67 418.09C8166.76 412.699 8218.96 430.687 8247.83 425.451C8276.7 420.215 8271.37 381.805 8333.26 389.839C8355.39 392.69 8364.83 409.537 8383.02 411.351C8407.02 413.736 8441.6 400.103 8474.51 404.146C8498 406.997 8515.36 421.615 8538.53 424.881C8585.44 431.464 8654.28 414.565 8696.43 436.596C8706.53 441.883 8712.91 457.279 8723.02 459.767C8745.93 465.417 8849.03 455.775 8884.7 460.285C8898.17 461.996 8891.49 473.763 8904.97 475.525C8961.67 482.886 8946.64 448.829 8955.61 446.238C8996.56 434.419 9140.15 463.033 9184.36 478.687C9212.62 488.692 9254.86 524.407 9259.32 524.459C9281.14 524.718 9310.85 509.945 9340.03 524.355V559.656L9340.39 559.501ZM5890.25 652.34C5886.2 645.342 5823.48 612.944 5820.42 647.83C5816.22 695.572 5909.27 684.997 5890.25 652.34ZM6350.3 983.525C6329.1 951.956 6209.15 1009.03 6209.56 1035.67C6209.98 1062.32 6260.88 1108.04 6265.08 1129.29C6270.62 1157.33 6241.18 1166.35 6259.89 1197.3C6268.6 1211.76 6316.81 1230.53 6333.4 1230.53C6395.91 1230.63 6350.19 1118.56 6333.76 1088.34C6320.23 1063.46 6292.71 1053.14 6294.42 1025.31C6320.49 1036.24 6367.97 1009.86 6350.3 983.525ZM5997.55 982.955C5994.18 979.948 5947.94 989.227 5940.94 993.374C5926.33 1002.13 5952.55 1012.97 5948.1 1025.15C5873.76 1059.47 5900.2 1026.45 5879.78 1003.53C5837.53 956.155 5747.96 1074.86 5772.16 1102.18C5816.33 1119.8 5868.11 1085.9 5909.06 1088.44C5943.07 1090.57 5989.05 1116.59 6022.27 1117.68C6033.78 1118.04 6078.05 1108.55 6082.09 1102.49C6101.69 1073.31 5998.74 1047.44 5986.61 1025.31C5975.78 1005.56 5998.64 1001.36 5997.55 982.955ZM6457.29 1053.09C6459.93 1056.25 6496.17 1061.59 6506.17 1057.13C6520.74 1050.65 6543.96 1020.48 6531.67 1003.59C6505.7 975.231 6438.21 1030.18 6457.34 1053.09H6457.29ZM5903.21 2159.03C5973.08 2081.69 5846.24 2065.56 5870.29 2172.04C5876.1 2181.94 5899.68 2162.91 5903.21 2159.03Z" fill="#6AAF45"/>
<path d="M3099.97 354.899C3088.67 376.878 3057.52 378.952 3038.24 388.593C3010.19 402.641 3052.44 413.475 3056.07 420.006C3060.11 427.263 3054.88 440.274 3058.76 445.251C3060.37 447.324 3102.62 464.275 3106.82 465.104C3120.09 467.8 3132.84 460.076 3142.22 463.964C3171.04 475.938 3169.64 549.494 3227.18 457.225C3205.88 430.063 3130.3 441.881 3122.21 413.371C3112.05 377.604 3177 358.321 3205.98 361.949C3187.37 378.433 3190.02 400.93 3216.5 404.352C3234.8 406.736 3221.17 387.712 3238.85 377.034C3249.73 370.45 3308.15 364.697 3312.09 368.844C3314.16 371.021 3310.59 390.459 3312.09 397.198C3351.8 397.25 3404.26 383.047 3442.51 390.408C3457.39 393.259 3465.89 406.788 3479.57 409.846C3497.77 413.941 3518.35 407.825 3534.31 411.609C3549.3 415.186 3647.27 442.037 3651.31 446.599C3655.35 451.16 3643.43 473.346 3644.26 474.487C3646.85 478.012 3699.21 492.578 3709.42 496.465C3714.34 498.332 3714.14 507.973 3720.05 509.684C3727.35 511.757 3779.61 508.336 3771.36 527.619C3723.93 581.84 3709.99 559.447 3651.26 545.451C3660.07 565.616 3708.23 575.62 3708.12 598.325C3708.12 604.027 3680.03 634.351 3677.8 635.284C3632.65 654.256 3527.63 573.495 3476.21 567.845C3468.95 567.067 3359.05 586.35 3382.74 552.553C3394.25 536.121 3455.32 553.278 3463.4 551.361C3467.5 550.376 3497.61 511.291 3509.8 506.625C3498.81 492.215 3481.49 485.424 3464.08 481.796C3448.32 548.095 3362.53 479.826 3446.3 474.798C3427.17 443.696 3391.87 454.633 3366.93 451.886C3323.65 447.169 3287.47 440.585 3241.39 446.702C3246.21 461.683 3278.19 452.871 3288.92 462.668C3292.19 465.623 3307.48 503.204 3304.06 509.217C3269.84 536.017 3243.77 519.222 3209.45 517.096C3195.35 516.215 3198.41 518.652 3198.93 531.248C3235.84 521.036 3231.23 542.652 3245.32 551.723C3256.42 558.877 3275.91 554.16 3276.63 566.497C3248.85 556.492 3236.31 590.394 3222.21 593.815C3177 604.752 3201.21 561.935 3195.41 538.35C3177.16 569.659 3146.89 564.112 3121.12 577.072C3093.08 591.171 3032.33 624.502 3020.51 653.012C2994.64 715.32 3038.55 683.129 3057.94 696.762C3064.47 701.324 3063.64 715.372 3068.51 721.437C3084.37 741.135 3128.8 732.582 3151.35 737.506C3173.89 742.431 3204.79 765.498 3225.16 769.645C3242.94 773.222 3265.44 767.468 3279.23 772.081C3293.01 776.695 3298.61 834.855 3335 850.51C3402.91 879.694 3361.28 798.725 3369.32 786.181C3372.07 781.878 3423.12 768.349 3425.35 759.433C3434.58 722.784 3403.27 710.551 3403.63 697.229C3403.89 688.469 3414.57 681.678 3415.87 674.732C3418.3 661.773 3404.88 633.418 3410.94 615.897C3441.27 629.478 3477.19 617.608 3506.12 623.102C3526.07 626.887 3530.79 645.962 3545.67 654.153C3555 659.285 3586.41 663.535 3587.6 665.349C3590.3 669.393 3575.58 684.788 3586.67 697.436C3591.18 702.568 3628.5 719.726 3635.29 720.659C3658.15 723.821 3688.17 687.069 3704.18 672.451C3711.13 672.451 3769.29 759.848 3783.75 771.304C3813.46 794.889 3871.87 806.449 3898.47 838.38C3901.89 854.294 3803.87 886.588 3787.33 889.439C3751.3 895.608 3704.13 883.945 3671.99 894.26C3655.98 899.392 3627.67 928.783 3608.8 937.025L3676.3 919.142L3721.81 926.503C3689.93 966.261 3714.6 965.328 3741.51 989.329L3806.56 993.372C3797.96 1013.59 3684.23 1051.53 3679.46 1046.45L3675.78 1018.1C3633.89 1035.72 3542.5 1039.71 3573.35 1102.85C3545.61 1100.67 3526.9 1101.24 3505.18 1119.49C3502.49 1121.77 3472.27 1157.23 3471.13 1159.61C3455.78 1192.48 3456.72 1240.68 3424.32 1261.37C3400.42 1267.12 3345.63 1304.13 3334.59 1327.04C3312.76 1372.3 3353.09 1410.81 3354.75 1445.34C3357.66 1507.07 3308.05 1463.32 3296.02 1432.79C3287.42 1410.97 3294.62 1392.51 3289.65 1375.67C3283.63 1355.45 3261.6 1372.4 3244.96 1371.52C3224.8 1370.43 3207.12 1356.54 3188.1 1356.7C3163.94 1356.85 3153.99 1376.76 3139.16 1377.48C3129.42 1377.95 3116.51 1370.48 3103.66 1370.79C3051.3 1372.04 3007.34 1381.84 2970.75 1422.17C2952.08 1493.6 2935.65 1544.14 2986.82 1607.48C3009.47 1635.47 3023.77 1636.35 3059.28 1630.5C3120.5 1620.44 3104.69 1583.12 3120.92 1572.13C3127.71 1567.57 3177.42 1559.07 3185.04 1564.61C3210.44 1583.17 3151.76 1666.37 3156.42 1695.71C3186.85 1698.87 3249.89 1685.13 3270 1712.87C3291.2 1742.15 3238.38 1814.57 3299.7 1852.62C3316.7 1863.19 3334.33 1866.98 3354.34 1865.16C3360.35 1914.87 3301.15 1880.71 3277.1 1868.12C3268.24 1863.45 3263.36 1851.94 3255.02 1847.64C3246.67 1843.34 3229.2 1845.31 3227.54 1843.55C3225.16 1841.11 3229.1 1820.01 3223.66 1808.61C3219.41 1799.69 3200.07 1792.38 3191.26 1784.3C3183.17 1776.83 3180.48 1763.87 3172.18 1759.41C3151.92 1748.53 3110.34 1749.93 3087.64 1739.77C3064.93 1729.61 3040.78 1687.36 3024.09 1682.75C3007.39 1678.13 2993.61 1688.45 2977.8 1687.21C2953.07 1685.34 2820 1621.94 2799.43 1604.06C2772.63 1580.79 2786.83 1567.77 2778.64 1540.15C2769.67 1510.03 2638.21 1386.71 2607.42 1354.67C2599.96 1346.95 2603.33 1315.74 2576.79 1332.38C2575.18 1351.67 2643.03 1431.81 2657.44 1456.48C2668.85 1476.02 2666.67 1501.84 2689.89 1515.83C2675.74 1528.38 2643.92 1495.36 2636.45 1484.52C2626.76 1470.48 2628 1456.38 2622.66 1448.86C2616.29 1439.84 2586.95 1437.82 2580.1 1420.35C2575.75 1409.26 2586.43 1398.73 2580.73 1385.46C2577.36 1377.64 2551.02 1355.97 2541.28 1339.54C2529.51 1319.58 2521.22 1278.53 2509.5 1265.41C2494.68 1248.77 2465.65 1253.75 2445.9 1237.16C2441.8 1233.74 2389.03 1158.47 2384.52 1150.23C2353.58 1093.62 2386.39 1010.63 2368.66 954.339C2357.57 919.194 2307.08 916.654 2293.6 895.245C2284.53 880.835 2287.75 862.951 2279.14 846.208C2271.94 832.264 2253.07 822.57 2244.41 810.337C2231.76 792.505 2240.42 783.641 2215.8 761.299C2191.17 738.957 2058.99 680.019 2027.42 674.162C2004.67 669.911 1981.65 675.354 1959.15 671.725C1936.66 668.097 1890.83 649.332 1873.67 651.198C1860.46 652.649 1855.01 666.282 1843.4 670.533C1828.42 675.976 1774.46 694.689 1764.51 685.825C1760.57 682.3 1771.4 659.751 1753.62 665.505C1735.89 671.207 1716.25 697.695 1709.51 714.905L1580.38 764.15L1619.31 728.953L1629.78 707.752L1559.23 697.436C1544.15 690.127 1547.88 665.816 1540.99 664.779C1526.42 662.602 1505.74 676.65 1492.83 672.036C1483.29 668.615 1483.45 655.189 1478.42 646.792C1476.66 643.837 1467.12 644.356 1467.07 640.675C1466.81 588.631 1575.72 620.562 1566.18 566.6C1524.14 561.832 1473.34 583.033 1446.12 541.823C1458.25 535.706 1480.03 524.768 1492.73 524.354C1516.1 523.68 1522.58 545.762 1547.67 530.574C1577.58 512.431 1526.21 509.58 1512.74 503.567C1503.46 499.42 1482.88 487.757 1491.84 474.59C1494.02 471.376 1552.23 437.475 1558.92 435.713C1654.4 410.313 1747.5 422.391 1845.37 432.499C2000.36 448.517 2101.91 476.768 2262.6 452.508C2273.59 450.849 2281.78 439.549 2289.46 440.534C2296.71 441.467 2307.34 456.966 2320.61 459.61C2340.88 463.705 2388 453.441 2408.94 455.359C2457.98 459.765 2516.55 489.986 2566.83 495.377C2596.23 498.539 2628.05 494.807 2658.07 495.999C2683.21 496.984 2718.3 520.673 2711.2 481.744C2728.72 493.666 2744.32 480.396 2762.31 483.04C2784.55 486.305 2808.34 500.923 2834.93 502.945C2868.99 505.537 2897.09 495.014 2930.26 495.895C2917.56 487.55 2914.4 443.903 2933.73 446.547C2937.47 447.065 2978.21 458.936 2979.77 460.802C2991.9 475.109 2965.25 484.388 2965.15 485.994C2963.39 533.062 3018.59 498.694 3022.32 471.376C3024.6 454.633 2985 455.566 2979.2 442.348C2976.97 426.901 2995.83 414.46 2999.52 399.272C3002.78 385.95 2997.6 363.712 3004.03 354.381C3017.19 335.098 3078.1 360.55 3099.92 354.899H3099.97ZM2506.34 559.395C2540.09 518.444 2374.57 522.436 2379.13 573.547C2384.01 577.694 2502.25 564.32 2506.34 559.395ZM2690.05 623.051C2665.48 630.36 2595.24 613.098 2578.76 620.459C2563.57 627.249 2571.45 663.742 2527.44 651.198V672.296C2538.79 684.166 2677.56 652.857 2690.05 622.999V623.051ZM1774.87 658.3V665.349C1779.49 663.017 1779.49 660.632 1774.87 658.3ZM2986.87 884.048C2991.48 863.521 2967.43 805.93 2941.15 813.55C2906.47 823.659 2958.67 891.979 2986.87 884.048ZM3078.77 975.851H3223.66C3224.85 975.851 3234.75 985.337 3234.28 989.899C3177.73 982.227 3161.82 1029.97 3170.73 1078.12C3175.86 1105.75 3198.98 1096.06 3204.53 1076.67C3212.41 1049.15 3195.25 1031.58 3232.52 1012.81C3278.71 989.64 3270.05 1042.93 3308.46 1060.34C3324.38 1038.73 3319.24 1019.19 3354.39 1025.15C3357.45 979.583 3261.55 986.581 3256.16 982.123C3254.03 980.361 3254.66 957.345 3241.02 944.334C3196.65 902.139 3129.37 927.177 3087.69 959.626C3081.83 964.188 3074.83 959.419 3078.77 975.799V975.851ZM3446.24 1032.35C3426.08 1040.7 3405.66 1037.07 3386.17 1039.45C3376.42 1040.65 3363.82 1044.53 3375.64 1053.5H3446.3L3446.19 1032.4L3446.24 1032.35ZM3382.64 1067.65C3361.8 1071.39 3269.22 1062.52 3276.63 1099.22C3281.82 1124.67 3374.76 1084.29 3382.64 1067.65Z" fill="#6AAF45"/>
<path d="M753.565 469.991C758.441 472.975 753.856 503.616 791.047 477.415C791.848 498.594 827.948 533.384 846.217 550.488C920.236 619.486 925.331 607.986 1014.56 630.112C1051.24 639.21 1088.44 664.465 1122.64 680.696C1136.4 724.292 1188.8 790.815 1152.85 823.858C1202.63 824.004 1208.45 811.631 1197.39 863.379C1238.95 831.428 1286.84 851.734 1329.05 870.584C1388.74 897.15 1361.08 879.318 1414.14 886.524C1479.64 895.476 1526.08 925.826 1578.92 958.433C1607.45 976.046 1645.15 979.539 1663.71 1022.34C1701.33 1109.16 1572.29 1195.12 1542.6 1267.61C1510.14 1346.87 1534.66 1433.34 1470.54 1532.61C1432.99 1590.76 1408.9 1565.44 1366.83 1577.66C1340.48 1585.31 1245.72 1628.61 1234.44 1648.48C1225.85 1663.55 1237.35 1713.26 1220.17 1748.27C1198.63 1792.3 1071.99 1944.92 1027.95 1962.54C1002.12 1972.87 982.537 1976.66 954.516 1973.53C988.869 2047.55 921.692 2091 857.861 2109.85C838.574 2115.52 812.737 2106.86 795.633 2117.05C786.389 2122.58 782.459 2142.96 771.178 2152.13C706.038 2205.12 712.952 2229.28 670.957 2270.04C651.669 2288.75 599.266 2295.22 621.538 2330.6C631.873 2346.97 674.96 2343.04 666.59 2364.73L562.366 2468.74C545.044 2512.48 562.802 2542.68 590.896 2574.27L656.692 2617.43C566.005 2645.74 389.799 2591.3 378.081 2484.02C376.625 2470.99 378.445 2325.43 380.629 2317.42C384.049 2305.12 423.133 2245.51 428.374 2234.09C461.781 2161.23 415.928 2188.02 408.577 2181.54C429.029 2134.59 420.44 2074.4 430.484 2030.01C438.636 1994.12 480.486 1948.93 487.109 1898.34C492.495 1857.51 479.248 1826.43 480.631 1792.81C483.47 1723.74 523.282 1622.57 527.503 1542.36C537.765 1348.84 482.742 1387.63 369.784 1293.81C295.328 1232.02 326.187 1175.83 289.505 1128.31C280.844 1117.1 267.234 1123.43 262.576 1119.14C257.627 1114.55 248.31 1071.32 234.409 1052.54C221.454 1035.07 193.942 1024.01 190.594 1014.62C187.464 1005.89 178.075 937.399 179.822 930.12C182.806 917.529 214.83 919.349 210.1 898.533C208.353 890.818 182.006 881.283 180.841 859.23C177.202 790.742 276.041 748.602 287.395 698.091C299.913 642.558 287.686 579.092 269.708 526.834C343.873 561.769 324.295 490.152 349.187 472.466C353.335 469.554 438.418 437.676 444.459 437.312C462.727 436.22 456.176 456.235 464.619 457.764C511.127 466.425 519.351 427.122 522.918 427.268C537.183 427.996 589.004 460.529 612.949 466.352C647.739 474.795 747.451 466.352 753.492 470.064L753.565 469.991ZM487.982 526.616C489.511 500.196 493.077 464.896 458.287 467.225C456.759 493.645 453.192 528.945 487.982 526.616Z" fill="#A2884F"/>
<path d="M3615.92 305.387C3623.38 290.51 3655.1 297.145 3651.22 270.138C3622.5 278.121 3592.69 279.469 3562.99 277.084C3554.49 276.411 3525.2 274.441 3524.11 263.14C3564.08 245.879 3633.85 258.009 3669.52 242.458C3680.14 237.792 3689.26 234.838 3686.57 220.738C3680.97 216.176 3635.35 230.794 3630.07 206.638C3660.34 192.798 3721.46 199.64 3745.87 191.45C3755.51 188.185 3754.89 172.789 3762.2 170.923C3781.79 165.998 3823.52 189.48 3827.93 185.334L3820.93 157.186C3844.46 159.726 3873.03 153.661 3895.57 156.564C3907.55 158.119 3907.91 178.128 3952.18 171.752C3965.35 169.886 3961.41 158.638 3967.11 157.29C4003.14 148.789 4092.04 183.156 4096.49 178.284C4098.31 176.262 4093.95 160.296 4096.86 157.808C4100.85 154.335 4117.9 159.26 4126.97 157.083C4132.47 155.735 4131.43 144.486 4136.72 143.19C4170.05 135.156 4229.3 148.84 4266.1 142.983L4252.06 128.987C4291.09 135.726 4331.83 118.153 4369.05 121.263C4391.08 123.129 4399.74 133.808 4417.73 136.348C4471.95 143.916 4548.25 135.311 4605.32 143.087C4607.4 150.24 4575.31 157.134 4573.55 157.134H4403.94C4402.17 157.134 4370.09 164.029 4372.16 171.182C4401.97 177.299 4432.19 162.474 4460.18 163.873C4499.58 165.843 4513.05 194.353 4563.49 182.379C4582.98 177.765 4599.72 154.335 4619.47 174.759L4584.17 206.483C4617.71 207.727 4640.99 184.608 4674.32 180.098C4684.53 178.698 4695.05 184.711 4705.83 183.364C4754.35 177.195 4803.49 162.992 4852.69 174.759C4832.78 200.159 4796.03 193.161 4773.07 201.092C4762.6 204.669 4757.26 217.369 4748.7 219.701C4730.87 224.626 4705.52 203.062 4693.5 220.479C4689.71 225.922 4703.09 248.782 4661.98 259.564C4654.41 272.471 4691.42 270.294 4676.03 284.134C4673.23 286.622 4640.11 266.458 4633.94 288.333C4629.74 303.106 4654.31 327.936 4647.83 333.535C4645.6 335.453 4629.38 330.165 4621.03 335.142C4617.35 337.319 4617.04 351.004 4608.07 354.062C4592.83 359.246 4577.43 347.271 4567.33 349.241C4559.81 350.744 4555.25 361.941 4548.51 365.103C4538.76 369.665 4521.71 368.006 4520.57 368.887C4506.21 379.773 4526.79 381.38 4530.73 383.713C4565.72 404.447 4574.64 394.65 4604.6 400.922C4610.2 402.063 4640.21 411.86 4633.63 425.286C4614.96 430.106 4596.1 419.583 4579.92 418.91C4567.69 418.391 4556.34 426.167 4545.56 425.286C4529.28 423.99 4513.62 398.019 4492.37 404.188C4491.39 414.607 4501.03 425.441 4500.04 435.186C4499.68 438.711 4471.38 441.718 4485.32 453.485C4491.54 458.772 4543.33 446.124 4559.08 446.228C4565.88 446.228 4597.81 449.856 4598.27 460.534C4565.77 460.638 4522.54 490.496 4495.48 495.524C4471.12 499.982 4397.35 485.779 4393.67 489.304C4388.7 494.021 4398.34 509.987 4358.06 527.715C4322.86 543.162 4301.35 534.402 4278.54 539.845C4275.12 540.674 4216.7 563.638 4213.8 565.659C4206.44 570.895 4210.9 586.083 4205.97 594.325C4199.23 605.625 4173.63 610.654 4169.12 617.755C4162.38 628.33 4168.24 658.343 4148.33 664.512C4107.79 656.114 4019.41 654.248 4000.91 608.58C3996.29 597.176 4008.27 576.804 4004.69 573.538C4002.67 571.672 3959.96 577.945 3955.24 555.759C3950.94 535.542 3983.23 541.4 3989.24 536.527C3991.42 534.765 3990.02 525.33 3993.34 520.043C3995.41 516.777 4004.33 516.414 4004.85 512.319C4005.78 505.684 3992.87 429.277 3988.98 426.737C3984.11 423.523 3971.57 425.648 3962.86 421.45C3954.15 417.251 3950.47 405.121 3937.36 403.877C3928.28 402.996 3908.12 413.83 3905.73 411.186C3904.75 410.149 3905.84 391.384 3902.47 382.728C3887.75 345.146 3784.64 305.335 3746.7 305.335H3615.97L3615.92 305.387Z" fill="white"/>
<path d="M3693.61 150.249L3566.46 171.45L3594.66 192.444C3539.76 200.893 3488.24 228.833 3432.2 227.848L3453.4 241.999C3451.85 276.73 3399.03 263.926 3390.89 271.391C3380.93 280.462 3396.28 303.322 3342.52 302.908C3324.69 302.752 3309.35 292.488 3293.64 291.97C3277.94 291.452 3163.32 311.979 3163.74 287.875C3163.95 275.175 3200.75 265.533 3213.04 270.199L3198.94 242.051C3211.17 233.395 3314.74 271.598 3290.74 227.848C3289.34 225.308 3236.98 234.639 3241.39 206.751C3295.3 207.373 3302.66 226.552 3353.05 201.411C3362.38 196.746 3372.54 206.077 3368.55 185.549C3327.49 204.366 3291.88 182.18 3258.03 180.884C3228.54 179.795 3183.33 191.459 3154.1 190.111C3120.51 188.556 3077.17 164.504 3132.43 157.972C3173.12 153.203 3218.06 160.305 3259.12 157.298C3279.33 155.795 3295.56 144.287 3315.57 143.095C3438.42 135.631 3570.92 145.013 3693.67 150.3L3693.61 150.249Z" fill="white"/>
<path d="M2499.24 432.439C2504.48 409.579 2548.59 427.929 2555.74 411.341C2546.41 411.756 2458.13 415.851 2474.36 397.086L2492.14 383.142C2457.41 378.477 2423.4 418.495 2389.5 417.717C2383.7 417.562 2322.58 397.657 2322.69 393.665C2329.32 383.194 2350.63 371.064 2354.67 361.63C2358.4 352.921 2349.85 341.466 2350.78 340.792C2359.02 334.623 2515.98 346.857 2530.5 355.721C2538.17 360.386 2540.45 372.723 2546.62 376.404C2578.55 395.479 2649.1 378.01 2679.48 382.676C2694.92 385.06 2698.19 406.676 2714.88 411.29C2723.95 401.441 2701.61 382.831 2718.1 372.205C2725.25 367.591 2772.94 366.917 2774.96 368.939C2778.33 372.36 2770.19 405.795 2776.52 416.888C2783.93 429.847 2835.3 447.834 2852.61 446.694L2824.41 453.744L2838.46 467.74C2816.79 466.236 2793 470.539 2771.7 467.481C2759.77 465.77 2751.89 453.536 2736.29 453.174C2712.29 452.603 2669.53 474.997 2637.02 475.412C2596.28 475.93 2548.33 458.254 2506.34 460.69C2504.79 442.184 2505.46 448.975 2516.97 446.85C2527.86 444.828 2551.39 440.318 2560.41 440.007C2578.81 439.437 2617.64 459.809 2612.3 432.491H2499.24V432.439Z" fill="white"/>
<path d="M5029.34 891.145C5013.58 879.016 5051.06 876.165 5043.44 870.1C4990.93 852.994 5047.74 841.071 5043.6 817.589C5038.57 789.234 5013.43 796.388 5009.18 791.36C5001.71 782.548 4997.2 721.017 5018.3 707.229C5050.7 686.131 5055.42 723.298 5085.84 721.847C5063.29 776.016 5073.66 751.186 5092.95 774.409C5113.21 798.721 5124.93 841.693 5163.6 841.849C5170.65 849.417 5136.96 891.145 5131.77 891.145C5116.32 891.145 5033.33 894.256 5029.29 891.145H5029.34Z" fill="#6AAF45"/>
<path d="M4838.48 559.651C4855.53 584.118 4753.88 607.704 4736.46 609.259C4704.63 612.11 4636.21 606.46 4615.48 581.112C4596.76 558.252 4604.43 548.247 4631.13 540.938C4642.48 537.828 4762.38 532.178 4778.61 532.489C4788.87 532.696 4835.78 555.815 4838.42 559.651H4838.48Z" fill="white"/>
<path d="M9324.51 308.091C9341.57 332.558 9239.91 356.143 9222.5 357.698C9190.67 360.549 9122.25 354.899 9101.51 329.551C9082.8 306.691 9090.47 296.687 9117.17 289.378C9128.52 286.268 9248.42 280.617 9264.64 280.928C9274.9 281.136 9321.82 304.255 9324.46 308.091H9324.51Z" fill="white"/>
<path d="M5562.63 246.089C5566.93 250.495 5576.11 245.623 5573.52 255.99C5528.88 232.923 5532.62 276.569 5506.8 291.757C5473.37 311.455 5455.95 280.042 5431.59 267.29C5420.29 261.381 5406.39 261.847 5394.26 255.16C5369.54 241.527 5354.09 217.475 5393.07 213.276C5406.86 211.773 5497.99 213.276 5511.73 215.557C5539.82 220.223 5545.27 228.309 5562.68 246.141L5562.63 246.089Z" fill="white"/>
<path d="M1306.56 148.065C1323.61 172.532 1221.96 196.118 1204.54 197.673C1172.72 200.524 1104.29 194.874 1083.56 169.526C1064.84 146.666 1072.52 136.661 1099.21 129.352C1110.56 126.242 1230.46 120.592 1246.69 120.903C1256.95 121.11 1303.86 144.229 1306.51 148.065H1306.56Z" fill="white"/>
<path d="M7437.16 1874.18C7445.66 1886.46 7447.68 1902.22 7457.47 1913.99C7468.98 1927.83 7495.83 1937.88 7505.94 1957.32C7511.13 1967.27 7527.92 2037.57 7524.09 2041.45C7494.02 2044.04 7461.52 2009.31 7450.63 1984.33C7441.66 1963.75 7443.48 1938.82 7435.39 1921.92C7422.33 1894.55 7370.23 1882.88 7407.5 1829.75C7405.07 1862.25 7429.85 1863.65 7437.16 1874.23V1874.18Z" fill="#6AAF45"/>
<path d="M3081.42 239.042C3053.06 223.128 3057.37 232.096 3026.37 227.171C2932.8 212.294 3036.63 164.294 3080.17 187.568C3096.35 200.838 3182.4 205.607 3184.73 217.322C3187.06 229.038 3175.97 232.407 3166.74 234.532C3141.7 240.234 3101.84 250.55 3081.42 239.094V239.042Z" fill="white"/>
<path d="M6555.88 305.49L6492.49 323.27C6452.36 346.078 6328.73 365.517 6393.37 425.337C6357.92 433.32 6334.38 414.14 6301.52 411.237C6293.02 403.773 6324.95 377.491 6330.39 373.085C6392.49 323.167 6478.07 305.179 6555.88 305.49Z" fill="#6AAF45"/>
<path d="M8230.88 1272.19C8228.91 1270.17 8243.89 1225.23 8246.07 1223.88C8252.86 1219.58 8269.81 1226.63 8284.43 1216.37C8301.53 1204.34 8326.78 1135.29 8340.31 1138.25C8364.41 1143.43 8332.38 1237.62 8323.2 1248.04C8307.86 1265.4 8279.45 1255.35 8257.16 1259.75C8248.09 1261.52 8243.73 1276.08 8230.88 1272.25V1272.19Z" fill="#6AAF45"/>
<path d="M3898.58 877.102C3878 936.87 3914.29 908.101 3926.78 915.461C3929.53 917.068 3966.54 965.017 3962.18 968.75L3842.13 954.65C3837.1 950.348 3885 863.366 3898.63 877.102H3898.58Z" fill="#6AAF45"/>
<path d="M8365.08 333.589L8234.25 341.261C8170.33 340.12 8193.3 297.459 8233.52 298.807C8248.35 299.325 8264.73 310.055 8278.72 311.144C8302.98 313.062 8360.05 295.541 8365.03 333.589H8365.08Z" fill="#6AAF45"/>
<path d="M4909.24 870C4904.21 817.852 4908.93 803.079 4959.31 789.342C4984.4 782.5 4988.81 790.431 4986.68 816.194C4982.84 862.847 4949.88 868.497 4909.24 870Z" fill="#6AAF45"/>
<path d="M7289.31 187.154C7292.42 189.072 7293.41 200.062 7298.23 202.446C7315.54 211.155 7348.25 207.215 7347.37 234.74C7314.4 232.563 7270.7 242.153 7241.78 223.544C7236.34 220.019 7235.82 207.06 7229.7 206.075C7219.08 204.312 7198.96 217.945 7184.86 213.539C7192.9 184.148 7273.97 177.668 7289.31 187.102V187.154Z" fill="#6AAF45"/>
<path d="M2971.99 369.668C2990.86 393.254 2945.56 410.256 2926.17 411.085C2900.67 412.122 2875.79 381.124 2845.56 390.092V368.994C2868.27 366.61 2959.76 354.376 2972.05 369.668H2971.99Z" fill="white"/>
<path d="M7905.86 1773.3C7891.5 1762.67 7875.69 1653.14 7916.38 1653.14C7968.79 1653.14 7920.63 1718.51 7919.96 1727.63C7919.75 1730.53 7933.18 1793.52 7905.91 1773.25L7905.86 1773.3Z" fill="#6AAF45"/>
<path d="M3601.71 1632.15C3561.74 1626.45 3513.48 1672.28 3488.6 1625.21C3524.06 1633.66 3504.52 1602.66 3509.8 1596.85C3516.54 1589.49 3606.37 1599.6 3601.66 1632.15H3601.71Z" fill="#6AAF45"/>
<path d="M3354.39 326.641C3350.56 339.963 3324.79 345.354 3313.75 346.027C3270.31 348.516 3210.34 333.327 3163.63 340.636L3237.91 319.643L3354.39 326.641Z" fill="white"/>
<path d="M7910.37 1484.89C7954.02 1472.96 7932.3 1579.7 7895.39 1568.6C7871.96 1551.76 7886.27 1491.47 7910.37 1484.89Z" fill="#6AAF45"/>
<path d="M8428.69 1067.7C8438.85 1078.74 8425.79 1079.68 8419.62 1083.25C8384.11 1103.63 8374.21 1103.57 8336.83 1088.7C8333.88 1085.54 8357.41 1040.28 8361.77 1039.35C8365.29 1038.57 8426.2 1065.06 8428.69 1067.76V1067.7Z" fill="#6AAF45"/>
<path d="M7969.31 1879.2C7972.78 1876.15 7983.1 1888.43 8004.2 1862.67C8024.52 1837.94 8046.75 1910.41 8012.02 1932.39C7983.51 1950.43 7964.64 1883.3 7969.31 1879.2Z" fill="#6AAF45"/>
<path d="M3415.46 1557.19C3418.05 1558.49 3419.45 1565.95 3423.34 1568.34C3433.19 1574.4 3493.78 1596.12 3442.62 1597.16C3400.01 1597.99 3401.05 1571.24 3361.96 1564.45L3333.25 1533.45C3359.79 1533.55 3391.72 1545.53 3415.46 1557.24V1557.19Z" fill="#6AAF45"/>
<path d="M6980.01 1935.6C6971.77 1930.1 6967.93 1861.94 6983.43 1850.95C6992.97 1863.29 7015.31 1897.39 7015.1 1911.08C7014.85 1926.58 6990.59 1942.6 6980.01 1935.6Z" fill="#6AAF45"/>
<path d="M7630.15 1646.25C7617.96 1608.82 7684.57 1574.92 7679.75 1621.31C7677.21 1645.88 7650.93 1648.89 7630.15 1646.25Z" fill="#6AAF45"/>
<path d="M5474.56 1180.55L5457.04 1213.83C5390.85 1184.38 5414.69 1175.57 5474.56 1180.55Z" fill="#6AAF45"/>
<path d="M7453.43 248.892L7375.73 245.471C7393.3 217.79 7436.58 224.684 7453.43 248.892Z" fill="#6AAF45"/>
<path d="M5333.21 1145.25H5312.06C5312.94 1126.38 5305.84 1102.9 5322.68 1088.8C5332.38 1095.38 5336.73 1141.83 5333.21 1145.25Z" fill="#6AAF45"/>
<path d="M1573.39 764.197C1578.16 766.633 1569.25 776.171 1559.35 771.091C1554.58 768.655 1563.49 759.117 1573.39 764.197Z" fill="#A2884F"/>
<path d="M5997.55 982.947C5998.58 1001.35 5975.78 1005.55 5986.61 1025.3C5998.74 1047.43 6101.69 1073.3 6082.09 1102.48C6078 1108.55 6033.73 1118.03 6022.27 1117.67C5989.05 1116.63 5943.07 1090.56 5909.06 1088.43C5868.16 1085.89 5816.38 1119.8 5772.16 1102.17C5748.01 1074.85 5837.53 956.147 5879.78 1003.53C5900.2 1026.44 5873.76 1059.46 5948.1 1025.14C5952.55 1013.01 5926.27 1002.13 5940.94 993.366C5947.94 989.167 5994.23 979.889 5997.55 982.947Z" fill="#2380BE"/>
<path d="M6350.29 983.519C6367.97 1009.85 6320.49 1036.18 6294.41 1025.3C6292.65 1053.14 6320.18 1063.45 6333.76 1088.33C6350.19 1118.55 6395.91 1230.62 6333.39 1230.52C6316.86 1230.52 6268.65 1211.76 6259.89 1197.29C6241.23 1166.35 6270.62 1157.38 6265.07 1129.28C6260.87 1108.03 6210.02 1061.07 6209.56 1035.67C6209.09 1009.02 6329.04 952.002 6350.29 983.519Z" fill="#2380BE"/>
<path d="M6457.28 1053.08C6438.16 1030.17 6505.65 975.223 6531.62 1003.58C6543.9 1020.48 6520.68 1050.65 6506.11 1057.12C6496.11 1061.58 6459.93 1056.3 6457.23 1053.08H6457.28Z" fill="#2380BE"/>
<path d="M5890.25 652.333C5909.27 684.99 5816.22 695.564 5820.42 647.823C5823.53 612.937 5886.2 645.335 5890.25 652.333Z" fill="#2380BE"/>
<path d="M3078.78 975.849C3074.84 959.468 3081.83 964.237 3087.69 959.676C3129.37 927.226 3196.65 902.189 3241.02 944.384C3254.66 957.395 3254.03 980.41 3256.16 982.173C3261.55 986.683 3357.45 979.633 3354.39 1025.2C3319.25 1019.24 3324.38 1038.78 3308.46 1060.39C3270.05 1042.98 3278.71 989.689 3232.52 1012.86C3195.25 1031.57 3212.41 1049.2 3204.53 1076.72C3198.98 1096.11 3175.87 1105.8 3170.73 1078.17C3161.82 1029.97 3177.73 982.225 3234.29 989.948C3234.8 985.387 3224.9 975.901 3223.66 975.901H3078.78V975.849Z" fill="#2380BE"/>
<path d="M2690.05 623.048C2677.56 652.905 2538.79 684.215 2527.44 672.344V651.247C2571.4 663.739 2563.57 627.246 2578.76 620.507C2595.24 613.147 2665.48 630.408 2690.05 623.099V623.048Z" fill="#2380BE"/>
<path d="M2506.35 559.392C2502.31 564.317 2384.02 577.691 2379.14 573.544C2374.53 522.433 2540.04 518.441 2506.35 559.392Z" fill="#2380BE"/>
<path d="M2986.87 884.05C2958.67 891.981 2906.52 823.66 2941.15 813.552C2967.38 805.88 2991.43 863.522 2986.87 884.05Z" fill="#2380BE"/>
<path d="M3382.65 1067.65C3374.77 1084.29 3281.83 1124.67 3276.64 1099.22C3269.18 1062.52 3361.76 1071.38 3382.65 1067.65Z" fill="#2380BE"/>
<path d="M3446.24 1032.35L3446.35 1053.44H3375.69C3363.87 1044.48 3376.47 1040.59 3386.22 1039.4C3405.71 1037.01 3426.13 1040.64 3446.3 1032.29L3446.24 1032.35Z" fill="#2380BE"/>
<path d="M1774.87 658.293C1779.49 660.626 1779.49 663.01 1774.87 665.343V658.293Z" fill="#2380BE"/>
<path d="M3545.15 1865C3520.43 1866.66 3522.91 1841.57 3524 1822.7C3548.73 1821.04 3546.24 1846.13 3545.15 1865Z" fill="#6AAF45"/>
</g>
<defs>
<linearGradient id="paint0_linear_1811_1242" x1="4937.46" y1="1902" x2="4921.4" y2="-2.16164e-05" gradientUnits="userSpaceOnUse">
<stop stop-color="#10298B"/>
<stop offset="1" stop-color="#4C5B97"/>
</linearGradient>
<clipPath id="clip0_1811_1242">
<rect width="9520" height="1902" fill="white"/>
</clipPath>
</defs>
</svg>
