<svg width="1067" height="292" viewBox="0 0 1067 292" fill="none" xmlns="http://www.w3.org/2000/svg">
<g filter="url(#filter0_d_1504_4963)">
<path d="M177.825 76.2432C179.361 74.9137 181.398 74.3171 183.408 74.6074L200.271 77.042L200.587 77.0947C201.289 77.229 201.951 77.4687 202.558 77.792C203.557 77.4727 204.626 77.376 205.688 77.5293L222.55 79.9639L222.867 80.0166C226.117 80.6377 228.506 83.4652 228.549 86.8027C228.678 96.9076 227.511 106.799 224.904 116.576C224.412 118.422 223.217 119.911 221.671 120.814V163.35C221.671 167.216 218.537 170.349 214.671 170.35H203.028C202.094 181.903 199.693 192.289 195.697 201.405C191.018 212.082 184.572 221.353 176.33 228.992C168.274 236.459 158.939 242.65 148.427 247.452C138.123 252.159 126.964 255.959 115.024 258.738C103.276 261.473 91.1102 263.646 78.4678 265.257C75.493 265.636 72.6072 264.078 71.292 261.383C67.7091 254.041 63.3326 246.286 58.2012 238.111C53.3404 230.368 47.0787 222.947 39.1826 215.857C37.0426 213.936 36.2954 210.901 37.2988 208.206C38.3023 205.511 40.8521 203.703 43.7275 203.649C45.2252 203.621 46.7031 203.586 48.1611 203.546C44.8555 202.986 42.3369 200.112 42.3369 196.647V170.35H28.7012C24.8352 170.35 21.7012 167.216 21.7012 163.35V120.19C21.7012 116.324 24.8352 113.19 28.7012 113.19H42.3369V102.78C42.3369 98.9144 45.4711 95.7805 49.3369 95.7803H101.445C105.311 95.7803 108.445 98.9143 108.445 102.78V113.19H131.585C130.949 110.474 130.258 107.541 129.514 104.391C129.021 102.308 129.509 100.115 130.837 98.4365C132.165 96.7587 134.187 95.7803 136.326 95.7803H174.466C175.091 91.1799 175.407 86.44 175.407 81.5352C175.407 79.5041 176.29 77.5728 177.825 76.2432ZM108.445 195.596C116.518 192.846 122.513 189.386 126.748 185.37C130.888 181.403 133.904 176.468 135.668 170.35H108.445V195.596Z" fill="white" stroke="black" stroke-width="14" stroke-linejoin="round"/>
<path d="M288.692 98.0244C290.637 95.5537 294.007 94.6739 296.925 95.9111L347.45 117.339C349.442 118.183 350.931 119.901 351.484 121.992C352.038 124.083 351.593 126.313 350.28 128.032C344.268 135.903 338.33 143.034 332.407 149.335C326.388 155.738 319.85 161.508 312.797 166.638C306.806 170.995 300.212 175.085 293.035 178.956V254.723C293.035 258.588 289.901 261.722 286.035 261.723H230.396C226.531 261.723 223.397 258.589 223.396 254.723V200.471C215.023 201.796 206.343 202.953 197.335 203.97C185.345 205.322 172.747 206.429 159.724 207.228C155.958 207.458 152.686 204.662 152.327 200.906C151.552 192.796 150.477 184.671 149.16 176.591C147.926 169.018 145.487 160.84 141.811 151.97C140.915 149.81 141.158 147.345 142.457 145.4C143.756 143.456 145.939 142.289 148.277 142.289C160.605 142.289 172.622 142.047 184.269 141.564C195.815 141.086 206.597 140.131 216.562 138.707C226.421 137.298 234.736 135.271 241.641 132.688C248.836 129.967 256.882 125.875 265.678 120.444C273.814 115.421 281.447 108.085 288.509 98.2676L288.692 98.0244Z" fill="white" stroke="black" stroke-width="14" stroke-linejoin="round"/>
<path d="M475.107 100.829L475.418 100.836C478.617 100.977 481.332 103.281 481.97 106.446C483.565 114.362 484.86 121.389 485.851 127.459C485.854 127.482 485.858 127.505 485.861 127.528C486.784 133.558 487.535 139.111 488.039 144.213C488.549 149.379 488.804 154.663 488.804 159.938C488.804 178.494 485.566 194.527 478.706 207.776C478.704 207.781 478.701 207.785 478.699 207.789C471.877 220.899 461.841 231.501 448.821 239.498C448.817 239.501 448.812 239.504 448.808 239.507C435.962 247.357 420.478 253.261 402.381 257.284L402.382 257.285C384.455 261.331 364.094 264.231 341.281 266.137C340.001 266.244 338.716 265.997 337.567 265.423L337.445 265.361C335.83 264.554 334.589 263.152 333.982 261.451C331.235 253.747 328.179 246.015 324.927 238.245H324.926C321.716 230.783 317.48 222.479 312.131 213.325C310.857 211.146 310.855 208.449 312.126 206.269C312.606 205.445 313.24 204.744 313.978 204.191H313.305C309.439 204.191 306.305 201.057 306.305 197.191V108.377C306.305 104.511 309.439 101.377 313.305 101.377H368.821C372.687 101.377 375.821 104.511 375.821 108.377V197.191C375.821 198.317 375.554 199.379 375.082 200.321C382.571 199.293 388.834 197.99 393.97 196.407C401.465 194.097 406.686 191.323 410.16 188.34C413.649 185.23 415.95 181.722 417.243 177.772C418.637 173.26 419.408 168.025 419.408 161.946C419.408 158.562 418.711 152.376 417.187 143.047L417.186 143.04C415.732 134.084 413.024 123.084 409.051 109.841C408.415 107.721 408.819 105.426 410.14 103.65C411.46 101.875 413.542 100.829 415.755 100.829H475.107Z" fill="white" stroke="black" stroke-width="14" stroke-linejoin="round"/>
<path d="M527.704 164.508L528.065 164.518C529.87 164.611 531.575 165.399 532.815 166.726C534.139 168.14 534.817 170.04 534.688 171.973L531.836 214.851H541.948C545.814 214.851 548.948 217.985 548.948 221.851V248.695C548.948 252.561 545.814 255.695 541.948 255.695H435.967C432.101 255.695 428.967 252.561 428.967 248.695V221.851C428.967 217.985 432.101 214.851 435.967 214.851H484.618L485.233 205.354H446.072C442.206 205.354 439.072 202.219 439.072 198.354V171.508C439.072 167.642 442.206 164.508 446.072 164.508H527.704Z" fill="white" stroke="black" stroke-width="14" stroke-linejoin="round"/>
<path d="M622.545 95.9609C626.411 95.961 629.545 99.095 629.545 102.961V109.779H667.652L668.066 109.792C670.13 109.914 672.043 110.943 673.28 112.616L696.107 143.479C697.289 145.077 697.736 147.103 697.337 149.05C693.88 165.895 688.748 180.806 681.793 193.75C674.913 206.554 666.801 217.414 657.345 226.283L657.34 226.287C650.064 233.1 641.205 239.059 630.88 244.285C630.87 244.29 630.86 244.296 630.85 244.301C620.308 249.572 607.292 253.81 592.139 257.115L592.133 257.116C576.78 260.451 558.166 262.613 536.255 263.659C533.134 263.808 530.293 261.871 529.291 258.911C526.723 251.323 523.499 243.639 519.606 235.795C515.777 228.078 511.053 220.312 505.354 212.438C503.811 210.308 503.594 207.493 504.79 205.15C505.986 202.808 508.394 201.334 511.024 201.334C533.928 201.334 553.679 200.127 570.259 197.81L570.263 197.809C586.891 195.492 598.179 191.619 604.982 186.796C609.692 183.445 613.854 179.101 617.503 173.601C619.349 170.818 621.003 167.971 622.475 165.052H562.705V189.073C562.884 190.015 562.871 191.004 562.64 191.983C561.894 195.143 559.074 197.376 555.827 197.376H503.11C499.244 197.376 496.11 194.242 496.11 190.376V116.779C496.11 112.913 499.244 109.779 503.11 109.779H557.836V102.961C557.836 99.0951 560.97 95.9612 564.836 95.9609H622.545Z" fill="white" stroke="black" stroke-width="14" stroke-linejoin="round"/>
<path d="M881.685 104.181C885.551 104.181 888.685 107.315 888.685 111.181V253.077C888.685 256.943 885.551 260.077 881.685 260.077H829.577C825.711 260.077 822.577 256.943 822.577 253.077V251.251H766.39V253.077C766.39 256.943 763.255 260.077 759.39 260.077H707.281C703.415 260.077 700.281 256.943 700.281 253.077V111.181C700.281 107.315 703.415 104.181 707.281 104.181H881.685ZM766.39 196.404H822.577V158.905H766.39V196.404Z" fill="white" stroke="black" stroke-width="14" stroke-linejoin="round"/>
<path d="M1019.37 69.3965C1022.23 68.7779 1025.2 70.014 1026.77 72.5137C1029.63 77.0665 1032.1 81.7455 1034.18 86.4229C1036.23 91.0509 1037.97 95.6827 1039.39 100.194C1040.17 102.682 1039.51 105.397 1037.66 107.241L1037.6 107.303C1036.73 108.174 1035.65 108.801 1034.45 109.118L1021.25 112.64L1044.17 153.275C1045.25 155.206 1045.36 157.539 1044.46 159.563C1039.09 171.611 1033.08 182.823 1026.43 193.188C1026.42 193.196 1026.42 193.204 1026.41 193.212C1019.56 203.772 1011.44 213.305 1001.98 221.864C992.37 230.567 980.746 237.984 967.288 244.244L967.289 244.245C959.528 247.925 947.849 251.468 932.74 255.077C932.731 255.079 932.722 255.081 932.713 255.083C917.302 258.702 898.908 261.604 877.578 263.756C874.314 264.085 871.259 262.104 870.229 258.989C867.825 251.721 864.486 244.165 860.072 236.382C855.719 228.707 849.985 220.749 842.746 212.45C840.956 210.399 840.518 207.495 841.624 205.007C842.729 202.519 845.176 200.897 847.898 200.85C848.934 200.831 849.959 200.807 850.973 200.781C849.859 199.719 848.726 198.646 847.569 197.566C842.389 192.736 836.868 188.262 831.006 184.199C829.063 182.852 827.931 180.616 827.997 178.252C828.062 175.888 829.317 173.717 831.333 172.48C844.661 164.3 854.627 154.375 861.526 142.637C868.472 130.818 872.648 117.074 873.915 101.13L873.95 100.792C874.394 97.3184 877.355 94.6848 880.892 94.6846H933.183C935.29 94.6846 937.285 95.6339 938.614 97.2686C939.943 98.9033 940.465 101.05 940.036 103.112C939.727 104.593 939.41 106.068 939.092 107.529H985.73C985.03 105.701 984.275 103.867 983.459 102.031H983.458C981.615 97.9432 979.466 93.7572 977.057 89.4678C975.993 87.5735 975.869 85.2924 976.721 83.2939C977.573 81.2956 979.305 79.8064 981.409 79.2627L997.663 75.0625L997.939 74.9971C998.733 74.8257 999.534 74.7978 1000.31 74.8984C1001.05 74.3271 1001.91 73.9022 1002.84 73.6621L1019.09 69.4619L1019.37 69.3965ZM920.324 166.88C916.325 175.642 912.03 183.482 907.503 190.382C906.064 192.575 904.602 194.679 903.122 196.697C907.76 195.995 912.084 195.205 916.085 194.318C924.707 192.409 932.182 189.84 938.514 186.674L938.575 186.644C945.561 183.234 951.434 179.096 956.263 174.321C958.53 172.08 960.698 169.603 962.778 166.88H920.324Z" fill="white" stroke="black" stroke-width="14" stroke-linejoin="round"/>
<path d="M179.462 78.1338C180.449 77.279 181.758 76.8944 183.051 77.0811L199.913 79.5166L200.116 79.5508C200.953 79.7107 201.701 80.0993 202.299 80.6445C203.196 80.0826 204.269 79.8498 205.33 80.0029L222.192 82.4385L222.396 82.4727C224.485 82.8719 226.021 84.6886 226.049 86.834C226.176 96.7216 225.034 106.385 222.488 115.932C222.038 117.622 220.672 118.847 219.041 119.181C219.125 119.524 219.171 119.882 219.171 120.251V163.35C219.171 165.835 217.156 167.849 214.671 167.85H200.7C199.928 180.116 197.531 190.994 193.408 200.401C188.856 210.787 182.603 219.769 174.631 227.158C166.778 234.437 157.667 240.483 147.388 245.179C137.242 249.813 126.242 253.56 114.458 256.304C102.797 259.019 90.7138 261.175 78.1514 262.776C76.2391 263.02 74.3845 262.019 73.5391 260.286C69.9096 252.849 65.4868 245.016 60.3184 236.782C55.3239 228.826 48.9071 221.229 40.8525 213.997C39.4768 212.762 38.9965 210.811 39.6416 209.078C40.2867 207.346 41.926 206.184 43.7744 206.149C65.8416 205.735 83.725 204.047 97.5137 201.147H49.3369C46.8519 201.147 44.8369 199.133 44.8369 196.647V167.85H28.7012C26.2159 167.85 24.2012 165.835 24.2012 163.35V120.19C24.2012 117.705 26.2159 115.69 28.7012 115.69H44.8369V102.78C44.8369 100.295 46.8519 98.2805 49.3369 98.2803H101.445C103.931 98.2803 105.945 100.295 105.945 102.78V115.69H134.731C134.539 114.851 134.34 113.994 134.136 113.119C133.467 110.262 132.737 107.161 131.946 103.815C131.63 102.477 131.944 101.067 132.797 99.9883C133.65 98.9095 134.951 98.2803 136.326 98.2803H176.626C177.478 92.8874 177.907 87.3179 177.907 81.5352C177.907 80.2295 178.475 78.9885 179.462 78.1338ZM105.945 196.647C105.945 197.622 105.634 198.524 105.107 199.261C115.502 196.268 123.179 192.2 128.466 187.188C133.676 182.2 137.186 175.829 138.859 167.85H105.945V196.647ZM198.103 115.751H198.165C198.156 115.744 198.147 115.737 198.139 115.729C198.127 115.737 198.115 115.744 198.103 115.751Z" fill="white" stroke="white" stroke-width="9" stroke-linejoin="round"/>
<path d="M290.657 99.5713C291.907 97.9832 294.074 97.4175 295.949 98.2129L346.474 119.641C347.754 120.184 348.712 121.288 349.067 122.632C349.423 123.976 349.137 125.41 348.293 126.515C342.319 134.336 336.437 141.398 330.586 147.623C324.673 153.914 318.252 159.579 311.326 164.616C305.076 169.162 298.14 173.424 290.535 177.458V254.723C290.535 257.208 288.52 259.222 286.035 259.223H230.396C227.911 259.223 225.897 257.208 225.896 254.723V197.534C216.676 199.05 207.074 200.356 197.055 201.486C185.108 202.834 172.552 203.936 159.571 204.732C157.15 204.881 155.047 203.083 154.816 200.669C154.035 192.498 152.953 184.318 151.628 176.188C150.356 168.386 147.853 160.019 144.12 151.012C143.545 149.623 143.7 148.039 144.535 146.789C145.37 145.539 146.774 144.789 148.277 144.789C160.637 144.789 172.689 144.547 184.372 144.062C195.991 143.581 206.857 142.618 216.915 141.182C226.899 139.755 235.392 137.693 242.502 135.035L243.896 134.496C250.92 131.716 258.647 127.723 266.991 122.571C275.461 117.342 283.326 109.756 290.539 99.7275L290.657 99.5713Z" fill="white" stroke="white" stroke-width="9" stroke-linejoin="round"/>
<path d="M475.107 103.329L475.308 103.334C477.364 103.425 479.108 104.906 479.519 106.94C480.911 113.847 482.072 120.066 483 125.555L483.384 127.862L483.391 127.906C484.31 133.913 485.053 139.418 485.551 144.459C486.053 149.541 486.304 154.742 486.304 159.938C486.304 178.215 483.113 193.827 476.485 206.627L476.481 206.635C469.878 219.324 460.166 229.597 447.513 237.368L447.504 237.373C434.938 245.052 419.719 250.872 401.817 254.85L401.816 254.849C384.034 258.861 363.797 261.747 341.072 263.646C340.25 263.714 339.424 263.556 338.686 263.187L338.563 263.125C337.525 262.606 336.728 261.706 336.338 260.612C333.576 252.868 330.509 245.106 327.25 237.319L326.626 235.886C323.447 228.673 319.356 220.734 314.289 212.063C313.47 210.663 313.469 208.929 314.286 207.527C315.103 206.125 316.612 205.272 318.234 205.293C335.443 205.52 350.075 205.16 362.105 204.226L364.477 204.031C377.036 202.889 387.033 201.161 394.706 198.796C402.429 196.415 408.008 193.496 411.828 190.203C415.623 186.819 418.181 182.944 419.62 178.548C421.106 173.753 421.908 168.252 421.908 161.946C421.908 158.336 421.178 151.968 419.654 142.645L419.653 142.64C418.175 133.534 415.434 122.419 411.445 109.122C411.037 107.76 411.295 106.284 412.145 105.143C412.994 104.001 414.333 103.329 415.755 103.329H475.107ZM368.821 103.877C371.307 103.877 373.321 105.892 373.321 108.377V197.191C373.321 199.677 371.307 201.691 368.821 201.691H313.305C310.819 201.691 308.805 199.677 308.805 197.191V108.377C308.805 105.892 310.819 103.877 313.305 103.877H368.821Z" fill="white" stroke="white" stroke-width="9" stroke-linejoin="round"/>
<path d="M527.704 167.008C528.949 167.008 530.139 167.524 530.989 168.434C531.84 169.343 532.276 170.564 532.193 171.807L529.165 217.351H541.948C544.433 217.351 546.448 219.365 546.448 221.851V248.695C546.448 251.181 544.433 253.195 541.948 253.195H435.967C433.482 253.195 431.467 251.181 431.467 248.695V221.851C431.467 219.365 433.482 217.351 435.967 217.351H486.961L487.9 202.854H446.072C443.587 202.854 441.572 200.839 441.572 198.354V171.508C441.572 169.023 443.587 167.008 446.072 167.008H527.704Z" fill="white" stroke="white" stroke-width="9" stroke-linejoin="round"/>
<path d="M622.545 98.4609C625.03 98.461 627.045 100.476 627.045 102.961V112.279H667.652L667.919 112.287C669.245 112.366 670.475 113.028 671.271 114.104L694.098 144.967C694.857 145.994 695.145 147.295 694.888 148.547C691.47 165.203 686.41 179.876 679.591 192.566C672.82 205.168 664.865 215.801 655.634 224.46L655.631 224.463C648.562 231.082 639.91 236.912 629.751 242.055C629.744 242.058 629.738 242.061 629.731 242.064C619.433 247.214 606.63 251.395 591.605 254.672L591.603 254.673C576.428 257.969 557.961 260.12 536.136 261.162C534.13 261.258 532.303 260.013 531.659 258.11C529.052 250.406 525.784 242.618 521.847 234.684C517.95 226.831 513.152 218.948 507.379 210.973C506.387 209.603 506.248 207.793 507.017 206.287C507.786 204.781 509.334 203.834 511.024 203.834C534.01 203.834 553.882 202.623 570.605 200.285H570.607C587.385 197.948 599.141 194.001 606.428 188.835C611.412 185.29 615.784 180.715 619.586 174.983C622.243 170.978 624.517 166.841 626.429 162.552H560.205V189.334C560.364 190 560.372 190.708 560.207 191.409C559.728 193.44 557.914 194.876 555.827 194.876H503.11C500.625 194.876 498.61 192.861 498.61 190.376V116.779C498.61 114.294 500.625 112.279 503.11 112.279H560.336V102.961C560.336 100.476 562.351 98.4612 564.836 98.4609H622.545Z" fill="white" stroke="white" stroke-width="9" stroke-linejoin="round"/>
<path d="M881.685 106.681C884.17 106.681 886.185 108.695 886.185 111.181V253.077C886.185 255.562 884.17 257.577 881.685 257.577H829.577C827.092 257.577 825.077 255.562 825.077 253.077V248.751H763.89V253.077C763.89 255.562 761.875 257.577 759.39 257.577H707.281C704.796 257.577 702.781 255.562 702.781 253.077V111.181C702.781 108.695 704.796 106.681 707.281 106.681H881.685ZM763.89 198.904H825.077V156.405H763.89V198.904Z" fill="white" stroke="white" stroke-width="9" stroke-linejoin="round"/>
<path d="M1019.72 71.8828C1021.61 71.3926 1023.61 72.1859 1024.65 73.8447C1027.45 78.2935 1029.86 82.8662 1031.89 87.4385C1033.91 91.979 1035.61 96.5221 1037 100.944C1037.51 102.543 1037.08 104.289 1035.9 105.475L1035.83 105.535C1035.27 106.095 1034.58 106.498 1033.81 106.702L1017.37 111.085C1017.34 111.095 1017.3 111.102 1017.27 111.11C1017.6 111.422 1017.89 111.785 1018.13 112.196L1041.99 154.504C1042.69 155.745 1042.76 157.244 1042.18 158.546C1036.86 170.487 1030.91 181.586 1024.32 191.836C1024.32 191.841 1024.32 191.847 1024.31 191.853C1017.58 202.228 1009.6 211.595 1000.3 220.011C990.906 228.519 979.499 235.809 966.216 241.985L966.217 241.986C958.707 245.547 947.241 249.043 932.159 252.646C932.153 252.647 932.148 252.648 932.142 252.649C916.865 256.237 898.583 259.124 877.327 261.269C875.229 261.48 873.264 260.206 872.602 258.204C870.144 250.77 866.737 243.065 862.247 235.148C857.796 227.302 851.957 219.207 844.629 210.807C843.479 209.488 843.197 207.621 843.908 206.021C844.618 204.422 846.192 203.38 847.942 203.35C851.045 203.295 854.051 203.2 856.95 203.083C854.5 200.679 851.947 198.231 849.274 195.738C844.009 190.828 838.394 186.278 832.43 182.145C831.181 181.279 830.453 179.841 830.496 178.321C830.538 176.802 831.345 175.406 832.64 174.611C846.274 166.244 856.55 156.037 863.681 143.903C870.842 131.718 875.114 117.6 876.407 101.328L876.429 101.11C876.715 98.8776 878.619 97.1848 880.892 97.1846H933.183C934.538 97.1846 935.82 97.7948 936.674 98.8457C937.529 99.8966 937.865 101.277 937.588 102.603C937.067 105.107 936.524 107.595 935.987 110.029H989.301C988.268 107.038 987.088 104.041 985.754 101.038L985.034 99.4668C983.32 95.7919 981.376 92.0514 979.237 88.2432C978.553 87.0255 978.473 85.559 979.021 84.2744C979.569 82.9898 980.683 82.032 982.035 81.6826L998.288 77.4824C999.229 77.2391 1000.2 77.3132 1001.06 77.6514C1001.66 76.8883 1002.5 76.3316 1003.46 76.083L1019.72 71.8828ZM918.708 164.38C914.569 173.634 910.111 181.849 905.414 189.011C902.809 192.982 900.141 196.649 897.412 200.018C904.44 199.118 910.854 198.037 916.626 196.759C925.408 194.814 933.083 192.184 939.632 188.909L939.671 188.891C946.88 185.373 952.981 181.082 958.021 176.099C961.456 172.702 964.657 168.808 967.655 164.38H918.708Z" fill="white" stroke="white" stroke-width="9" stroke-linejoin="round"/>
<path d="M28.7012 163.289V120.19H49.3374V102.78H101.445V120.19H140.344C139.796 117.633 139.187 114.955 138.518 112.094C137.848 109.233 137.117 106.128 136.326 102.78H180.399C181.738 95.9622 182.408 88.9009 182.408 81.5352L199.27 83.9701C199.391 93.4664 198.235 102.719 195.861 111.85L189.834 111.059C190.626 114.529 191.295 117.633 191.843 120.251H214.671V163.35H196.409C195.982 176.985 193.608 188.734 189.286 198.595C184.964 208.457 179.059 216.918 171.572 223.858C164.085 230.798 155.38 236.581 145.518 241.085C135.656 245.59 124.943 249.242 113.438 251.921C101.932 254.599 90.0011 256.73 77.5828 258.313C73.8695 250.703 69.3649 242.729 64.1297 234.389C58.8946 226.05 52.1985 218.136 43.8588 210.648C66.5647 210.222 85.0703 208.457 99.3757 205.352C113.681 202.187 124.395 197.256 131.578 190.438C138.7 183.621 142.9 174.611 144.118 163.35H101.445V196.648H49.3374V163.35H28.7012V163.289ZM218.14 114.772L201.096 112.337C203.348 103.511 204.566 94.2578 204.687 84.4571L221.549 86.8921C221.671 96.3884 220.575 105.641 218.14 114.772Z" fill="#DA00E9"/>
<path d="M285.913 254.723H230.396V192.205C219.682 194.092 208.421 195.675 196.55 197.014C184.68 198.353 172.201 199.449 159.296 200.241C158.504 191.962 157.408 183.683 156.069 175.465C154.73 167.247 152.112 158.542 148.277 149.289C160.696 149.289 172.809 149.046 184.558 148.559C196.307 148.072 207.325 147.098 217.552 145.637C227.779 144.176 236.605 142.045 244.093 139.245C251.824 136.323 260.285 132.001 269.355 126.401C278.426 120.8 286.704 112.765 294.192 102.355L344.717 123.783C338.812 131.514 333.029 138.454 327.307 144.541C321.585 150.628 315.376 156.107 308.68 160.977C301.984 165.847 294.435 170.412 286.035 174.734V254.723H285.913Z" fill="#CFE200"/>
<path d="M313.305 108.377H368.822V197.192H313.305V108.377ZM340.576 259.101C337.776 251.248 334.671 243.395 331.384 235.542C328.036 227.751 323.653 219.167 318.175 209.793C336.619 210.036 352.203 209.61 364.865 208.514C377.587 207.358 387.936 205.592 396.032 203.097C404.128 200.601 410.338 197.435 414.781 193.6C419.164 189.704 422.208 185.139 423.912 179.904C425.556 174.608 426.408 168.642 426.408 161.946C426.408 157.928 425.617 151.232 424.095 141.918C422.573 132.544 419.773 121.221 415.755 107.829H475.107C476.69 115.682 477.968 122.621 478.942 128.587C479.855 134.553 480.586 139.97 481.073 144.901C481.56 149.832 481.803 154.885 481.803 159.937C481.803 177.712 478.699 192.565 472.49 204.558C466.281 216.489 457.149 226.168 445.157 233.534C433.104 240.899 418.373 246.561 400.841 250.456C383.31 254.413 363.282 257.274 340.698 259.161L340.576 259.101Z" fill="#0171FF"/>
<path d="M435.967 248.696V221.85H491.179L492.701 198.353H446.072V171.508H527.704L524.356 221.85H541.948V248.696H435.967Z" fill="#FF5FFA"/>
<path d="M555.827 190.376H503.11V116.779H564.836V102.961H622.545V116.779H667.652L690.48 147.642C687.132 163.957 682.201 178.201 675.627 190.437C669.052 202.672 661.382 212.899 652.556 221.178C645.859 227.448 637.581 233.048 627.719 238.04C617.857 242.971 605.439 247.049 590.647 250.276C575.794 253.502 557.592 255.632 535.921 256.667C533.243 248.754 529.895 240.779 525.877 232.683C521.86 224.587 516.929 216.491 511.024 208.334C534.156 208.334 554.244 207.116 571.228 204.742C588.273 202.368 600.874 198.289 609.031 192.506C614.509 188.61 619.258 183.619 623.336 177.47C627.415 171.322 630.641 164.87 633.076 158.052H555.705V190.315L555.827 190.376Z" fill="#04D804"/>
<path d="M881.685 253.078H829.577V244.251H759.389V253.078H707.281V111.181H881.685V253.078ZM759.389 203.404H829.577V151.905H759.389V203.404Z" fill="#06D1DA"/>
<path d="M1014.21 114.407L1038.07 156.714C1032.83 168.463 1026.99 179.359 1020.54 189.404C1014.02 199.448 1006.29 208.518 997.283 216.675C988.274 224.832 977.256 231.894 964.29 237.92C957.228 241.268 946.149 244.677 931.113 248.269C916.078 251.799 897.998 254.66 876.875 256.791C874.318 249.06 870.787 241.086 866.161 232.928C861.535 224.771 855.508 216.432 848.021 207.848C854.96 207.727 861.413 207.422 867.257 207.057C862.691 202.37 857.76 197.5 852.343 192.447C846.925 187.395 841.142 182.708 834.994 178.446C849.177 169.741 860.013 159.028 867.561 146.183C875.109 133.339 879.553 118.547 880.892 101.685H933.183C932.27 106.067 931.296 110.389 930.383 114.529H1014.15L1014.21 114.407ZM915.773 159.88C911.39 170.046 906.642 178.933 901.65 186.543C896.659 194.152 891.485 200.544 886.128 205.779C897.998 204.683 908.529 203.161 917.599 201.152C926.67 199.143 934.705 196.404 941.645 192.934C949.254 189.221 955.767 184.656 961.185 179.299C966.603 173.942 971.412 167.489 975.734 159.88H915.773ZM1011.41 107.955L994.787 112.337C993.448 107.955 991.805 103.572 989.857 99.1887C987.909 94.8666 985.656 90.4837 983.16 86.0399L999.414 81.8396C1002.09 86.1008 1004.41 90.4837 1006.41 94.8666C1008.42 99.2496 1010.07 103.632 1011.41 107.894V107.955ZM1032.65 102.354L1016.21 106.737C1014.88 102.354 1013.23 97.9712 1011.28 93.5883C1009.34 89.2663 1007.08 84.8833 1004.59 80.4396L1020.84 76.2393C1023.52 80.5004 1025.83 84.8833 1027.78 89.2663C1029.73 93.6492 1031.37 98.0321 1032.71 102.293L1032.65 102.354Z" fill="#FF7800"/>
<mask id="path-22-outside-1_1504_4963" maskUnits="userSpaceOnUse" x="251.783" y="12.5557" width="142" height="47" fill="black">
<rect fill="white" x="251.783" y="12.5557" width="142" height="47"/>
<path d="M257.611 53.5557V26.0264H266.222V30.4989H266.684C266.856 29.9334 267.121 29.3765 267.481 28.8281C267.841 28.2798 268.312 27.7571 268.895 27.2602C269.495 26.7632 270.24 26.3691 271.131 26.0778C272.039 25.7693 273.042 25.6151 274.139 25.6151C276.143 25.6151 277.78 26.0692 279.048 26.9774C280.333 27.8685 281.19 29.0766 281.618 30.6017H281.978C282.424 29.2994 283.375 28.1427 284.832 27.1317C286.288 26.1206 288.113 25.6151 290.307 25.6151C293.031 25.6151 295.156 26.4462 296.681 28.1084C298.223 29.7535 298.995 31.9384 298.995 34.663V53.5557H290.075V37.4391C290.075 35.8111 289.724 34.6373 289.021 33.9176C288.336 33.1807 287.445 32.8123 286.348 32.8123C285.166 32.8123 284.232 33.215 283.546 34.0204C282.878 34.8087 282.544 35.9996 282.544 37.5933V53.5557H274.061V37.5419C274.061 35.8454 273.702 34.6373 272.982 33.9176C272.279 33.1807 271.38 32.8123 270.283 32.8123C269.169 32.8123 268.261 33.1893 267.558 33.9433C266.856 34.6973 266.504 35.8968 266.504 37.5419V53.5557H257.611ZM304.547 53.5557V26.0264H313.158V30.4989H313.62C313.792 29.9334 314.057 29.3765 314.417 28.8281C314.777 28.2798 315.248 27.7571 315.831 27.2602C316.431 26.7632 317.176 26.3691 318.067 26.0778C318.975 25.7693 319.978 25.6151 321.075 25.6151C323.079 25.6151 324.716 26.0692 325.984 26.9774C327.269 27.8685 328.126 29.0766 328.554 30.6017H328.914C329.36 29.2994 330.311 28.1427 331.768 27.1317C333.224 26.1206 335.049 25.6151 337.243 25.6151C339.967 25.6151 342.092 26.4462 343.617 28.1084C345.159 29.7535 345.931 31.9384 345.931 34.663V53.5557H337.011V37.4391C337.011 35.8111 336.66 34.6373 335.957 33.9176C335.272 33.1807 334.381 32.8123 333.284 32.8123C332.102 32.8123 331.168 33.215 330.482 34.0204C329.814 34.8087 329.48 35.9996 329.48 37.5933V53.5557H320.997V37.5419C320.997 35.8454 320.638 34.6373 319.918 33.9176C319.215 33.1807 318.316 32.8123 317.219 32.8123C316.105 32.8123 315.197 33.1893 314.494 33.9433C313.792 34.6973 313.44 35.8968 313.44 37.5419V53.5557H304.547ZM350.789 18.4693H360.428L359.348 34.0204H351.894L350.789 18.4693ZM364.001 45.5359H372.637C372.706 46.3413 373.083 47.0096 373.768 47.5409C374.454 48.0721 375.336 48.3377 376.416 48.3377C377.598 48.3377 378.481 48.1064 379.063 47.6437C379.663 47.1639 379.963 46.5384 379.963 45.7673C379.963 45.4588 379.903 45.1846 379.783 44.9447C379.663 44.7048 379.466 44.4992 379.192 44.3278C378.918 44.1393 378.644 43.9851 378.369 43.8651C378.095 43.7452 377.718 43.6338 377.238 43.531C376.776 43.411 376.364 43.3168 376.005 43.2482C375.662 43.1797 375.191 43.1026 374.591 43.0169C374.008 42.9141 373.546 42.8284 373.203 42.7599C371.935 42.52 370.812 42.2029 369.836 41.8088C368.859 41.3975 367.959 40.8749 367.137 40.2408C366.314 39.5897 365.68 38.7757 365.235 37.7989C364.806 36.805 364.592 35.6655 364.592 34.3803C364.592 32.8209 364.909 31.4585 365.543 30.2933C366.177 29.128 367.051 28.2112 368.165 27.5429C369.279 26.8575 370.521 26.352 371.892 26.0264C373.28 25.6837 374.797 25.5123 376.442 25.5123C379.817 25.5123 382.516 26.2577 384.538 27.7486C386.578 29.2223 387.597 31.3215 387.597 34.0461H379.886C379.783 33.2578 379.432 32.5895 378.832 32.0412C378.249 31.4757 377.418 31.1929 376.339 31.1929C375.276 31.1929 374.454 31.4243 373.871 31.887C373.289 32.3496 372.997 32.958 372.997 33.712C372.997 34.0375 373.074 34.3374 373.229 34.6116C373.383 34.8858 373.631 35.1257 373.974 35.3313C374.334 35.5198 374.668 35.6912 374.976 35.8454C375.302 35.9825 375.748 36.111 376.313 36.231C376.879 36.3338 377.324 36.4195 377.65 36.488C377.992 36.5394 378.481 36.6165 379.115 36.7194C379.749 36.805 380.177 36.865 380.4 36.8993C383.039 37.3277 385.053 38.1759 386.441 39.444C387.846 40.695 388.548 42.4685 388.548 44.7648C388.548 47.6608 387.46 49.9399 385.284 51.6021C383.108 53.2472 380.006 54.0697 375.979 54.0697C372.175 54.0697 369.227 53.2815 367.137 51.705C365.046 50.1284 364.001 48.0721 364.001 45.5359Z"/>
</mask>
<path d="M257.611 53.5557V26.0264H266.222V30.4989H266.684C266.856 29.9334 267.121 29.3765 267.481 28.8281C267.841 28.2798 268.312 27.7571 268.895 27.2602C269.495 26.7632 270.24 26.3691 271.131 26.0778C272.039 25.7693 273.042 25.6151 274.139 25.6151C276.143 25.6151 277.78 26.0692 279.048 26.9774C280.333 27.8685 281.19 29.0766 281.618 30.6017H281.978C282.424 29.2994 283.375 28.1427 284.832 27.1317C286.288 26.1206 288.113 25.6151 290.307 25.6151C293.031 25.6151 295.156 26.4462 296.681 28.1084C298.223 29.7535 298.995 31.9384 298.995 34.663V53.5557H290.075V37.4391C290.075 35.8111 289.724 34.6373 289.021 33.9176C288.336 33.1807 287.445 32.8123 286.348 32.8123C285.166 32.8123 284.232 33.215 283.546 34.0204C282.878 34.8087 282.544 35.9996 282.544 37.5933V53.5557H274.061V37.5419C274.061 35.8454 273.702 34.6373 272.982 33.9176C272.279 33.1807 271.38 32.8123 270.283 32.8123C269.169 32.8123 268.261 33.1893 267.558 33.9433C266.856 34.6973 266.504 35.8968 266.504 37.5419V53.5557H257.611ZM304.547 53.5557V26.0264H313.158V30.4989H313.62C313.792 29.9334 314.057 29.3765 314.417 28.8281C314.777 28.2798 315.248 27.7571 315.831 27.2602C316.431 26.7632 317.176 26.3691 318.067 26.0778C318.975 25.7693 319.978 25.6151 321.075 25.6151C323.079 25.6151 324.716 26.0692 325.984 26.9774C327.269 27.8685 328.126 29.0766 328.554 30.6017H328.914C329.36 29.2994 330.311 28.1427 331.768 27.1317C333.224 26.1206 335.049 25.6151 337.243 25.6151C339.967 25.6151 342.092 26.4462 343.617 28.1084C345.159 29.7535 345.931 31.9384 345.931 34.663V53.5557H337.011V37.4391C337.011 35.8111 336.66 34.6373 335.957 33.9176C335.272 33.1807 334.381 32.8123 333.284 32.8123C332.102 32.8123 331.168 33.215 330.482 34.0204C329.814 34.8087 329.48 35.9996 329.48 37.5933V53.5557H320.997V37.5419C320.997 35.8454 320.638 34.6373 319.918 33.9176C319.215 33.1807 318.316 32.8123 317.219 32.8123C316.105 32.8123 315.197 33.1893 314.494 33.9433C313.792 34.6973 313.44 35.8968 313.44 37.5419V53.5557H304.547ZM350.789 18.4693H360.428L359.348 34.0204H351.894L350.789 18.4693ZM364.001 45.5359H372.637C372.706 46.3413 373.083 47.0096 373.768 47.5409C374.454 48.0721 375.336 48.3377 376.416 48.3377C377.598 48.3377 378.481 48.1064 379.063 47.6437C379.663 47.1639 379.963 46.5384 379.963 45.7673C379.963 45.4588 379.903 45.1846 379.783 44.9447C379.663 44.7048 379.466 44.4992 379.192 44.3278C378.918 44.1393 378.644 43.9851 378.369 43.8651C378.095 43.7452 377.718 43.6338 377.238 43.531C376.776 43.411 376.364 43.3168 376.005 43.2482C375.662 43.1797 375.191 43.1026 374.591 43.0169C374.008 42.9141 373.546 42.8284 373.203 42.7599C371.935 42.52 370.812 42.2029 369.836 41.8088C368.859 41.3975 367.959 40.8749 367.137 40.2408C366.314 39.5897 365.68 38.7757 365.235 37.7989C364.806 36.805 364.592 35.6655 364.592 34.3803C364.592 32.8209 364.909 31.4585 365.543 30.2933C366.177 29.128 367.051 28.2112 368.165 27.5429C369.279 26.8575 370.521 26.352 371.892 26.0264C373.28 25.6837 374.797 25.5123 376.442 25.5123C379.817 25.5123 382.516 26.2577 384.538 27.7486C386.578 29.2223 387.597 31.3215 387.597 34.0461H379.886C379.783 33.2578 379.432 32.5895 378.832 32.0412C378.249 31.4757 377.418 31.1929 376.339 31.1929C375.276 31.1929 374.454 31.4243 373.871 31.887C373.289 32.3496 372.997 32.958 372.997 33.712C372.997 34.0375 373.074 34.3374 373.229 34.6116C373.383 34.8858 373.631 35.1257 373.974 35.3313C374.334 35.5198 374.668 35.6912 374.976 35.8454C375.302 35.9825 375.748 36.111 376.313 36.231C376.879 36.3338 377.324 36.4195 377.65 36.488C377.992 36.5394 378.481 36.6165 379.115 36.7194C379.749 36.805 380.177 36.865 380.4 36.8993C383.039 37.3277 385.053 38.1759 386.441 39.444C387.846 40.695 388.548 42.4685 388.548 44.7648C388.548 47.6608 387.46 49.9399 385.284 51.6021C383.108 53.2472 380.006 54.0697 375.979 54.0697C372.175 54.0697 369.227 53.2815 367.137 51.705C365.046 50.1284 364.001 48.0721 364.001 45.5359Z" fill="white"/>
<path d="M257.611 53.5557H252.611V58.5557H257.611V53.5557ZM257.611 26.0264V21.0264H252.611V26.0264H257.611ZM266.222 26.0264H271.222V21.0264H266.222V26.0264ZM266.222 30.4989H261.222V35.4989H266.222V30.4989ZM266.684 30.4989V35.4989H270.394L271.469 31.949L266.684 30.4989ZM268.895 27.2602L265.705 23.4101L265.677 23.4328L265.65 23.456L268.895 27.2602ZM271.131 26.0778L272.685 30.8303L272.712 30.8214L272.739 30.8122L271.131 26.0778ZM279.048 26.9774L276.137 31.0424L276.168 31.0646L276.199 31.0864L279.048 26.9774ZM281.618 30.6017L276.805 31.9539L277.829 35.6017H281.618V30.6017ZM281.978 30.6017V35.6017H285.552L286.709 32.2202L281.978 30.6017ZM284.832 27.1317L281.98 23.0242L284.832 27.1317ZM296.681 28.1084L292.997 31.4888L293.015 31.5085L293.033 31.5281L296.681 28.1084ZM298.995 53.5557V58.5557H303.995V53.5557H298.995ZM290.075 53.5557H285.075V58.5557H290.075V53.5557ZM289.021 33.9176L285.36 37.3231L285.401 37.3672L285.443 37.4103L289.021 33.9176ZM283.546 34.0204L279.739 30.7798L279.733 30.787L283.546 34.0204ZM282.544 53.5557V58.5557H287.544V53.5557H282.544ZM274.061 53.5557H269.061V58.5557H274.061V53.5557ZM272.982 33.9176L269.363 37.368L269.404 37.411L269.446 37.4531L272.982 33.9176ZM267.558 33.9433L263.9 30.5347L267.558 33.9433ZM266.504 53.5557V58.5557H271.504V53.5557H266.504ZM257.611 53.5557H262.611V26.0264H257.611H252.611V53.5557H257.611ZM257.611 26.0264V31.0264H266.222V26.0264V21.0264H257.611V26.0264ZM266.222 26.0264H261.222V30.4989H266.222H271.222V26.0264H266.222ZM266.222 30.4989V35.4989H266.684V30.4989V25.4989H266.222V30.4989ZM266.684 30.4989L271.469 31.949C271.488 31.8885 271.535 31.7633 271.661 31.5714L267.481 28.8281L263.301 26.0849C262.707 26.9897 262.224 27.9784 261.899 29.0489L266.684 30.4989ZM267.481 28.8281L271.661 31.5714C271.722 31.479 271.859 31.3039 272.14 31.0644L268.895 27.2602L265.65 23.456C264.766 24.2103 263.96 25.0806 263.301 26.0849L267.481 28.8281ZM268.895 27.2602L272.085 31.1103C272.113 31.0869 272.272 30.9651 272.685 30.8303L271.131 26.0778L269.577 21.3253C268.208 21.7731 266.876 22.4396 265.705 23.4101L268.895 27.2602ZM271.131 26.0778L272.739 30.8122C273.061 30.7028 273.512 30.6151 274.139 30.6151V25.6151V20.6151C272.572 20.6151 271.018 20.8358 269.523 21.3434L271.131 26.0778ZM274.139 25.6151V30.6151C275.397 30.6151 275.931 30.8954 276.137 31.0424L279.048 26.9774L281.959 22.9125C279.628 21.243 276.89 20.6151 274.139 20.6151V25.6151ZM279.048 26.9774L276.199 31.0864C276.515 31.3057 276.686 31.5324 276.805 31.9539L281.618 30.6017L286.432 29.2496C285.694 26.6208 284.151 24.4314 281.897 22.8684L279.048 26.9774ZM281.618 30.6017V35.6017H281.978V30.6017V25.6017H281.618V30.6017ZM281.978 30.6017L286.709 32.2202C286.722 32.1837 286.849 31.8178 287.683 31.2391L284.832 27.1317L281.98 23.0242C279.901 24.4676 278.126 26.4151 277.248 28.9833L281.978 30.6017ZM284.832 27.1317L287.683 31.2391C288.122 30.9343 288.888 30.6151 290.307 30.6151V25.6151V20.6151C287.338 20.6151 284.454 21.307 281.98 23.0242L284.832 27.1317ZM290.307 25.6151V30.6151C291.946 30.6151 292.613 31.0701 292.997 31.4888L296.681 28.1084L300.365 24.7281C297.699 21.8224 294.117 20.6151 290.307 20.6151V25.6151ZM296.681 28.1084L293.033 31.5281C293.533 32.0607 293.995 32.9288 293.995 34.663H298.995H303.995C303.995 30.9479 302.914 27.4463 300.329 24.6887L296.681 28.1084ZM298.995 34.663H293.995V53.5557H298.995H303.995V34.663H298.995ZM298.995 53.5557V48.5557H290.075V53.5557V58.5557H298.995V53.5557ZM290.075 53.5557H295.075V37.4391H290.075H285.075V53.5557H290.075ZM290.075 37.4391H295.075C295.075 35.2763 294.638 32.5136 292.599 30.4249L289.021 33.9176L285.443 37.4103C285.12 37.0788 285.028 36.7916 285.022 36.7713C285.019 36.763 285.034 36.8094 285.048 36.9253C285.063 37.0408 285.075 37.2093 285.075 37.4391H290.075ZM289.021 33.9176L292.682 30.5121C290.96 28.6609 288.695 27.8123 286.348 27.8123V32.8123V37.8123C286.33 37.8123 286.166 37.8076 285.928 37.7093C285.681 37.6069 285.485 37.4572 285.36 37.3231L289.021 33.9176ZM286.348 32.8123V27.8123C283.894 27.8123 281.493 28.7183 279.739 30.7798L283.546 34.0204L287.354 37.261C287.22 37.4189 287.007 37.5908 286.741 37.7057C286.489 37.8142 286.328 37.8123 286.348 37.8123V32.8123ZM283.546 34.0204L279.733 30.787C277.978 32.856 277.544 35.4282 277.544 37.5933H282.544H287.544C287.544 37.3677 287.556 37.1952 287.571 37.0693C287.586 36.9432 287.603 36.8757 287.609 36.8555C287.619 36.818 287.573 37.0024 287.36 37.2538L283.546 34.0204ZM282.544 37.5933H277.544V53.5557H282.544H287.544V37.5933H282.544ZM282.544 53.5557V48.5557H274.061V53.5557V58.5557H282.544V53.5557ZM274.061 53.5557H279.061V37.5419H274.061H269.061V53.5557H274.061ZM274.061 37.5419H279.061C279.061 35.3553 278.635 32.4995 276.517 30.3821L272.982 33.9176L269.446 37.4531C269.095 37.1014 269.001 36.7958 269 36.7908C268.999 36.7889 269.016 36.8452 269.032 36.9759C269.048 37.1059 269.061 37.2918 269.061 37.5419H274.061ZM272.982 33.9176L276.601 30.4672C274.876 28.6588 272.629 27.8123 270.283 27.8123V32.8123V37.8123C270.264 37.8123 270.109 37.8073 269.885 37.7157C269.653 37.6207 269.474 37.4841 269.363 37.368L272.982 33.9176ZM270.283 32.8123V27.8123C267.907 27.8123 265.631 28.6776 263.9 30.5347L267.558 33.9433L271.216 37.3519C271.104 37.4722 270.921 37.6143 270.683 37.713C270.454 37.808 270.297 37.8123 270.283 37.8123V32.8123ZM267.558 33.9433L263.9 30.5347C261.946 32.6321 261.504 35.3508 261.504 37.5419H266.504H271.504C271.504 37.3062 271.517 37.1296 271.533 37.0044C271.548 36.879 271.564 36.8199 271.566 36.8137C271.569 36.8045 271.497 37.0504 271.216 37.3519L267.558 33.9433ZM266.504 37.5419H261.504V53.5557H266.504H271.504V37.5419H266.504ZM266.504 53.5557V48.5557H257.611V53.5557V58.5557H266.504V53.5557ZM304.547 53.5557H299.547V58.5557H304.547V53.5557ZM304.547 26.0264V21.0264H299.547V26.0264H304.547ZM313.158 26.0264H318.158V21.0264H313.158V26.0264ZM313.158 30.4989H308.158V35.4989H313.158V30.4989ZM313.62 30.4989V35.4989H317.33L318.405 31.949L313.62 30.4989ZM315.831 27.2602L312.641 23.4101L312.613 23.4328L312.586 23.456L315.831 27.2602ZM318.067 26.0778L319.621 30.8303L319.648 30.8214L319.675 30.8122L318.067 26.0778ZM325.984 26.9774L323.073 31.0424L323.104 31.0646L323.135 31.0864L325.984 26.9774ZM328.554 30.6017L323.741 31.9539L324.765 35.6017H328.554V30.6017ZM328.914 30.6017V35.6017H332.488L333.645 32.2202L328.914 30.6017ZM331.768 27.1317L328.916 23.0242L331.768 27.1317ZM343.617 28.1084L339.933 31.4888L339.951 31.5085L339.97 31.5281L343.617 28.1084ZM345.931 53.5557V58.5557H350.931V53.5557H345.931ZM337.011 53.5557H332.011V58.5557H337.011V53.5557ZM335.957 33.9176L332.296 37.3231L332.337 37.3672L332.379 37.4103L335.957 33.9176ZM330.482 34.0204L326.675 30.7798L326.669 30.787L330.482 34.0204ZM329.48 53.5557V58.5557H334.48V53.5557H329.48ZM320.997 53.5557H315.997V58.5557H320.997V53.5557ZM319.918 33.9176L316.299 37.368L316.34 37.411L316.382 37.4531L319.918 33.9176ZM314.494 33.9433L310.836 30.5347L314.494 33.9433ZM313.44 53.5557V58.5557H318.44V53.5557H313.44ZM304.547 53.5557H309.547V26.0264H304.547H299.547V53.5557H304.547ZM304.547 26.0264V31.0264H313.158V26.0264V21.0264H304.547V26.0264ZM313.158 26.0264H308.158V30.4989H313.158H318.158V26.0264H313.158ZM313.158 30.4989V35.4989H313.62V30.4989V25.4989H313.158V30.4989ZM313.62 30.4989L318.405 31.949C318.424 31.8885 318.471 31.7633 318.597 31.5714L314.417 28.8281L310.237 26.0849C309.643 26.9897 309.16 27.9784 308.835 29.0489L313.62 30.4989ZM314.417 28.8281L318.597 31.5714C318.658 31.479 318.795 31.3039 319.076 31.0644L315.831 27.2602L312.586 23.456C311.702 24.2103 310.896 25.0806 310.237 26.0849L314.417 28.8281ZM315.831 27.2602L319.021 31.1103C319.049 31.0869 319.208 30.9651 319.621 30.8303L318.067 26.0778L316.513 21.3253C315.144 21.7731 313.812 22.4396 312.641 23.4101L315.831 27.2602ZM318.067 26.0778L319.675 30.8122C319.997 30.7028 320.448 30.6151 321.075 30.6151V25.6151V20.6151C319.508 20.6151 317.954 20.8358 316.459 21.3434L318.067 26.0778ZM321.075 25.6151V30.6151C322.333 30.6151 322.868 30.8954 323.073 31.0424L325.984 26.9774L328.895 22.9125C326.564 21.243 323.826 20.6151 321.075 20.6151V25.6151ZM325.984 26.9774L323.135 31.0864C323.451 31.3057 323.622 31.5324 323.741 31.9539L328.554 30.6017L333.368 29.2496C332.63 26.6208 331.087 24.4314 328.833 22.8684L325.984 26.9774ZM328.554 30.6017V35.6017H328.914V30.6017V25.6017H328.554V30.6017ZM328.914 30.6017L333.645 32.2202C333.658 32.1837 333.785 31.8178 334.619 31.2391L331.768 27.1317L328.916 23.0242C326.837 24.4676 325.062 26.4151 324.184 28.9833L328.914 30.6017ZM331.768 27.1317L334.619 31.2391C335.058 30.9343 335.824 30.6151 337.243 30.6151V25.6151V20.6151C334.274 20.6151 331.39 21.307 328.916 23.0242L331.768 27.1317ZM337.243 25.6151V30.6151C338.882 30.6151 339.549 31.0701 339.933 31.4888L343.617 28.1084L347.301 24.7281C344.635 21.8224 341.053 20.6151 337.243 20.6151V25.6151ZM343.617 28.1084L339.97 31.5281C340.469 32.0607 340.931 32.9288 340.931 34.663H345.931H350.931C350.931 30.9479 349.85 27.4463 347.265 24.6887L343.617 28.1084ZM345.931 34.663H340.931V53.5557H345.931H350.931V34.663H345.931ZM345.931 53.5557V48.5557H337.011V53.5557V58.5557H345.931V53.5557ZM337.011 53.5557H342.011V37.4391H337.011H332.011V53.5557H337.011ZM337.011 37.4391H342.011C342.011 35.2763 341.574 32.5136 339.535 30.4249L335.957 33.9176L332.379 37.4103C332.056 37.0788 331.964 36.7916 331.958 36.7713C331.955 36.763 331.97 36.8094 331.984 36.9253C331.999 37.0408 332.011 37.2093 332.011 37.4391H337.011ZM335.957 33.9176L339.618 30.5121C337.896 28.6609 335.631 27.8123 333.284 27.8123V32.8123V37.8123C333.266 37.8123 333.102 37.8076 332.864 37.7093C332.617 37.6069 332.421 37.4572 332.296 37.3231L335.957 33.9176ZM333.284 32.8123V27.8123C330.83 27.8123 328.429 28.7183 326.675 30.7798L330.482 34.0204L334.29 37.261C334.156 37.4189 333.943 37.5908 333.677 37.7057C333.425 37.8142 333.264 37.8123 333.284 37.8123V32.8123ZM330.482 34.0204L326.669 30.787C324.914 32.856 324.48 35.4282 324.48 37.5933H329.48H334.48C334.48 37.3677 334.492 37.1952 334.507 37.0693C334.522 36.9432 334.539 36.8757 334.545 36.8555C334.555 36.818 334.509 37.0024 334.296 37.2538L330.482 34.0204ZM329.48 37.5933H324.48V53.5557H329.48H334.48V37.5933H329.48ZM329.48 53.5557V48.5557H320.997V53.5557V58.5557H329.48V53.5557ZM320.997 53.5557H325.997V37.5419H320.997H315.997V53.5557H320.997ZM320.997 37.5419H325.997C325.997 35.3553 325.571 32.4995 323.453 30.3821L319.918 33.9176L316.382 37.4531C316.031 37.1014 315.937 36.7958 315.936 36.7908C315.935 36.7889 315.952 36.8452 315.968 36.9759C315.984 37.1059 315.997 37.2918 315.997 37.5419H320.997ZM319.918 33.9176L323.537 30.4672C321.812 28.6588 319.565 27.8123 317.219 27.8123V32.8123V37.8123C317.2 37.8123 317.045 37.8073 316.821 37.7157C316.589 37.6207 316.41 37.4841 316.299 37.368L319.918 33.9176ZM317.219 32.8123V27.8123C314.843 27.8123 312.567 28.6776 310.836 30.5347L314.494 33.9433L318.152 37.3519C318.04 37.4722 317.857 37.6143 317.619 37.713C317.39 37.808 317.233 37.8123 317.219 37.8123V32.8123ZM314.494 33.9433L310.836 30.5347C308.882 32.6321 308.44 35.3508 308.44 37.5419H313.44H318.44C318.44 37.3062 318.453 37.1296 318.469 37.0044C318.484 36.879 318.5 36.8199 318.502 36.8137C318.505 36.8045 318.433 37.0504 318.152 37.3519L314.494 33.9433ZM313.44 37.5419H308.44V53.5557H313.44H318.44V37.5419H313.44ZM313.44 53.5557V48.5557H304.547V53.5557V58.5557H313.44V53.5557ZM350.789 18.4693V13.4693H345.421L345.801 18.8238L350.789 18.4693ZM360.428 18.4693L365.416 18.8156L365.787 13.4693H360.428V18.4693ZM359.348 34.0204V39.0204H364.013L364.336 34.3667L359.348 34.0204ZM351.894 34.0204L346.907 34.3749L347.237 39.0204H351.894V34.0204ZM350.789 18.4693V23.4693H360.428V18.4693V13.4693H350.789V18.4693ZM360.428 18.4693L355.44 18.123L354.36 33.6741L359.348 34.0204L364.336 34.3667L365.416 18.8156L360.428 18.4693ZM359.348 34.0204V29.0204H351.894V34.0204V39.0204H359.348V34.0204ZM351.894 34.0204L356.881 33.6659L355.776 18.1148L350.789 18.4693L345.801 18.8238L346.907 34.3749L351.894 34.0204ZM364.001 45.5359V40.5359H359.001V45.5359H364.001ZM372.637 45.5359L377.619 45.1119L377.23 40.5359H372.637V45.5359ZM379.063 47.6437L382.173 51.5592L382.18 51.5536L382.187 51.548L379.063 47.6437ZM379.192 44.3278L376.359 48.448L376.449 48.5099L376.542 48.5678L379.192 44.3278ZM378.369 43.8651L380.373 39.2844L378.369 43.8651ZM377.238 43.531L375.984 48.371L376.087 48.3977L376.191 48.42L377.238 43.531ZM376.005 43.2482L375.024 48.1511L375.047 48.1556L375.069 48.1599L376.005 43.2482ZM374.591 43.0169L373.722 47.9408L373.803 47.9551L373.884 47.9667L374.591 43.0169ZM373.203 42.7599L374.183 37.857L374.158 37.8519L374.132 37.847L373.203 42.7599ZM369.836 41.8088L367.895 46.417L367.93 46.4315L367.965 46.4456L369.836 41.8088ZM367.137 40.2408L364.033 44.1611L364.058 44.1812L364.084 44.2009L367.137 40.2408ZM365.235 37.7989L360.643 39.7781L360.664 39.8262L360.685 39.874L365.235 37.7989ZM368.165 27.5429L370.737 31.8304L370.761 31.8159L370.785 31.8012L368.165 27.5429ZM371.892 26.0264L373.047 30.8911L373.069 30.8859L373.09 30.8806L371.892 26.0264ZM384.538 27.7486L381.571 31.773L381.59 31.7871L381.61 31.8011L384.538 27.7486ZM387.597 34.0461V39.0461H392.597V34.0461H387.597ZM379.886 34.0461L374.928 34.6928L375.496 39.0461H379.886V34.0461ZM378.832 32.0412L375.35 35.6291L375.403 35.681L375.458 35.7313L378.832 32.0412ZM373.974 35.3313L371.401 39.6188L371.526 39.6933L371.654 39.7605L373.974 35.3313ZM374.976 35.8454L372.74 40.3175L372.886 40.3904L373.036 40.4536L374.976 35.8454ZM376.313 36.231L375.276 41.1221L375.347 41.1373L375.419 41.1503L376.313 36.231ZM377.65 36.488L376.62 41.3808L376.763 41.411L376.908 41.4327L377.65 36.488ZM379.115 36.7194L378.314 41.6549L378.38 41.6655L378.445 41.6743L379.115 36.7194ZM380.4 36.8993L381.201 31.9639L381.181 31.9606L381.16 31.9574L380.4 36.8993ZM386.441 39.444L383.068 43.1355L383.092 43.1572L383.116 43.1785L386.441 39.444ZM385.284 51.6021L388.299 55.5908L388.309 55.5833L388.319 55.5757L385.284 51.6021ZM364.001 45.5359V50.5359H372.637V45.5359V40.5359H364.001V45.5359ZM372.637 45.5359L367.655 45.9599C367.852 48.2677 369.006 50.1755 370.705 51.4929L373.768 47.5409L376.831 43.5888C376.946 43.6778 377.148 43.8685 377.326 44.1846C377.509 44.5084 377.596 44.839 377.619 45.1119L372.637 45.5359ZM373.768 47.5409L370.705 51.4929C372.464 52.8557 374.505 53.3377 376.416 53.3377V48.3377V43.3377C376.283 43.3377 376.287 43.3211 376.385 43.3506C376.494 43.3834 376.659 43.4556 376.831 43.5888L373.768 47.5409ZM376.416 48.3377V53.3377C378.105 53.3377 380.318 53.0321 382.173 51.5592L379.063 47.6437L375.954 43.7281C376.314 43.442 376.615 43.349 376.697 43.3276C376.77 43.3083 376.698 43.3377 376.416 43.3377V48.3377ZM379.063 47.6437L382.187 51.548C383.978 50.1149 384.963 48.0503 384.963 45.7673H379.963H374.963C374.963 45.489 375.021 45.0872 375.23 44.6531C375.438 44.2183 375.717 43.9179 375.94 43.7393L379.063 47.6437ZM379.963 45.7673H384.963C384.963 44.7993 384.771 43.7402 384.255 42.7087L379.783 44.9447L375.311 47.1808C375.035 46.6291 374.963 46.1183 374.963 45.7673H379.963ZM379.783 44.9447L384.255 42.7087C383.647 41.4911 382.735 40.6462 381.842 40.0878L379.192 44.3278L376.542 48.5678C376.197 48.3522 375.68 47.9185 375.311 47.1808L379.783 44.9447ZM379.192 44.3278L382.025 40.2076C381.518 39.8593 380.968 39.5444 380.373 39.2844L378.369 43.8651L376.365 48.4459C376.319 48.4258 376.318 48.4193 376.359 48.448L379.192 44.3278ZM378.369 43.8651L380.373 39.2844C379.66 38.9721 378.914 38.7766 378.286 38.642L377.238 43.531L376.191 48.42C376.335 48.451 376.423 48.4745 376.464 48.4867C376.484 48.4924 376.485 48.4933 376.471 48.4883C376.457 48.4835 376.42 48.47 376.365 48.4459L378.369 43.8651ZM377.238 43.531L378.493 38.691C377.955 38.5514 377.434 38.4306 376.94 38.3366L376.005 43.2482L375.069 48.1599C375.295 48.203 375.597 48.2707 375.984 48.371L377.238 43.531ZM376.005 43.2482L376.985 38.3453C376.51 38.2502 375.934 38.158 375.298 38.0672L374.591 43.0169L373.884 47.9667C374.448 48.0472 374.814 48.1092 375.024 48.1511L376.005 43.2482ZM374.591 43.0169L375.46 38.093C374.893 37.9929 374.472 37.9147 374.183 37.857L373.203 42.7599L372.222 47.6628C372.619 47.7421 373.124 47.8352 373.722 47.9408L374.591 43.0169ZM373.203 42.7599L374.132 37.847C373.117 37.655 372.32 37.4198 371.707 37.1721L369.836 41.8088L367.965 46.4456C369.304 46.9861 370.752 47.3849 372.273 47.6727L373.203 42.7599ZM369.836 41.8088L371.776 37.2006C371.188 36.9531 370.663 36.6464 370.189 36.2808L367.137 40.2408L364.084 44.2009C365.255 45.1034 366.53 45.842 367.895 46.417L369.836 41.8088ZM367.137 40.2408L370.24 36.3206C370.054 36.173 369.908 35.9972 369.784 35.7239L365.235 37.7989L360.685 39.874C361.452 41.5542 362.574 43.0063 364.033 44.1611L367.137 40.2408ZM365.235 37.7989L369.826 35.8198C369.713 35.5567 369.592 35.1104 369.592 34.3803H364.592H359.592C359.592 36.2206 359.899 38.0533 360.643 39.7781L365.235 37.7989ZM364.592 34.3803H369.592C369.592 33.5089 369.765 32.996 369.935 32.683L365.543 30.2933L361.151 27.9036C360.053 29.9211 359.592 32.1329 359.592 34.3803H364.592ZM365.543 30.2933L369.935 32.683C370.152 32.2838 370.405 32.0296 370.737 31.8304L368.165 27.5429L365.592 23.2555C363.697 24.3929 362.202 25.9722 361.151 27.9036L365.543 30.2933ZM368.165 27.5429L370.785 31.8012C371.412 31.4153 372.154 31.1032 373.047 30.8911L371.892 26.0264L370.737 21.1617C368.888 21.6007 367.145 22.2996 365.544 23.2846L368.165 27.5429ZM371.892 26.0264L373.09 30.8806C374.033 30.6479 375.141 30.5123 376.442 30.5123V25.5123V20.5123C374.452 20.5123 372.527 20.7194 370.693 21.1722L371.892 26.0264ZM376.442 25.5123V30.5123C379.112 30.5123 380.661 31.1017 381.571 31.773L384.538 27.7486L387.506 23.7241C384.372 21.4137 380.522 20.5123 376.442 20.5123V25.5123ZM384.538 27.7486L381.61 31.8011C382.227 32.2472 382.597 32.7711 382.597 34.0461H387.597H392.597C392.597 29.8718 390.928 26.1973 387.467 23.6961L384.538 27.7486ZM387.597 34.0461V29.0461H379.886V34.0461V39.0461H387.597V34.0461ZM379.886 34.0461L384.844 33.3994C384.585 31.4134 383.655 29.6759 382.206 28.351L378.832 32.0412L375.458 35.7313C375.364 35.6451 375.233 35.4957 375.12 35.2801C375.005 35.063 374.949 34.8543 374.928 34.6928L379.886 34.0461ZM378.832 32.0412L382.314 28.4533C380.524 26.7155 378.277 26.1929 376.339 26.1929V31.1929V36.1929C376.452 36.1929 376.368 36.2088 376.161 36.1386C375.934 36.0611 375.632 35.9031 375.35 35.6291L378.832 32.0412ZM376.339 31.1929V26.1929C374.619 26.1929 372.538 26.5608 370.762 27.9714L373.871 31.887L376.981 35.8025C376.681 36.0407 376.412 36.1421 376.279 36.1797C376.158 36.2137 376.159 36.1929 376.339 36.1929V31.1929ZM373.871 31.887L370.762 27.9714C368.966 29.3974 367.997 31.4567 367.997 33.712H372.997H377.997C377.997 33.9936 377.939 34.404 377.725 34.8497C377.511 35.2975 377.221 35.6115 376.981 35.8025L373.871 31.887ZM372.997 33.712H367.997C367.997 34.8649 368.28 36.0135 368.871 37.0629L373.229 34.6116L377.586 32.1603C377.868 32.6614 377.997 33.2102 377.997 33.712H372.997ZM373.229 34.6116L368.871 37.0629C369.551 38.2721 370.512 39.0851 371.401 39.6188L373.974 35.3313L376.546 31.0439C376.75 31.1663 377.215 31.4994 377.586 32.1603L373.229 34.6116ZM373.974 35.3313L371.654 39.7605C372.037 39.9611 372.399 40.1471 372.74 40.3175L374.976 35.8454L377.212 31.3733C376.937 31.2353 376.631 31.0786 376.294 30.9022L373.974 35.3313ZM374.976 35.8454L373.036 40.4536C373.777 40.7657 374.569 40.9723 375.276 41.1221L376.313 36.231L377.351 31.3398C377.158 31.2989 377.024 31.2647 376.941 31.2405C376.852 31.2149 376.853 31.2104 376.917 31.2372L374.976 35.8454ZM376.313 36.231L375.419 41.1503C375.966 41.2499 376.36 41.3261 376.62 41.3808L377.65 36.488L378.68 31.5953C378.288 31.5128 377.791 31.4177 377.207 31.3116L376.313 36.231ZM377.65 36.488L376.908 41.4327C377.221 41.4797 377.687 41.5531 378.314 41.6549L379.115 36.7194L379.915 31.7838C379.275 31.68 378.764 31.5992 378.391 31.5433L377.65 36.488ZM379.115 36.7194L378.445 41.6743C379.085 41.7608 379.469 41.8149 379.64 41.8411L380.4 36.8993L381.16 31.9574C380.885 31.9151 380.413 31.8493 379.784 31.7644L379.115 36.7194ZM380.4 36.8993L379.599 41.8347C381.665 42.1701 382.641 42.7454 383.068 43.1355L386.441 39.444L389.813 35.7526C387.464 33.6065 384.413 32.4853 381.201 31.9639L380.4 36.8993ZM386.441 39.444L383.116 43.1785C383.224 43.2752 383.548 43.554 383.548 44.7648H388.548H393.548C393.548 41.3831 392.467 38.1147 389.765 35.7095L386.441 39.444ZM388.548 44.7648H383.548C383.548 46.2067 383.106 46.9738 382.249 47.6286L385.284 51.6021L388.319 55.5757C391.814 52.906 393.548 49.1149 393.548 44.7648H388.548ZM385.284 51.6021L382.269 47.6135C381.287 48.3556 379.414 49.0697 375.979 49.0697V54.0697V59.0697C380.598 59.0697 384.928 58.1388 388.299 55.5908L385.284 51.6021ZM375.979 54.0697V49.0697C372.787 49.0697 371.056 48.3982 370.147 47.7128L367.137 51.705L364.126 55.6971C367.398 58.1648 371.562 59.0697 375.979 59.0697V54.0697ZM367.137 51.705L370.147 47.7128C369.262 47.0451 369.001 46.4441 369.001 45.5359H364.001H359.001C359.001 49.7 360.83 53.2117 364.126 55.6971L367.137 51.705Z" fill="black" mask="url(#path-22-outside-1_1504_4963)"/>
<path d="M795.415 14.9941V51.1758C795.415 53.938 796.14 55.6101 797.198 56.6357C798.373 57.7458 800.043 58.418 802.493 58.418C804.945 58.418 806.591 57.7457 807.73 56.6504V56.6494C808.836 55.5876 809.57 53.9032 809.57 51.1758V14.9941H829.921V53.0049C829.921 59.7217 827.349 65.2419 822.221 69.3174C817.175 73.3499 810.508 75.2285 802.493 75.2285C794.5 75.2285 787.836 73.3467 782.766 69.3174L782.76 69.3125L782.753 69.3066C777.66 65.2038 775.108 59.6754 775.108 52.9648V14.9941H795.415Z" fill="white" stroke="black" stroke-width="5"/>
<path d="M739.402 14.9941V33.9912L754.749 15.8779L755.498 14.9941H778.291L774.813 19.1084L756.065 41.2852L775.662 70.377L778.287 74.2744H754.275L753.536 73.1396L741.422 54.5596L739.402 56.8213V74.2744H719.053V14.9941H739.402Z" fill="white" stroke="black" stroke-width="5"/>
<path d="M679.286 14.9941V51.1758C679.286 53.938 680.012 55.6101 681.069 56.6357C682.244 57.7458 683.914 58.418 686.364 58.418C688.816 58.418 690.462 57.7457 691.602 56.6504V56.6494C692.707 55.5876 693.441 53.9032 693.441 51.1758V14.9941H713.792V53.0049C713.792 59.7217 711.22 65.2419 706.092 69.3174C701.046 73.3499 694.379 75.2285 686.364 75.2285C678.372 75.2285 671.707 73.3467 666.637 69.3174L666.631 69.3125L666.624 69.3066C661.531 65.2038 658.979 59.6754 658.979 52.9648V14.9941H679.286Z" fill="white" stroke="black" stroke-width="5"/>
<path d="M654.272 14.9941V53.0449C654.272 60.0277 652.174 65.7083 647.639 69.6455L647.631 69.6523C643.192 73.4744 637.196 75.2285 629.966 75.2285C626.104 75.2285 622.577 74.6624 619.424 73.4775L619.414 73.4746L619.404 73.4707C616.308 72.2779 613.711 70.6439 611.719 68.5088L611.707 68.4951C609.821 66.4439 608.381 64.1483 607.408 61.6152L607.404 61.6064C606.436 59.0541 605.959 56.3524 605.959 53.5215V51.0215H625.591L625.624 53.4873C625.645 55.0381 626.083 56.0117 626.727 56.6787C627.407 57.3314 628.348 57.7422 629.795 57.7422C631.559 57.7422 632.44 57.2703 632.922 56.7441C633.442 56.1763 633.922 55.0835 633.922 53.0049V14.9941H654.272Z" fill="white" stroke="black" stroke-width="5"/>
<path d="M566.156 14.9941L566.905 16.0137L585.267 40.9873V14.9941H604.419V74.2744H588.848L588.099 73.2471L569.7 48.0215V74.2744H550.505V14.9941H566.156Z" fill="white" stroke="black" stroke-width="5"/>
<path d="M544.601 14.9941V74.2744H524.251V14.9941H544.601Z" fill="white" stroke="black" stroke-width="5"/>
<path d="M483.029 14.9941V36.1494H498.04V14.9941H518.347V74.2744H498.04V52.6016H483.029V74.2744H462.68V14.9941H483.029Z" fill="white" stroke="black" stroke-width="5"/>
<path d="M432.984 13.999C436.81 13.9991 440.34 14.475 443.552 15.4609C446.719 16.4332 449.437 17.7854 451.626 19.5742C453.755 21.3145 455.438 23.3571 456.633 25.7031C457.84 28.0724 458.444 30.6094 458.444 33.2803V35.7803H439.545L439.424 33.4082C439.383 32.6013 439.018 31.7844 437.905 30.9189L437.887 30.9043L437.867 30.8887C436.92 30.1223 435.4 29.5762 432.984 29.5762C430.7 29.5762 429.311 30.0321 428.503 30.6152L428.497 30.6191C427.765 31.144 427.488 31.7096 427.488 32.5244C427.488 32.7951 427.552 33.1595 428.312 33.667C429.066 34.1709 430.333 34.6728 432.272 35.0674L433.146 35.2295L433.159 35.2314L441.326 36.6631H441.325C446.98 37.614 451.556 39.5291 454.735 42.6504C457.979 45.8347 459.514 50.0247 459.514 54.9521C459.514 61.1486 457.039 66.2139 452.155 69.9053C447.34 73.5667 440.724 75.2275 432.642 75.2275C428.982 75.2275 425.622 74.8818 422.578 74.167L422.564 74.1641L422.551 74.1602C419.596 73.4311 417.053 72.4616 414.999 71.1982L414.976 71.1846C412.989 69.933 411.289 68.4351 409.902 66.6846L409.894 66.6729L409.885 66.6621C408.568 64.9599 407.585 63.1761 406.997 61.3105L406.994 61.2988C406.437 59.5005 406.145 57.6347 406.112 55.71L406.07 53.168H425.449L425.602 55.5059C425.656 56.3434 426.065 57.2118 427.339 58.126C428.544 58.9708 430.382 59.5303 433.112 59.5303C435.828 59.5303 437.435 59.0386 438.31 58.4287C439.186 57.8174 439.463 57.2007 439.463 56.4238C439.463 55.804 439.274 55.4182 438.623 55.0273L438.604 55.0156C437.665 54.4398 435.882 53.8158 432.995 53.2734V53.2744L425.136 51.8037C419.578 50.7838 415.083 48.8433 411.963 45.7529C408.782 42.6023 407.267 38.4935 407.267 33.6777C407.267 29.6022 408.415 25.9654 410.777 22.8896C413.09 19.8522 416.227 17.6196 420.079 16.1514C423.895 14.6968 428.212 13.999 432.984 13.999Z" fill="white" stroke="black" stroke-width="5"/>
</g>
<defs>
<filter id="filter0_d_1504_4963" x="0.101171" y="0.899023" width="1066.57" height="290.862" filterUnits="userSpaceOnUse" color-interpolation-filters="sRGB">
<feFlood flood-opacity="0" result="BackgroundImageFix"/>
<feColorMatrix in="SourceAlpha" type="matrix" values="0 0 0 0 0 0 0 0 0 0 0 0 0 0 0 0 0 0 127 0" result="hardAlpha"/>
<feOffset dy="4"/>
<feGaussianBlur stdDeviation="7.3"/>
<feComposite in2="hardAlpha" operator="out"/>
<feColorMatrix type="matrix" values="0 0 0 0 0 0 0 0 0 0 0 0 0 0 0 0 0 0 0.25 0"/>
<feBlend mode="normal" in2="BackgroundImageFix" result="effect1_dropShadow_1504_4963"/>
<feBlend mode="normal" in="SourceGraphic" in2="effect1_dropShadow_1504_4963" result="shape"/>
</filter>
</defs>
</svg>
