<svg width="1074" height="292" viewBox="0 0 1074 292" fill="none" xmlns="http://www.w3.org/2000/svg">
<g filter="url(#filter0_d_1504_4963)">
<path d="M178.23 76.2432C179.766 74.9137 181.803 74.3171 183.813 74.6074L200.676 77.042L200.992 77.0947C201.695 77.229 202.356 77.4687 202.963 77.792C203.962 77.4727 205.031 77.376 206.093 77.5293L222.955 79.9639L223.272 80.0166C226.522 80.6377 228.911 83.4652 228.954 86.8027C229.084 96.9076 227.917 106.799 225.31 116.576C224.817 118.422 223.622 119.911 222.076 120.814V163.35C222.076 167.216 218.942 170.349 215.076 170.35H203.434C202.5 181.903 200.098 192.289 196.103 201.405C191.423 212.082 184.977 221.353 176.735 228.992C168.679 236.459 159.344 242.65 148.832 247.452C138.528 252.159 127.369 255.959 115.43 258.738C103.682 261.473 91.5155 263.646 78.873 265.257C75.8983 265.636 73.0125 264.078 71.6973 261.383C68.1144 254.041 63.7378 246.286 58.6064 238.111C53.7457 230.368 47.4839 222.947 39.5879 215.857C37.4479 213.936 36.7006 210.901 37.7041 208.206C38.7076 205.511 41.2574 203.703 44.1328 203.649C45.6305 203.621 47.1083 203.586 48.5664 203.546C45.2607 202.986 42.7422 200.112 42.7422 196.647V170.35H29.1064C25.2405 170.35 22.1065 167.216 22.1064 163.35V120.19C22.1064 116.324 25.2405 113.19 29.1064 113.19H42.7422V102.78C42.7422 98.9144 45.8764 95.7805 49.7422 95.7803H101.851C105.717 95.7803 108.851 98.9143 108.851 102.78V113.19H131.99C131.354 110.474 130.664 107.541 129.919 104.391C129.427 102.308 129.915 100.115 131.242 98.4365C132.57 96.7587 134.592 95.7803 136.731 95.7803H174.871C175.496 91.1799 175.812 86.44 175.812 81.5352C175.812 79.5041 176.695 77.5728 178.23 76.2432ZM108.851 195.596C116.923 192.846 122.918 189.386 127.153 185.37C131.293 181.403 134.309 176.468 136.073 170.35H108.851V195.596Z" fill="white" stroke="black" stroke-width="14" stroke-linejoin="round"/>
<path d="M289.098 98.0244C291.042 95.5537 294.413 94.6739 297.33 95.9111L347.855 117.339C349.847 118.183 351.336 119.901 351.89 121.992C352.443 124.083 351.999 126.313 350.686 128.032C344.674 135.903 338.736 143.034 332.812 149.335C326.793 155.738 320.256 161.508 313.202 166.638C307.211 170.995 300.617 175.085 293.44 178.956V254.723C293.44 258.588 290.306 261.722 286.44 261.723H230.802C226.936 261.723 223.802 258.589 223.802 254.723V200.471C215.428 201.796 206.748 202.953 197.74 203.97C185.75 205.322 173.152 206.429 160.129 207.228C156.363 207.458 153.091 204.662 152.732 200.906C151.957 192.796 150.882 184.671 149.565 176.591C148.331 169.018 145.892 160.84 142.216 151.97C141.321 149.81 141.564 147.345 142.862 145.4C144.161 143.456 146.345 142.289 148.683 142.289C161.01 142.289 173.027 142.047 184.674 141.564C196.221 141.086 207.002 140.131 216.967 138.707C226.827 137.298 235.142 135.271 242.046 132.688C249.241 129.967 257.287 125.875 266.083 120.444C274.219 115.421 281.853 108.085 288.914 98.2676L289.098 98.0244Z" fill="white" stroke="black" stroke-width="14" stroke-linejoin="round"/>
<path d="M475.513 100.829L475.823 100.836C479.022 100.977 481.737 103.281 482.375 106.446C483.97 114.362 485.265 121.389 486.256 127.459C486.26 127.482 486.263 127.505 486.267 127.528C487.19 133.558 487.94 139.111 488.444 144.213C488.955 149.379 489.209 154.663 489.209 159.938C489.209 178.494 485.971 194.527 479.111 207.776C479.109 207.781 479.107 207.785 479.104 207.789C472.282 220.899 462.246 231.501 449.227 239.498C449.222 239.501 449.217 239.504 449.213 239.507C436.367 247.357 420.883 253.261 402.786 257.284L402.787 257.285C384.86 261.331 364.499 264.231 341.687 266.137C340.407 266.244 339.121 265.997 337.973 265.423L337.851 265.361C336.235 264.554 334.994 263.152 334.388 261.451C331.64 253.747 328.585 246.015 325.332 238.245H325.331C322.121 230.783 317.886 222.479 312.536 213.325C311.263 211.146 311.261 208.449 312.531 206.269C313.011 205.445 313.645 204.744 314.383 204.191H313.71C309.844 204.191 306.71 201.057 306.71 197.191V108.377C306.71 104.511 309.844 101.377 313.71 101.377H369.227C373.093 101.377 376.227 104.511 376.227 108.377V197.191C376.227 198.317 375.959 199.379 375.487 200.321C382.976 199.293 389.239 197.99 394.375 196.407C401.87 194.097 407.091 191.323 410.565 188.34C414.055 185.23 416.355 181.722 417.648 177.772C419.042 173.26 419.813 168.025 419.813 161.946C419.813 158.562 419.116 152.376 417.592 143.047L417.591 143.04C416.137 134.084 413.429 123.084 409.456 109.841C408.82 107.721 409.224 105.426 410.545 103.65C411.866 101.875 413.948 100.829 416.16 100.829H475.513Z" fill="white" stroke="black" stroke-width="14" stroke-linejoin="round"/>
<path d="M528.109 164.508L528.471 164.518C530.275 164.611 531.98 165.399 533.221 166.726C534.544 168.14 535.222 170.04 535.094 171.973L532.241 214.851H542.354C546.219 214.851 549.354 217.985 549.354 221.851V248.695C549.354 252.561 546.219 255.695 542.354 255.695H436.372C432.506 255.695 429.372 252.561 429.372 248.695V221.851C429.372 217.985 432.506 214.851 436.372 214.851H485.023L485.639 205.354H446.478C442.612 205.354 439.478 202.219 439.478 198.354V171.508C439.478 167.642 442.612 164.508 446.478 164.508H528.109Z" fill="white" stroke="black" stroke-width="14" stroke-linejoin="round"/>
<path d="M622.95 95.9609C626.816 95.961 629.95 99.095 629.95 102.961V109.779H668.058L668.472 109.792C670.535 109.914 672.448 110.943 673.686 112.616L696.513 143.479C697.695 145.077 698.142 147.103 697.742 149.05C694.285 165.895 689.153 180.806 682.198 193.75C675.318 206.554 667.206 217.414 657.75 226.283L657.745 226.287C650.47 233.1 641.61 239.059 631.285 244.285C631.275 244.29 631.265 244.296 631.255 244.301C620.713 249.572 607.698 253.81 592.544 257.115L592.538 257.116C577.185 260.451 558.572 262.613 536.66 263.659C533.539 263.808 530.698 261.871 529.696 258.911C527.128 251.323 523.904 243.639 520.012 235.795C516.182 228.078 511.459 220.312 505.759 212.438C504.217 210.308 503.999 207.493 505.195 205.15C506.391 202.808 508.8 201.334 511.43 201.334C534.333 201.334 554.084 200.127 570.664 197.81L570.668 197.809C587.297 195.492 598.584 191.619 605.388 186.796C610.097 183.445 614.26 179.101 617.908 173.601C619.754 170.818 621.408 167.971 622.88 165.052H563.11V189.073C563.289 190.015 563.276 191.004 563.045 191.983C562.299 195.143 559.479 197.376 556.232 197.376H503.516C499.65 197.376 496.516 194.242 496.516 190.376V116.779C496.516 112.913 499.65 109.779 503.516 109.779H558.241V102.961C558.241 99.0951 561.375 95.9612 565.241 95.9609H622.95Z" fill="white" stroke="black" stroke-width="14" stroke-linejoin="round"/>
<path d="M888.685 104.181C892.551 104.181 895.685 107.315 895.685 111.181V253.077C895.685 256.943 892.551 260.077 888.685 260.077H836.577C832.711 260.077 829.577 256.943 829.577 253.077V251.251H773.39V253.077C773.39 256.943 770.255 260.077 766.39 260.077H714.281C710.415 260.077 707.281 256.943 707.281 253.077V111.181C707.281 107.315 710.415 104.181 714.281 104.181H888.685ZM773.39 196.404H829.577V158.905H773.39V196.404Z" fill="white" stroke="black" stroke-width="14" stroke-linejoin="round"/>
<path d="M1026.37 69.3965C1029.23 68.7779 1032.2 70.014 1033.77 72.5137C1036.63 77.0665 1039.1 81.7455 1041.18 86.4229C1043.23 91.0509 1044.97 95.6827 1046.39 100.194C1047.17 102.682 1046.51 105.397 1044.66 107.241L1044.6 107.303C1043.73 108.174 1042.65 108.801 1041.45 109.118L1028.25 112.64L1051.17 153.275C1052.25 155.206 1052.36 157.539 1051.46 159.563C1046.09 171.611 1040.08 182.823 1033.43 193.188C1033.42 193.196 1033.42 193.204 1033.41 193.212C1026.56 203.772 1018.44 213.305 1008.98 221.864C999.37 230.567 987.746 237.984 974.288 244.244L974.289 244.245C966.528 247.925 954.849 251.468 939.74 255.077C939.731 255.079 939.722 255.081 939.713 255.083C924.302 258.702 905.908 261.604 884.578 263.756C881.314 264.085 878.259 262.104 877.229 258.989C874.825 251.721 871.486 244.165 867.072 236.382C862.719 228.707 856.985 220.749 849.746 212.45C847.956 210.399 847.518 207.495 848.624 205.007C849.729 202.519 852.176 200.897 854.898 200.85C855.934 200.831 856.959 200.807 857.973 200.781C856.859 199.719 855.726 198.646 854.569 197.566C849.389 192.736 843.868 188.262 838.006 184.199C836.063 182.852 834.931 180.616 834.997 178.252C835.062 175.888 836.317 173.717 838.333 172.48C851.661 164.3 861.627 154.375 868.526 142.637C875.472 130.818 879.648 117.074 880.915 101.13L880.95 100.792C881.394 97.3184 884.355 94.6848 887.892 94.6846H940.183C942.29 94.6846 944.285 95.6339 945.614 97.2686C946.943 98.9033 947.465 101.05 947.036 103.112C946.727 104.593 946.41 106.068 946.092 107.529H992.73C992.03 105.701 991.275 103.867 990.459 102.031H990.458C988.615 97.9432 986.466 93.7572 984.057 89.4678C982.993 87.5735 982.869 85.2924 983.721 83.2939C984.573 81.2956 986.305 79.8064 988.409 79.2627L1004.66 75.0625L1004.94 74.9971C1005.73 74.8257 1006.53 74.7978 1007.31 74.8984C1008.05 74.3271 1008.91 73.9022 1009.84 73.6621L1026.09 69.4619L1026.37 69.3965ZM927.324 166.88C923.325 175.642 919.03 183.482 914.503 190.382C913.064 192.575 911.602 194.679 910.122 196.697C914.76 195.995 919.084 195.205 923.085 194.318C931.707 192.409 939.182 189.84 945.514 186.674L945.575 186.644C952.561 183.234 958.434 179.096 963.263 174.321C965.53 172.08 967.698 169.603 969.778 166.88H927.324Z" fill="white" stroke="black" stroke-width="14" stroke-linejoin="round"/>
<path d="M179.867 78.1338C180.854 77.279 182.164 76.8944 183.456 77.0811L200.318 79.5166L200.521 79.5508C201.359 79.7107 202.106 80.0993 202.704 80.6445C203.601 80.0826 204.674 79.8498 205.735 80.0029L222.598 82.4385L222.802 82.4727C224.891 82.8719 226.426 84.6886 226.454 86.834C226.581 96.7216 225.439 106.385 222.894 115.932C222.443 117.622 221.077 118.847 219.446 119.181C219.53 119.524 219.576 119.882 219.576 120.251V163.35C219.576 165.835 217.561 167.849 215.076 167.85H201.105C200.333 180.116 197.936 190.994 193.813 200.401C189.262 210.787 183.008 219.769 175.036 227.158C167.183 234.437 158.073 240.483 147.793 245.179C137.647 249.813 126.648 253.56 114.863 256.304C103.202 259.019 91.119 261.175 78.5566 262.776C76.6444 263.02 74.7898 262.019 73.9443 260.286C70.3149 252.849 65.8921 245.016 60.7236 236.782C55.7292 228.826 49.3124 221.229 41.2578 213.997C39.8821 212.762 39.4018 210.811 40.0469 209.078C40.692 207.346 42.3313 206.184 44.1797 206.149C66.2469 205.735 84.1303 204.047 97.9189 201.147H49.7422C47.2571 201.147 45.2422 199.133 45.2422 196.647V167.85H29.1064C26.6212 167.85 24.6065 165.835 24.6064 163.35V120.19C24.6064 117.705 26.6212 115.69 29.1064 115.69H45.2422V102.78C45.2422 100.295 47.2571 98.2805 49.7422 98.2803H101.851C104.336 98.2803 106.351 100.295 106.351 102.78V115.69H135.137C134.944 114.851 134.746 113.994 134.541 113.119C133.872 110.262 133.142 107.161 132.352 103.815C132.035 102.477 132.349 101.067 133.202 99.9883C134.056 98.9095 135.356 98.2803 136.731 98.2803H177.031C177.884 92.8874 178.312 87.3179 178.312 81.5352C178.312 80.2295 178.88 78.9885 179.867 78.1338ZM106.351 196.647C106.351 197.622 106.039 198.524 105.513 199.261C115.908 196.268 123.584 192.2 128.871 187.188C134.081 182.2 137.591 175.829 139.265 167.85H106.351V196.647ZM198.508 115.751H198.57C198.562 115.744 198.552 115.737 198.544 115.729C198.532 115.737 198.52 115.744 198.508 115.751Z" fill="white" stroke="white" stroke-width="9" stroke-linejoin="round"/>
<path d="M291.062 99.5713C292.312 97.9832 294.479 97.4175 296.354 98.2129L346.879 119.641C348.159 120.184 349.117 121.288 349.473 122.632C349.828 123.976 349.542 125.41 348.698 126.515C342.725 134.336 336.842 141.398 330.991 147.623C325.078 153.914 318.657 159.579 311.731 164.616C305.481 169.162 298.546 173.424 290.94 177.458V254.723C290.94 257.208 288.926 259.222 286.44 259.223H230.802C228.316 259.223 226.302 257.208 226.302 254.723V197.534C217.082 199.05 207.479 200.356 197.46 201.486C185.513 202.834 172.958 203.936 159.977 204.732C157.556 204.881 155.453 203.083 155.222 200.669C154.441 192.498 153.358 184.318 152.033 176.188C150.762 168.386 148.259 160.019 144.525 151.012C143.95 149.623 144.106 148.039 144.94 146.789C145.775 145.539 147.18 144.789 148.683 144.789C161.042 144.789 173.094 144.547 184.777 144.062C196.396 143.581 207.262 142.618 217.32 141.182C227.305 139.755 235.798 137.693 242.907 135.035L244.302 134.496C251.325 131.716 259.053 127.723 267.396 122.571C275.866 117.342 283.731 109.756 290.944 99.7275L291.062 99.5713Z" fill="white" stroke="white" stroke-width="9" stroke-linejoin="round"/>
<path d="M475.513 103.329L475.713 103.334C477.769 103.425 479.514 104.906 479.924 106.94C481.316 113.847 482.477 120.066 483.405 125.555L483.789 127.862L483.796 127.906C484.715 133.913 485.458 139.418 485.956 144.459C486.458 149.541 486.709 154.742 486.709 159.938C486.709 178.215 483.518 193.827 476.891 206.627L476.887 206.635C470.283 219.324 460.571 229.597 447.918 237.368L447.909 237.373C435.343 245.052 420.124 250.872 402.223 254.85L402.222 254.849C384.439 258.861 364.202 261.747 341.478 263.646C340.655 263.714 339.829 263.556 339.091 263.187L338.969 263.125C337.931 262.606 337.133 261.706 336.743 260.612C333.982 252.868 330.914 245.106 327.655 237.319L327.031 235.886C323.853 228.673 319.762 220.734 314.694 212.063C313.876 210.663 313.875 208.929 314.691 207.527C315.508 206.125 317.017 205.272 318.64 205.293C335.848 205.52 350.48 205.16 362.511 204.226L364.882 204.031C377.441 202.889 387.438 201.161 395.111 198.796C402.834 196.415 408.413 193.496 412.233 190.203C416.028 186.819 418.587 182.944 420.025 178.548C421.511 173.753 422.313 168.252 422.313 161.946C422.313 158.336 421.583 151.968 420.06 142.645L420.059 142.64C418.58 133.534 415.84 122.419 411.851 109.122C411.442 107.76 411.701 106.284 412.55 105.143C413.399 104.001 414.738 103.329 416.16 103.329H475.513ZM369.227 103.877C371.712 103.877 373.727 105.892 373.727 108.377V197.191C373.727 199.677 371.712 201.691 369.227 201.691H313.71C311.225 201.691 309.21 199.677 309.21 197.191V108.377C309.21 105.892 311.225 103.877 313.71 103.877H369.227Z" fill="white" stroke="white" stroke-width="9" stroke-linejoin="round"/>
<path d="M528.109 167.008C529.355 167.008 530.544 167.524 531.395 168.434C532.245 169.343 532.681 170.564 532.599 171.807L529.57 217.351H542.354C544.839 217.351 546.854 219.365 546.854 221.851V248.695C546.854 251.181 544.839 253.195 542.354 253.195H436.372C433.887 253.195 431.872 251.181 431.872 248.695V221.851C431.872 219.365 433.887 217.351 436.372 217.351H487.366L488.306 202.854H446.478C443.992 202.854 441.978 200.839 441.978 198.354V171.508C441.978 169.023 443.992 167.008 446.478 167.008H528.109Z" fill="white" stroke="white" stroke-width="9" stroke-linejoin="round"/>
<path d="M622.95 98.4609C625.435 98.461 627.45 100.476 627.45 102.961V112.279H668.058L668.324 112.287C669.65 112.366 670.88 113.028 671.676 114.104L694.503 144.967C695.263 145.994 695.55 147.295 695.293 148.547C691.875 165.203 686.815 179.876 679.996 192.566C673.225 205.168 665.271 215.801 656.039 224.46L656.036 224.463C648.968 231.082 640.316 236.912 630.156 242.055C630.15 242.058 630.143 242.061 630.137 242.064C619.838 247.214 607.035 251.395 592.011 254.672L592.008 254.673C576.833 257.969 558.367 260.12 536.541 261.162C534.535 261.258 532.708 260.013 532.064 258.11C529.457 250.406 526.189 242.618 522.252 234.684C518.355 226.831 513.557 218.948 507.784 210.973C506.793 209.603 506.653 207.793 507.422 206.287C508.191 204.781 509.739 203.834 511.43 203.834C534.415 203.834 554.287 202.623 571.011 200.285H571.013C587.79 197.948 599.546 194.001 606.833 188.835C611.817 185.29 616.189 180.715 619.991 174.983C622.648 170.978 624.922 166.841 626.834 162.552H560.61V189.334C560.769 190 560.778 190.708 560.612 191.409C560.133 193.44 558.319 194.876 556.232 194.876H503.516C501.03 194.876 499.016 192.861 499.016 190.376V116.779C499.016 114.294 501.03 112.279 503.516 112.279H560.741V102.961C560.741 100.476 562.756 98.4612 565.241 98.4609H622.95Z" fill="white" stroke="white" stroke-width="9" stroke-linejoin="round"/>
<path d="M888.685 106.681C891.17 106.681 893.185 108.695 893.185 111.181V253.077C893.185 255.562 891.17 257.577 888.685 257.577H836.577C834.092 257.577 832.077 255.562 832.077 253.077V248.751H770.89V253.077C770.89 255.562 768.875 257.577 766.39 257.577H714.281C711.796 257.577 709.781 255.562 709.781 253.077V111.181C709.781 108.695 711.796 106.681 714.281 106.681H888.685ZM770.89 198.904H832.077V156.405H770.89V198.904Z" fill="white" stroke="white" stroke-width="9" stroke-linejoin="round"/>
<path d="M1026.72 71.8828C1028.61 71.3926 1030.61 72.1859 1031.65 73.8447C1034.45 78.2935 1036.86 82.8662 1038.89 87.4385C1040.91 91.979 1042.61 96.5221 1044 100.944C1044.51 102.543 1044.08 104.289 1042.9 105.475L1042.83 105.535C1042.27 106.095 1041.58 106.498 1040.81 106.702L1024.37 111.085C1024.34 111.095 1024.3 111.102 1024.27 111.11C1024.6 111.422 1024.89 111.785 1025.13 112.196L1048.99 154.504C1049.69 155.745 1049.76 157.244 1049.18 158.546C1043.86 170.487 1037.91 181.586 1031.32 191.836C1031.32 191.841 1031.32 191.847 1031.31 191.853C1024.58 202.228 1016.6 211.595 1007.3 220.011C997.906 228.519 986.499 235.809 973.216 241.985L973.217 241.986C965.707 245.547 954.241 249.043 939.159 252.646C939.153 252.647 939.148 252.648 939.142 252.649C923.865 256.237 905.583 259.124 884.327 261.269C882.229 261.48 880.264 260.206 879.602 258.204C877.144 250.77 873.737 243.065 869.247 235.148C864.796 227.302 858.957 219.207 851.629 210.807C850.479 209.488 850.197 207.621 850.908 206.021C851.618 204.422 853.192 203.38 854.942 203.35C858.045 203.295 861.051 203.2 863.95 203.083C861.5 200.679 858.947 198.231 856.274 195.738C851.009 190.828 845.394 186.278 839.43 182.145C838.181 181.279 837.453 179.841 837.496 178.321C837.538 176.802 838.345 175.406 839.64 174.611C853.274 166.244 863.55 156.037 870.681 143.903C877.842 131.718 882.114 117.6 883.407 101.328L883.429 101.11C883.715 98.8776 885.619 97.1848 887.892 97.1846H940.183C941.538 97.1846 942.82 97.7948 943.674 98.8457C944.529 99.8966 944.865 101.277 944.588 102.603C944.067 105.107 943.524 107.595 942.987 110.029H996.301C995.268 107.038 994.088 104.041 992.754 101.038L992.034 99.4668C990.32 95.7919 988.376 92.0514 986.237 88.2432C985.553 87.0255 985.473 85.559 986.021 84.2744C986.569 82.9898 987.683 82.032 989.035 81.6826L1005.29 77.4824C1006.23 77.2391 1007.2 77.3132 1008.06 77.6514C1008.66 76.8883 1009.5 76.3316 1010.46 76.083L1026.72 71.8828ZM925.708 164.38C921.569 173.634 917.111 181.849 912.414 189.011C909.809 192.982 907.141 196.649 904.412 200.018C911.44 199.118 917.854 198.037 923.626 196.759C932.408 194.814 940.083 192.184 946.632 188.909L946.671 188.891C953.88 185.373 959.981 181.082 965.021 176.099C968.456 172.702 971.657 168.808 974.655 164.38H925.708Z" fill="white" stroke="white" stroke-width="9" stroke-linejoin="round"/>
<path d="M29.1064 163.289V120.19H49.7427V102.78H101.851V120.19H140.749C140.201 117.633 139.592 114.955 138.923 112.094C138.253 109.233 137.523 106.128 136.731 102.78H180.804C182.143 95.9622 182.813 88.9009 182.813 81.5352L199.675 83.9701C199.797 93.4664 198.64 102.719 196.266 111.85L190.239 111.059C191.031 114.529 191.7 117.633 192.248 120.251H215.076V163.35H196.814C196.388 176.985 194.014 188.734 189.692 198.595C185.37 208.457 179.465 216.918 171.977 223.858C164.49 230.798 155.785 236.581 145.923 241.085C136.062 245.59 125.348 249.242 113.843 251.921C102.338 254.599 90.4064 256.73 77.9881 258.313C74.2748 250.703 69.7702 242.729 64.535 234.389C59.2999 226.05 52.6037 218.136 44.264 210.648C66.97 210.222 85.4756 208.457 99.7809 205.352C114.086 202.187 124.8 197.256 131.983 190.438C139.105 183.621 143.306 174.611 144.523 163.35H101.851V196.648H49.7427V163.35H29.1064V163.289ZM218.546 114.772L201.501 112.337C203.753 103.511 204.971 94.2578 205.093 84.4571L221.955 86.8921C222.076 96.3884 220.981 105.641 218.546 114.772Z" fill="#DA00E9"/>
<path d="M286.318 254.723H230.801V192.205C220.088 194.092 208.826 195.675 196.956 197.014C185.085 198.353 172.606 199.449 159.701 200.241C158.909 191.962 157.814 183.683 156.474 175.465C155.135 167.247 152.518 158.542 148.683 149.289C161.101 149.289 173.215 149.046 184.963 148.559C196.712 148.072 207.73 147.098 217.957 145.637C228.184 144.176 237.011 142.045 244.498 139.245C252.229 136.323 260.69 132.001 269.761 126.401C278.831 120.8 287.11 112.765 294.597 102.355L345.122 123.783C339.218 131.514 333.435 138.454 327.712 144.541C321.99 150.628 315.781 156.107 309.085 160.977C302.389 165.847 294.841 170.412 286.44 174.734V254.723H286.318Z" fill="#CFE200"/>
<path d="M313.71 108.377H369.227V197.192H313.71V108.377ZM340.981 259.101C338.181 251.248 335.077 243.395 331.789 235.542C328.441 227.751 324.059 219.167 318.58 209.793C337.025 210.036 352.608 209.61 365.27 208.514C377.993 207.358 388.341 205.592 396.437 203.097C404.534 200.601 410.743 197.435 415.187 193.6C419.57 189.704 422.613 185.139 424.318 179.904C425.961 174.608 426.813 168.642 426.813 161.946C426.813 157.928 426.022 151.232 424.5 141.918C422.978 132.544 420.178 121.221 416.161 107.829H475.513C477.095 115.682 478.374 122.621 479.348 128.587C480.261 134.553 480.991 139.97 481.478 144.901C481.965 149.832 482.209 154.885 482.209 159.937C482.209 177.712 479.104 192.565 472.895 204.558C466.686 216.489 457.555 226.168 445.563 233.534C433.51 240.899 418.778 246.561 401.246 250.456C383.715 254.413 363.687 257.274 341.103 259.161L340.981 259.101Z" fill="#0171FF"/>
<path d="M436.372 248.696V221.85H491.585L493.106 198.353H446.477V171.508H528.109L524.761 221.85H542.353V248.696H436.372Z" fill="#FF5FFA"/>
<path d="M556.232 190.376H503.516V116.779H565.242V102.961H622.95V116.779H668.058L690.885 147.642C687.537 163.957 682.606 178.201 676.032 190.437C669.458 202.672 661.788 212.899 652.961 221.178C646.265 227.448 637.986 233.048 628.124 238.04C618.263 242.971 605.845 247.049 591.052 250.276C576.199 253.502 557.998 255.632 536.327 256.667C533.648 248.754 530.3 240.779 526.282 232.683C522.265 224.587 517.334 216.491 511.429 208.334C534.561 208.334 554.65 207.116 571.633 204.742C588.678 202.368 601.279 198.289 609.436 192.506C614.915 188.61 619.663 183.619 623.741 177.47C627.82 171.322 631.046 164.87 633.481 158.052H556.111V190.315L556.232 190.376Z" fill="#04D804"/>
<path d="M888.685 253.078H836.577V244.251H766.389V253.078H714.281V111.181H888.685V253.078ZM766.389 203.404H836.577V151.905H766.389V203.404Z" fill="#06D1DA"/>
<path d="M1021.21 114.407L1045.07 156.714C1039.83 168.463 1033.99 179.359 1027.54 189.404C1021.02 199.448 1013.29 208.518 1004.28 216.675C995.274 224.832 984.256 231.894 971.29 237.92C964.228 241.268 953.149 244.677 938.113 248.269C923.078 251.799 904.998 254.66 883.875 256.791C881.318 249.06 877.787 241.086 873.161 232.928C868.535 224.771 862.508 216.432 855.021 207.848C861.96 207.727 868.413 207.422 874.257 207.057C869.691 202.37 864.76 197.5 859.343 192.447C853.925 187.395 848.142 182.708 841.994 178.446C856.177 169.741 867.013 159.028 874.561 146.183C882.109 133.339 886.553 118.547 887.892 101.685H940.183C939.27 106.067 938.296 110.389 937.383 114.529H1021.15L1021.21 114.407ZM922.773 159.88C918.39 170.046 913.642 178.933 908.65 186.543C903.659 194.152 898.485 200.544 893.128 205.779C904.998 204.683 915.529 203.161 924.599 201.152C933.67 199.143 941.705 196.404 948.645 192.934C956.254 189.221 962.767 184.656 968.185 179.299C973.603 173.942 978.412 167.489 982.734 159.88H922.773ZM1018.41 107.955L1001.79 112.337C1000.45 107.955 998.805 103.572 996.857 99.1887C994.909 94.8666 992.656 90.4837 990.16 86.0399L1006.41 81.8396C1009.09 86.1008 1011.41 90.4837 1013.41 94.8666C1015.42 99.2496 1017.07 103.632 1018.41 107.894V107.955ZM1039.65 102.354L1023.21 106.737C1021.88 102.354 1020.23 97.9712 1018.28 93.5883C1016.34 89.2663 1014.08 84.8833 1011.59 80.4396L1027.84 76.2393C1030.52 80.5004 1032.83 84.8833 1034.78 89.2663C1036.73 93.6492 1038.37 98.0321 1039.71 102.293L1039.65 102.354Z" fill="#FF7800"/>
<mask id="path-22-outside-1_1504_4963" maskUnits="userSpaceOnUse" x="253.035" y="12.5557" width="142" height="47" fill="black">
<rect fill="white" x="253.035" y="12.5557" width="142" height="47"/>
<path d="M258.863 53.5557V26.0264H267.474V30.4989H267.936C268.108 29.9334 268.373 29.3765 268.733 28.8281C269.093 28.2798 269.564 27.7571 270.147 27.2602C270.747 26.7632 271.492 26.3691 272.383 26.0778C273.291 25.7693 274.294 25.6151 275.39 25.6151C277.395 25.6151 279.032 26.0692 280.3 26.9774C281.585 27.8685 282.442 29.0766 282.87 30.6017H283.23C283.676 29.2994 284.627 28.1427 286.083 27.1317C287.54 26.1206 289.365 25.6151 291.558 25.6151C294.283 25.6151 296.408 26.4462 297.933 28.1084C299.475 29.7535 300.247 31.9384 300.247 34.663V53.5557H291.327V37.4391C291.327 35.8111 290.976 34.6373 290.273 33.9176C289.588 33.1807 288.697 32.8123 287.6 32.8123C286.418 32.8123 285.484 33.215 284.798 34.0204C284.13 34.8087 283.796 35.9996 283.796 37.5933V53.5557H275.313V37.5419C275.313 35.8454 274.954 34.6373 274.234 33.9176C273.531 33.1807 272.632 32.8123 271.535 32.8123C270.421 32.8123 269.513 33.1893 268.81 33.9433C268.108 34.6973 267.756 35.8968 267.756 37.5419V53.5557H258.863ZM305.799 53.5557V26.0264H314.41V30.4989H314.872C315.044 29.9334 315.309 29.3765 315.669 28.8281C316.029 28.2798 316.5 27.7571 317.083 27.2602C317.683 26.7632 318.428 26.3691 319.319 26.0778C320.227 25.7693 321.23 25.6151 322.327 25.6151C324.331 25.6151 325.968 26.0692 327.236 26.9774C328.521 27.8685 329.378 29.0766 329.806 30.6017H330.166C330.612 29.2994 331.563 28.1427 333.019 27.1317C334.476 26.1206 336.301 25.6151 338.494 25.6151C341.219 25.6151 343.344 26.4462 344.869 28.1084C346.411 29.7535 347.183 31.9384 347.183 34.663V53.5557H338.263V37.4391C338.263 35.8111 337.912 34.6373 337.209 33.9176C336.524 33.1807 335.633 32.8123 334.536 32.8123C333.354 32.8123 332.42 33.215 331.734 34.0204C331.066 34.8087 330.732 35.9996 330.732 37.5933V53.5557H322.249V37.5419C322.249 35.8454 321.89 34.6373 321.17 33.9176C320.467 33.1807 319.568 32.8123 318.471 32.8123C317.357 32.8123 316.449 33.1893 315.746 33.9433C315.044 34.6973 314.692 35.8968 314.692 37.5419V53.5557H305.799ZM352.041 18.4693H361.68L360.6 34.0204H353.146L352.041 18.4693ZM365.253 45.5359H373.889C373.958 46.3413 374.335 47.0096 375.02 47.5409C375.706 48.0721 376.588 48.3377 377.668 48.3377C378.85 48.3377 379.733 48.1064 380.315 47.6437C380.915 47.1639 381.215 46.5384 381.215 45.7673C381.215 45.4588 381.155 45.1846 381.035 44.9447C380.915 44.7048 380.718 44.4992 380.444 44.3278C380.17 44.1393 379.896 43.9851 379.621 43.8651C379.347 43.7452 378.97 43.6338 378.49 43.531C378.028 43.411 377.616 43.3168 377.257 43.2482C376.914 43.1797 376.443 43.1026 375.843 43.0169C375.26 42.9141 374.798 42.8284 374.455 42.7599C373.187 42.52 372.064 42.2029 371.088 41.8088C370.111 41.3975 369.211 40.8749 368.389 40.2408C367.566 39.5897 366.932 38.7757 366.486 37.7989C366.058 36.805 365.844 35.6655 365.844 34.3803C365.844 32.8209 366.161 31.4585 366.795 30.2933C367.429 29.128 368.303 28.2112 369.417 27.5429C370.531 26.8575 371.773 26.352 373.144 26.0264C374.532 25.6837 376.048 25.5123 377.694 25.5123C381.069 25.5123 383.768 26.2577 385.79 27.7486C387.83 29.2223 388.849 31.3215 388.849 34.0461H381.138C381.035 33.2578 380.684 32.5895 380.084 32.0412C379.501 31.4757 378.67 31.1929 377.591 31.1929C376.528 31.1929 375.706 31.4243 375.123 31.887C374.54 32.3496 374.249 32.958 374.249 33.712C374.249 34.0375 374.326 34.3374 374.48 34.6116C374.635 34.8858 374.883 35.1257 375.226 35.3313C375.586 35.5198 375.92 35.6912 376.228 35.8454C376.554 35.9825 377 36.111 377.565 36.231C378.131 36.3338 378.576 36.4195 378.902 36.488C379.244 36.5394 379.733 36.6165 380.367 36.7194C381.001 36.805 381.429 36.865 381.652 36.8993C384.291 37.3277 386.304 38.1759 387.692 39.444C389.098 40.695 389.8 42.4685 389.8 44.7648C389.8 47.6608 388.712 49.9399 386.536 51.6021C384.36 53.2472 381.258 54.0697 377.231 54.0697C373.427 54.0697 370.479 53.2815 368.389 51.705C366.298 50.1284 365.253 48.0721 365.253 45.5359Z"/>
</mask>
<path d="M258.863 53.5557V26.0264H267.474V30.4989H267.936C268.108 29.9334 268.373 29.3765 268.733 28.8281C269.093 28.2798 269.564 27.7571 270.147 27.2602C270.747 26.7632 271.492 26.3691 272.383 26.0778C273.291 25.7693 274.294 25.6151 275.39 25.6151C277.395 25.6151 279.032 26.0692 280.3 26.9774C281.585 27.8685 282.442 29.0766 282.87 30.6017H283.23C283.676 29.2994 284.627 28.1427 286.083 27.1317C287.54 26.1206 289.365 25.6151 291.558 25.6151C294.283 25.6151 296.408 26.4462 297.933 28.1084C299.475 29.7535 300.247 31.9384 300.247 34.663V53.5557H291.327V37.4391C291.327 35.8111 290.976 34.6373 290.273 33.9176C289.588 33.1807 288.697 32.8123 287.6 32.8123C286.418 32.8123 285.484 33.215 284.798 34.0204C284.13 34.8087 283.796 35.9996 283.796 37.5933V53.5557H275.313V37.5419C275.313 35.8454 274.954 34.6373 274.234 33.9176C273.531 33.1807 272.632 32.8123 271.535 32.8123C270.421 32.8123 269.513 33.1893 268.81 33.9433C268.108 34.6973 267.756 35.8968 267.756 37.5419V53.5557H258.863ZM305.799 53.5557V26.0264H314.41V30.4989H314.872C315.044 29.9334 315.309 29.3765 315.669 28.8281C316.029 28.2798 316.5 27.7571 317.083 27.2602C317.683 26.7632 318.428 26.3691 319.319 26.0778C320.227 25.7693 321.23 25.6151 322.327 25.6151C324.331 25.6151 325.968 26.0692 327.236 26.9774C328.521 27.8685 329.378 29.0766 329.806 30.6017H330.166C330.612 29.2994 331.563 28.1427 333.019 27.1317C334.476 26.1206 336.301 25.6151 338.494 25.6151C341.219 25.6151 343.344 26.4462 344.869 28.1084C346.411 29.7535 347.183 31.9384 347.183 34.663V53.5557H338.263V37.4391C338.263 35.8111 337.912 34.6373 337.209 33.9176C336.524 33.1807 335.633 32.8123 334.536 32.8123C333.354 32.8123 332.42 33.215 331.734 34.0204C331.066 34.8087 330.732 35.9996 330.732 37.5933V53.5557H322.249V37.5419C322.249 35.8454 321.89 34.6373 321.17 33.9176C320.467 33.1807 319.568 32.8123 318.471 32.8123C317.357 32.8123 316.449 33.1893 315.746 33.9433C315.044 34.6973 314.692 35.8968 314.692 37.5419V53.5557H305.799ZM352.041 18.4693H361.68L360.6 34.0204H353.146L352.041 18.4693ZM365.253 45.5359H373.889C373.958 46.3413 374.335 47.0096 375.02 47.5409C375.706 48.0721 376.588 48.3377 377.668 48.3377C378.85 48.3377 379.733 48.1064 380.315 47.6437C380.915 47.1639 381.215 46.5384 381.215 45.7673C381.215 45.4588 381.155 45.1846 381.035 44.9447C380.915 44.7048 380.718 44.4992 380.444 44.3278C380.17 44.1393 379.896 43.9851 379.621 43.8651C379.347 43.7452 378.97 43.6338 378.49 43.531C378.028 43.411 377.616 43.3168 377.257 43.2482C376.914 43.1797 376.443 43.1026 375.843 43.0169C375.26 42.9141 374.798 42.8284 374.455 42.7599C373.187 42.52 372.064 42.2029 371.088 41.8088C370.111 41.3975 369.211 40.8749 368.389 40.2408C367.566 39.5897 366.932 38.7757 366.486 37.7989C366.058 36.805 365.844 35.6655 365.844 34.3803C365.844 32.8209 366.161 31.4585 366.795 30.2933C367.429 29.128 368.303 28.2112 369.417 27.5429C370.531 26.8575 371.773 26.352 373.144 26.0264C374.532 25.6837 376.048 25.5123 377.694 25.5123C381.069 25.5123 383.768 26.2577 385.79 27.7486C387.83 29.2223 388.849 31.3215 388.849 34.0461H381.138C381.035 33.2578 380.684 32.5895 380.084 32.0412C379.501 31.4757 378.67 31.1929 377.591 31.1929C376.528 31.1929 375.706 31.4243 375.123 31.887C374.54 32.3496 374.249 32.958 374.249 33.712C374.249 34.0375 374.326 34.3374 374.48 34.6116C374.635 34.8858 374.883 35.1257 375.226 35.3313C375.586 35.5198 375.92 35.6912 376.228 35.8454C376.554 35.9825 377 36.111 377.565 36.231C378.131 36.3338 378.576 36.4195 378.902 36.488C379.244 36.5394 379.733 36.6165 380.367 36.7194C381.001 36.805 381.429 36.865 381.652 36.8993C384.291 37.3277 386.304 38.1759 387.692 39.444C389.098 40.695 389.8 42.4685 389.8 44.7648C389.8 47.6608 388.712 49.9399 386.536 51.6021C384.36 53.2472 381.258 54.0697 377.231 54.0697C373.427 54.0697 370.479 53.2815 368.389 51.705C366.298 50.1284 365.253 48.0721 365.253 45.5359Z" fill="white"/>
<path d="M258.863 53.5557H253.863V58.5557H258.863V53.5557ZM258.863 26.0264V21.0264H253.863V26.0264H258.863ZM267.474 26.0264H272.474V21.0264H267.474V26.0264ZM267.474 30.4989H262.474V35.4989H267.474V30.4989ZM267.936 30.4989V35.4989H271.646L272.721 31.949L267.936 30.4989ZM270.147 27.2602L266.957 23.4101L266.929 23.4328L266.902 23.456L270.147 27.2602ZM272.383 26.0778L273.937 30.8303L273.964 30.8214L273.991 30.8122L272.383 26.0778ZM280.3 26.9774L277.389 31.0424L277.42 31.0646L277.451 31.0864L280.3 26.9774ZM282.87 30.6017L278.057 31.9539L279.081 35.6017H282.87V30.6017ZM283.23 30.6017V35.6017H286.804L287.961 32.2202L283.23 30.6017ZM286.083 27.1317L283.232 23.0242L286.083 27.1317ZM297.933 28.1084L294.249 31.4888L294.267 31.5085L294.285 31.5281L297.933 28.1084ZM300.247 53.5557V58.5557H305.247V53.5557H300.247ZM291.327 53.5557H286.327V58.5557H291.327V53.5557ZM290.273 33.9176L286.612 37.3231L286.653 37.3672L286.695 37.4103L290.273 33.9176ZM284.798 34.0204L280.991 30.7798L280.984 30.787L284.798 34.0204ZM283.796 53.5557V58.5557H288.796V53.5557H283.796ZM275.313 53.5557H270.313V58.5557H275.313V53.5557ZM274.234 33.9176L270.615 37.368L270.656 37.411L270.698 37.4531L274.234 33.9176ZM268.81 33.9433L265.152 30.5347L268.81 33.9433ZM267.756 53.5557V58.5557H272.756V53.5557H267.756ZM258.863 53.5557H263.863V26.0264H258.863H253.863V53.5557H258.863ZM258.863 26.0264V31.0264H267.474V26.0264V21.0264H258.863V26.0264ZM267.474 26.0264H262.474V30.4989H267.474H272.474V26.0264H267.474ZM267.474 30.4989V35.4989H267.936V30.4989V25.4989H267.474V30.4989ZM267.936 30.4989L272.721 31.949C272.74 31.8885 272.787 31.7633 272.913 31.5714L268.733 28.8281L264.553 26.0849C263.959 26.9897 263.476 27.9784 263.151 29.0489L267.936 30.4989ZM268.733 28.8281L272.913 31.5714C272.974 31.479 273.111 31.3039 273.392 31.0644L270.147 27.2602L266.902 23.456C266.018 24.2103 265.212 25.0806 264.553 26.0849L268.733 28.8281ZM270.147 27.2602L273.337 31.1103C273.365 31.0869 273.524 30.9651 273.937 30.8303L272.383 26.0778L270.829 21.3253C269.46 21.7731 268.128 22.4396 266.957 23.4101L270.147 27.2602ZM272.383 26.0778L273.991 30.8122C274.313 30.7028 274.763 30.6151 275.39 30.6151V25.6151V20.6151C273.824 20.6151 272.27 20.8358 270.775 21.3434L272.383 26.0778ZM275.39 25.6151V30.6151C276.649 30.6151 277.183 30.8954 277.389 31.0424L280.3 26.9774L283.211 22.9125C280.88 21.243 278.142 20.6151 275.39 20.6151V25.6151ZM280.3 26.9774L277.451 31.0864C277.767 31.3057 277.938 31.5324 278.057 31.9539L282.87 30.6017L287.684 29.2496C286.946 26.6208 285.403 24.4314 283.149 22.8684L280.3 26.9774ZM282.87 30.6017V35.6017H283.23V30.6017V25.6017H282.87V30.6017ZM283.23 30.6017L287.961 32.2202C287.974 32.1837 288.101 31.8178 288.935 31.2391L286.083 27.1317L283.232 23.0242C281.153 24.4676 279.378 26.4151 278.499 28.9833L283.23 30.6017ZM286.083 27.1317L288.935 31.2391C289.374 30.9343 290.14 30.6151 291.558 30.6151V25.6151V20.6151C288.59 20.6151 285.706 21.307 283.232 23.0242L286.083 27.1317ZM291.558 25.6151V30.6151C293.198 30.6151 293.865 31.0701 294.249 31.4888L297.933 28.1084L301.617 24.7281C298.951 21.8224 295.369 20.6151 291.558 20.6151V25.6151ZM297.933 28.1084L294.285 31.5281C294.785 32.0607 295.247 32.9288 295.247 34.663H300.247H305.247C305.247 30.9479 304.166 27.4463 301.581 24.6887L297.933 28.1084ZM300.247 34.663H295.247V53.5557H300.247H305.247V34.663H300.247ZM300.247 53.5557V48.5557H291.327V53.5557V58.5557H300.247V53.5557ZM291.327 53.5557H296.327V37.4391H291.327H286.327V53.5557H291.327ZM291.327 37.4391H296.327C296.327 35.2763 295.89 32.5136 293.851 30.4249L290.273 33.9176L286.695 37.4103C286.372 37.0788 286.28 36.7916 286.274 36.7713C286.271 36.763 286.286 36.8094 286.3 36.9253C286.315 37.0408 286.327 37.2093 286.327 37.4391H291.327ZM290.273 33.9176L293.934 30.5121C292.212 28.6609 289.947 27.8123 287.6 27.8123V32.8123V37.8123C287.582 37.8123 287.418 37.8076 287.18 37.7093C286.933 37.6069 286.737 37.4572 286.612 37.3231L290.273 33.9176ZM287.6 32.8123V27.8123C285.146 27.8123 282.745 28.7183 280.991 30.7798L284.798 34.0204L288.606 37.261C288.472 37.4189 288.259 37.5908 287.993 37.7057C287.741 37.8142 287.58 37.8123 287.6 37.8123V32.8123ZM284.798 34.0204L280.984 30.787C279.23 32.856 278.796 35.4282 278.796 37.5933H283.796H288.796C288.796 37.3677 288.808 37.1952 288.823 37.0693C288.838 36.9432 288.855 36.8757 288.86 36.8555C288.871 36.818 288.825 37.0024 288.612 37.2538L284.798 34.0204ZM283.796 37.5933H278.796V53.5557H283.796H288.796V37.5933H283.796ZM283.796 53.5557V48.5557H275.313V53.5557V58.5557H283.796V53.5557ZM275.313 53.5557H280.313V37.5419H275.313H270.313V53.5557H275.313ZM275.313 37.5419H280.313C280.313 35.3553 279.887 32.4995 277.769 30.3821L274.234 33.9176L270.698 37.4531C270.347 37.1014 270.253 36.7958 270.252 36.7908C270.251 36.7889 270.268 36.8452 270.284 36.9759C270.3 37.1059 270.313 37.2918 270.313 37.5419H275.313ZM274.234 33.9176L277.852 30.4672C276.128 28.6588 273.881 27.8123 271.535 27.8123V32.8123V37.8123C271.516 37.8123 271.361 37.8073 271.137 37.7157C270.905 37.6207 270.726 37.4841 270.615 37.368L274.234 33.9176ZM271.535 32.8123V27.8123C269.159 27.8123 266.883 28.6776 265.152 30.5347L268.81 33.9433L272.468 37.3519C272.356 37.4722 272.173 37.6143 271.935 37.713C271.706 37.808 271.549 37.8123 271.535 37.8123V32.8123ZM268.81 33.9433L265.152 30.5347C263.198 32.6321 262.756 35.3508 262.756 37.5419H267.756H272.756C272.756 37.3062 272.769 37.1296 272.784 37.0044C272.8 36.879 272.816 36.8199 272.818 36.8137C272.821 36.8045 272.749 37.0504 272.468 37.3519L268.81 33.9433ZM267.756 37.5419H262.756V53.5557H267.756H272.756V37.5419H267.756ZM267.756 53.5557V48.5557H258.863V53.5557V58.5557H267.756V53.5557ZM305.799 53.5557H300.799V58.5557H305.799V53.5557ZM305.799 26.0264V21.0264H300.799V26.0264H305.799ZM314.41 26.0264H319.41V21.0264H314.41V26.0264ZM314.41 30.4989H309.41V35.4989H314.41V30.4989ZM314.872 30.4989V35.4989H318.582L319.657 31.949L314.872 30.4989ZM317.083 27.2602L313.893 23.4101L313.865 23.4328L313.838 23.456L317.083 27.2602ZM319.319 26.0778L320.873 30.8303L320.9 30.8214L320.927 30.8122L319.319 26.0778ZM327.236 26.9774L324.325 31.0424L324.356 31.0646L324.387 31.0864L327.236 26.9774ZM329.806 30.6017L324.993 31.9539L326.017 35.6017H329.806V30.6017ZM330.166 30.6017V35.6017H333.74L334.897 32.2202L330.166 30.6017ZM333.019 27.1317L330.168 23.0242L333.019 27.1317ZM344.869 28.1084L341.185 31.4888L341.203 31.5085L341.221 31.5281L344.869 28.1084ZM347.183 53.5557V58.5557H352.183V53.5557H347.183ZM338.263 53.5557H333.263V58.5557H338.263V53.5557ZM337.209 33.9176L333.548 37.3231L333.589 37.3672L333.631 37.4103L337.209 33.9176ZM331.734 34.0204L327.927 30.7798L327.92 30.787L331.734 34.0204ZM330.732 53.5557V58.5557H335.732V53.5557H330.732ZM322.249 53.5557H317.249V58.5557H322.249V53.5557ZM321.17 33.9176L317.551 37.368L317.592 37.411L317.634 37.4531L321.17 33.9176ZM315.746 33.9433L312.088 30.5347L315.746 33.9433ZM314.692 53.5557V58.5557H319.692V53.5557H314.692ZM305.799 53.5557H310.799V26.0264H305.799H300.799V53.5557H305.799ZM305.799 26.0264V31.0264H314.41V26.0264V21.0264H305.799V26.0264ZM314.41 26.0264H309.41V30.4989H314.41H319.41V26.0264H314.41ZM314.41 30.4989V35.4989H314.872V30.4989V25.4989H314.41V30.4989ZM314.872 30.4989L319.657 31.949C319.676 31.8885 319.723 31.7633 319.849 31.5714L315.669 28.8281L311.489 26.0849C310.895 26.9897 310.412 27.9784 310.087 29.0489L314.872 30.4989ZM315.669 28.8281L319.849 31.5714C319.91 31.479 320.047 31.3039 320.328 31.0644L317.083 27.2602L313.838 23.456C312.954 24.2103 312.148 25.0806 311.489 26.0849L315.669 28.8281ZM317.083 27.2602L320.273 31.1103C320.301 31.0869 320.46 30.9651 320.873 30.8303L319.319 26.0778L317.765 21.3253C316.396 21.7731 315.064 22.4396 313.893 23.4101L317.083 27.2602ZM319.319 26.0778L320.927 30.8122C321.249 30.7028 321.7 30.6151 322.327 30.6151V25.6151V20.6151C320.76 20.6151 319.206 20.8358 317.711 21.3434L319.319 26.0778ZM322.327 25.6151V30.6151C323.585 30.6151 324.119 30.8954 324.325 31.0424L327.236 26.9774L330.147 22.9125C327.816 21.243 325.078 20.6151 322.327 20.6151V25.6151ZM327.236 26.9774L324.387 31.0864C324.703 31.3057 324.874 31.5324 324.993 31.9539L329.806 30.6017L334.62 29.2496C333.882 26.6208 332.339 24.4314 330.085 22.8684L327.236 26.9774ZM329.806 30.6017V35.6017H330.166V30.6017V25.6017H329.806V30.6017ZM330.166 30.6017L334.897 32.2202C334.91 32.1837 335.037 31.8178 335.871 31.2391L333.019 27.1317L330.168 23.0242C328.089 24.4676 326.314 26.4151 325.435 28.9833L330.166 30.6017ZM333.019 27.1317L335.871 31.2391C336.31 30.9343 337.076 30.6151 338.494 30.6151V25.6151V20.6151C335.526 20.6151 332.642 21.307 330.168 23.0242L333.019 27.1317ZM338.494 25.6151V30.6151C340.134 30.6151 340.801 31.0701 341.185 31.4888L344.869 28.1084L348.553 24.7281C345.887 21.8224 342.305 20.6151 338.494 20.6151V25.6151ZM344.869 28.1084L341.221 31.5281C341.721 32.0607 342.183 32.9288 342.183 34.663H347.183H352.183C352.183 30.9479 351.102 27.4463 348.517 24.6887L344.869 28.1084ZM347.183 34.663H342.183V53.5557H347.183H352.183V34.663H347.183ZM347.183 53.5557V48.5557H338.263V53.5557V58.5557H347.183V53.5557ZM338.263 53.5557H343.263V37.4391H338.263H333.263V53.5557H338.263ZM338.263 37.4391H343.263C343.263 35.2763 342.826 32.5136 340.787 30.4249L337.209 33.9176L333.631 37.4103C333.308 37.0788 333.216 36.7916 333.21 36.7713C333.207 36.763 333.222 36.8094 333.236 36.9253C333.251 37.0408 333.263 37.2093 333.263 37.4391H338.263ZM337.209 33.9176L340.87 30.5121C339.148 28.6609 336.883 27.8123 334.536 27.8123V32.8123V37.8123C334.518 37.8123 334.354 37.8076 334.116 37.7093C333.869 37.6069 333.673 37.4572 333.548 37.3231L337.209 33.9176ZM334.536 32.8123V27.8123C332.082 27.8123 329.681 28.7183 327.927 30.7798L331.734 34.0204L335.542 37.261C335.408 37.4189 335.195 37.5908 334.929 37.7057C334.677 37.8142 334.516 37.8123 334.536 37.8123V32.8123ZM331.734 34.0204L327.92 30.787C326.166 32.856 325.732 35.4282 325.732 37.5933H330.732H335.732C335.732 37.3677 335.744 37.1952 335.759 37.0693C335.774 36.9432 335.791 36.8757 335.797 36.8555C335.807 36.818 335.761 37.0024 335.548 37.2538L331.734 34.0204ZM330.732 37.5933H325.732V53.5557H330.732H335.732V37.5933H330.732ZM330.732 53.5557V48.5557H322.249V53.5557V58.5557H330.732V53.5557ZM322.249 53.5557H327.249V37.5419H322.249H317.249V53.5557H322.249ZM322.249 37.5419H327.249C327.249 35.3553 326.823 32.4995 324.705 30.3821L321.17 33.9176L317.634 37.4531C317.283 37.1014 317.189 36.7958 317.188 36.7908C317.187 36.7889 317.204 36.8452 317.22 36.9759C317.236 37.1059 317.249 37.2918 317.249 37.5419H322.249ZM321.17 33.9176L324.788 30.4672C323.064 28.6588 320.817 27.8123 318.471 27.8123V32.8123V37.8123C318.452 37.8123 318.297 37.8073 318.073 37.7157C317.841 37.6207 317.662 37.4841 317.551 37.368L321.17 33.9176ZM318.471 32.8123V27.8123C316.095 27.8123 313.819 28.6776 312.088 30.5347L315.746 33.9433L319.404 37.3519C319.292 37.4722 319.109 37.6143 318.871 37.713C318.642 37.808 318.485 37.8123 318.471 37.8123V32.8123ZM315.746 33.9433L312.088 30.5347C310.134 32.6321 309.692 35.3508 309.692 37.5419H314.692H319.692C319.692 37.3062 319.705 37.1296 319.721 37.0044C319.736 36.879 319.752 36.8199 319.754 36.8137C319.757 36.8045 319.685 37.0504 319.404 37.3519L315.746 33.9433ZM314.692 37.5419H309.692V53.5557H314.692H319.692V37.5419H314.692ZM314.692 53.5557V48.5557H305.799V53.5557V58.5557H314.692V53.5557ZM352.041 18.4693V13.4693H346.673L347.053 18.8238L352.041 18.4693ZM361.68 18.4693L366.668 18.8156L367.039 13.4693H361.68V18.4693ZM360.6 34.0204V39.0204H365.265L365.588 34.3667L360.6 34.0204ZM353.146 34.0204L348.159 34.3749L348.489 39.0204H353.146V34.0204ZM352.041 18.4693V23.4693H361.68V18.4693V13.4693H352.041V18.4693ZM361.68 18.4693L356.692 18.123L355.612 33.6741L360.6 34.0204L365.588 34.3667L366.668 18.8156L361.68 18.4693ZM360.6 34.0204V29.0204H353.146V34.0204V39.0204H360.6V34.0204ZM353.146 34.0204L358.133 33.6659L357.028 18.1148L352.041 18.4693L347.053 18.8238L348.159 34.3749L353.146 34.0204ZM365.253 45.5359V40.5359H360.253V45.5359H365.253ZM373.889 45.5359L378.871 45.1119L378.482 40.5359H373.889V45.5359ZM380.315 47.6437L383.425 51.5592L383.432 51.5536L383.439 51.548L380.315 47.6437ZM380.444 44.3278L377.611 48.448L377.701 48.5099L377.794 48.5678L380.444 44.3278ZM379.621 43.8651L381.625 39.2844L379.621 43.8651ZM378.49 43.531L377.236 48.371L377.339 48.3977L377.443 48.42L378.49 43.531ZM377.257 43.2482L376.276 48.1511L376.298 48.1556L376.321 48.1599L377.257 43.2482ZM375.843 43.0169L374.974 47.9408L375.055 47.9551L375.136 47.9667L375.843 43.0169ZM374.455 42.7599L375.435 37.857L375.41 37.8519L375.384 37.847L374.455 42.7599ZM371.088 41.8088L369.147 46.417L369.182 46.4315L369.217 46.4456L371.088 41.8088ZM368.389 40.2408L365.285 44.1611L365.31 44.1812L365.336 44.2009L368.389 40.2408ZM366.486 37.7989L361.895 39.7781L361.916 39.8262L361.937 39.874L366.486 37.7989ZM369.417 27.5429L371.989 31.8304L372.013 31.8159L372.037 31.8012L369.417 27.5429ZM373.144 26.0264L374.299 30.8911L374.321 30.8859L374.342 30.8806L373.144 26.0264ZM385.79 27.7486L382.823 31.773L382.842 31.7871L382.862 31.8011L385.79 27.7486ZM388.849 34.0461V39.0461H393.849V34.0461H388.849ZM381.138 34.0461L376.18 34.6928L376.748 39.0461H381.138V34.0461ZM380.084 32.0412L376.602 35.6291L376.655 35.681L376.71 35.7313L380.084 32.0412ZM375.226 35.3313L372.653 39.6188L372.778 39.6933L372.906 39.7605L375.226 35.3313ZM376.228 35.8454L373.992 40.3175L374.138 40.3904L374.288 40.4536L376.228 35.8454ZM377.565 36.231L376.527 41.1221L376.599 41.1373L376.671 41.1503L377.565 36.231ZM378.902 36.488L377.872 41.3808L378.015 41.411L378.16 41.4327L378.902 36.488ZM380.367 36.7194L379.566 41.6549L379.632 41.6655L379.697 41.6743L380.367 36.7194ZM381.652 36.8993L382.453 31.9639L382.433 31.9606L382.412 31.9574L381.652 36.8993ZM387.692 39.444L384.32 43.1355L384.344 43.1572L384.368 43.1785L387.692 39.444ZM386.536 51.6021L389.551 55.5908L389.561 55.5833L389.571 55.5757L386.536 51.6021ZM365.253 45.5359V50.5359H373.889V45.5359V40.5359H365.253V45.5359ZM373.889 45.5359L368.907 45.9599C369.104 48.2677 370.258 50.1755 371.957 51.4929L375.02 47.5409L378.083 43.5888C378.198 43.6778 378.4 43.8685 378.578 44.1846C378.761 44.5084 378.848 44.839 378.871 45.1119L373.889 45.5359ZM375.02 47.5409L371.957 51.4929C373.716 52.8557 375.756 53.3377 377.668 53.3377V48.3377V43.3377C377.535 43.3377 377.539 43.3211 377.637 43.3506C377.746 43.3834 377.911 43.4556 378.083 43.5888L375.02 47.5409ZM377.668 48.3377V53.3377C379.357 53.3377 381.57 53.0321 383.425 51.5592L380.315 47.6437L377.206 43.7281C377.566 43.442 377.867 43.349 377.949 43.3276C378.022 43.3083 377.95 43.3377 377.668 43.3377V48.3377ZM380.315 47.6437L383.439 51.548C385.23 50.1149 386.215 48.0503 386.215 45.7673H381.215H376.215C376.215 45.489 376.273 45.0872 376.482 44.6531C376.69 44.2183 376.969 43.9179 377.192 43.7393L380.315 47.6437ZM381.215 45.7673H386.215C386.215 44.7993 386.023 43.7402 385.507 42.7087L381.035 44.9447L376.563 47.1808C376.287 46.6291 376.215 46.1183 376.215 45.7673H381.215ZM381.035 44.9447L385.507 42.7087C384.898 41.4911 383.987 40.6462 383.094 40.0878L380.444 44.3278L377.794 48.5678C377.449 48.3522 376.932 47.9185 376.563 47.1808L381.035 44.9447ZM380.444 44.3278L383.277 40.2076C382.77 39.8593 382.22 39.5444 381.625 39.2844L379.621 43.8651L377.617 48.4459C377.571 48.4258 377.569 48.4193 377.611 48.448L380.444 44.3278ZM379.621 43.8651L381.625 39.2844C380.912 38.9721 380.166 38.7766 379.538 38.642L378.49 43.531L377.443 48.42C377.587 48.451 377.675 48.4745 377.716 48.4867C377.736 48.4924 377.737 48.4933 377.723 48.4883C377.709 48.4835 377.672 48.47 377.617 48.4459L379.621 43.8651ZM378.49 43.531L379.745 38.691C379.207 38.5514 378.686 38.4306 378.192 38.3366L377.257 43.2482L376.321 48.1599C376.547 48.203 376.849 48.2707 377.236 48.371L378.49 43.531ZM377.257 43.2482L378.237 38.3453C377.762 38.2502 377.186 38.158 376.55 38.0672L375.843 43.0169L375.136 47.9667C375.7 48.0472 376.066 48.1092 376.276 48.1511L377.257 43.2482ZM375.843 43.0169L376.712 38.093C376.145 37.9929 375.724 37.9147 375.435 37.857L374.455 42.7599L373.474 47.6628C373.871 47.7421 374.376 47.8352 374.974 47.9408L375.843 43.0169ZM374.455 42.7599L375.384 37.847C374.369 37.655 373.572 37.4198 372.958 37.1721L371.088 41.8088L369.217 46.4456C370.556 46.9861 372.004 47.3849 373.525 47.6727L374.455 42.7599ZM371.088 41.8088L373.028 37.2006C372.44 36.9531 371.915 36.6464 371.441 36.2808L368.389 40.2408L365.336 44.2009C366.507 45.1034 367.782 45.842 369.147 46.417L371.088 41.8088ZM368.389 40.2408L371.492 36.3206C371.306 36.173 371.16 35.9972 371.036 35.7239L366.486 37.7989L361.937 39.874C362.704 41.5542 363.826 43.0063 365.285 44.1611L368.389 40.2408ZM366.486 37.7989L371.078 35.8198C370.965 35.5567 370.844 35.1104 370.844 34.3803H365.844H360.844C360.844 36.2206 361.151 38.0533 361.895 39.7781L366.486 37.7989ZM365.844 34.3803H370.844C370.844 33.5089 371.017 32.996 371.187 32.683L366.795 30.2933L362.403 27.9036C361.305 29.9211 360.844 32.1329 360.844 34.3803H365.844ZM366.795 30.2933L371.187 32.683C371.404 32.2838 371.657 32.0296 371.989 31.8304L369.417 27.5429L366.844 23.2555C364.949 24.3929 363.454 25.9722 362.403 27.9036L366.795 30.2933ZM369.417 27.5429L372.037 31.8012C372.664 31.4153 373.406 31.1032 374.299 30.8911L373.144 26.0264L371.989 21.1617C370.14 21.6007 368.397 22.2996 366.796 23.2846L369.417 27.5429ZM373.144 26.0264L374.342 30.8806C375.285 30.6479 376.393 30.5123 377.694 30.5123V25.5123V20.5123C375.704 20.5123 373.779 20.7194 371.945 21.1722L373.144 26.0264ZM377.694 25.5123V30.5123C380.364 30.5123 381.913 31.1017 382.823 31.773L385.79 27.7486L388.758 23.7241C385.624 21.4137 381.774 20.5123 377.694 20.5123V25.5123ZM385.79 27.7486L382.862 31.8011C383.479 32.2472 383.849 32.7711 383.849 34.0461H388.849H393.849C393.849 29.8718 392.18 26.1973 388.719 23.6961L385.79 27.7486ZM388.849 34.0461V29.0461H381.138V34.0461V39.0461H388.849V34.0461ZM381.138 34.0461L386.096 33.3994C385.837 31.4134 384.907 29.6759 383.458 28.351L380.084 32.0412L376.71 35.7313C376.616 35.6451 376.485 35.4957 376.372 35.2801C376.257 35.063 376.201 34.8543 376.18 34.6928L381.138 34.0461ZM380.084 32.0412L383.566 28.4533C381.776 26.7155 379.529 26.1929 377.591 26.1929V31.1929V36.1929C377.704 36.1929 377.62 36.2088 377.413 36.1386C377.186 36.0611 376.884 35.9031 376.602 35.6291L380.084 32.0412ZM377.591 31.1929V26.1929C375.871 26.1929 373.79 26.5608 372.014 27.9714L375.123 31.887L378.233 35.8025C377.933 36.0407 377.664 36.1421 377.531 36.1797C377.41 36.2137 377.411 36.1929 377.591 36.1929V31.1929ZM375.123 31.887L372.014 27.9714C370.218 29.3974 369.249 31.4567 369.249 33.712H374.249H379.249C379.249 33.9936 379.191 34.404 378.977 34.8497C378.763 35.2975 378.473 35.6115 378.233 35.8025L375.123 31.887ZM374.249 33.712H369.249C369.249 34.8649 369.532 36.0135 370.123 37.0629L374.48 34.6116L378.838 32.1603C379.12 32.6614 379.249 33.2102 379.249 33.712H374.249ZM374.48 34.6116L370.123 37.0629C370.803 38.2721 371.764 39.0851 372.653 39.6188L375.226 35.3313L377.798 31.0439C378.002 31.1663 378.467 31.4994 378.838 32.1603L374.48 34.6116ZM375.226 35.3313L372.906 39.7605C373.289 39.9611 373.651 40.1471 373.992 40.3175L376.228 35.8454L378.464 31.3733C378.189 31.2353 377.883 31.0786 377.546 30.9022L375.226 35.3313ZM376.228 35.8454L374.288 40.4536C375.029 40.7657 375.821 40.9723 376.527 41.1221L377.565 36.231L378.603 31.3398C378.41 31.2989 378.276 31.2647 378.193 31.2405C378.104 31.2149 378.105 31.2104 378.169 31.2372L376.228 35.8454ZM377.565 36.231L376.671 41.1503C377.218 41.2499 377.612 41.3261 377.872 41.3808L378.902 36.488L379.932 31.5953C379.54 31.5128 379.043 31.4177 378.459 31.3116L377.565 36.231ZM378.902 36.488L378.16 41.4327C378.473 41.4797 378.938 41.5531 379.566 41.6549L380.367 36.7194L381.167 31.7838C380.527 31.68 380.016 31.5992 379.643 31.5433L378.902 36.488ZM380.367 36.7194L379.697 41.6743C380.337 41.7608 380.721 41.8149 380.892 41.8411L381.652 36.8993L382.412 31.9574C382.137 31.9151 381.665 31.8493 381.036 31.7644L380.367 36.7194ZM381.652 36.8993L380.851 41.8347C382.917 42.1701 383.893 42.7454 384.32 43.1355L387.692 39.444L391.065 35.7526C388.716 33.6065 385.665 32.4853 382.453 31.9639L381.652 36.8993ZM387.692 39.444L384.368 43.1785C384.476 43.2752 384.8 43.554 384.8 44.7648H389.8H394.8C394.8 41.3831 393.719 38.1147 391.017 35.7095L387.692 39.444ZM389.8 44.7648H384.8C384.8 46.2067 384.358 46.9738 383.501 47.6286L386.536 51.6021L389.571 55.5757C393.066 52.906 394.8 49.1149 394.8 44.7648H389.8ZM386.536 51.6021L383.521 47.6135C382.539 48.3556 380.666 49.0697 377.231 49.0697V54.0697V59.0697C381.85 59.0697 386.18 58.1388 389.551 55.5908L386.536 51.6021ZM377.231 54.0697V49.0697C374.039 49.0697 372.308 48.3982 371.399 47.7128L368.389 51.705L365.378 55.6971C368.65 58.1648 372.814 59.0697 377.231 59.0697V54.0697ZM368.389 51.705L371.399 47.7128C370.514 47.0451 370.253 46.4441 370.253 45.5359H365.253H360.253C360.253 49.7 362.082 53.2117 365.378 55.6971L368.389 51.705Z" fill="black" mask="url(#path-22-outside-1_1504_4963)"/>
<path d="M796.667 14.9941V51.1758C796.667 53.938 797.392 55.6101 798.45 56.6357C799.625 57.7458 801.295 58.418 803.745 58.418C806.197 58.418 807.843 57.7457 808.982 56.6504V56.6494C810.088 55.5876 810.822 53.9032 810.822 51.1758V14.9941H831.173V53.0049C831.173 59.7217 828.601 65.2419 823.473 69.3174C818.427 73.3499 811.76 75.2285 803.745 75.2285C795.752 75.2285 789.088 73.3467 784.018 69.3174L784.012 69.3125L784.005 69.3066C778.912 65.2038 776.36 59.6754 776.36 52.9648V14.9941H796.667Z" fill="white" stroke="black" stroke-width="5"/>
<path d="M740.654 14.9941V33.9912L756.001 15.8779L756.75 14.9941H779.543L776.065 19.1084L757.317 41.2852L776.914 70.377L779.539 74.2744H755.527L754.788 73.1396L742.674 54.5596L740.654 56.8213V74.2744H720.305V14.9941H740.654Z" fill="white" stroke="black" stroke-width="5"/>
<path d="M680.538 14.9941V51.1758C680.538 53.938 681.263 55.6101 682.321 56.6357C683.496 57.7458 685.166 58.418 687.616 58.418C690.068 58.418 691.714 57.7457 692.854 56.6504V56.6494C693.959 55.5876 694.693 53.9032 694.693 51.1758V14.9941H715.044V53.0049C715.044 59.7217 712.472 65.2419 707.344 69.3174C702.298 73.3499 695.631 75.2285 687.616 75.2285C679.624 75.2285 672.959 73.3467 667.889 69.3174L667.883 69.3125L667.876 69.3066C662.783 65.2038 660.231 59.6754 660.231 52.9648V14.9941H680.538Z" fill="white" stroke="black" stroke-width="5"/>
<path d="M655.524 14.9941V53.0449C655.524 60.0277 653.426 65.7083 648.891 69.6455L648.883 69.6523C644.444 73.4744 638.448 75.2285 631.218 75.2285C627.356 75.2285 623.829 74.6624 620.676 73.4775L620.666 73.4746L620.656 73.4707C617.559 72.2779 614.963 70.6439 612.971 68.5088L612.959 68.4951C611.073 66.4439 609.633 64.1483 608.66 61.6152L608.656 61.6064C607.688 59.0541 607.211 56.3524 607.211 53.5215V51.0215H626.843L626.876 53.4873C626.897 55.0381 627.335 56.0117 627.979 56.6787C628.659 57.3314 629.6 57.7422 631.047 57.7422C632.811 57.7422 633.692 57.2703 634.174 56.7441C634.694 56.1763 635.174 55.0835 635.174 53.0049V14.9941H655.524Z" fill="white" stroke="black" stroke-width="5"/>
<path d="M567.408 14.9941L568.157 16.0137L586.519 40.9873V14.9941H605.671V74.2744H590.1L589.351 73.2471L570.952 48.0215V74.2744H551.757V14.9941H567.408Z" fill="white" stroke="black" stroke-width="5"/>
<path d="M545.853 14.9941V74.2744H525.503V14.9941H545.853Z" fill="white" stroke="black" stroke-width="5"/>
<path d="M484.281 14.9941V36.1494H499.292V14.9941H519.599V74.2744H499.292V52.6016H484.281V74.2744H463.932V14.9941H484.281Z" fill="white" stroke="black" stroke-width="5"/>
<path d="M434.236 13.999C438.062 13.9991 441.592 14.475 444.804 15.4609C447.971 16.4332 450.689 17.7854 452.878 19.5742C455.007 21.3145 456.69 23.3571 457.885 25.7031C459.091 28.0724 459.696 30.6094 459.696 33.2803V35.7803H440.797L440.676 33.4082C440.634 32.6013 440.27 31.7844 439.157 30.9189L439.139 30.9043L439.119 30.8887C438.172 30.1223 436.652 29.5762 434.236 29.5762C431.952 29.5762 430.563 30.0321 429.755 30.6152L429.749 30.6191C429.017 31.144 428.74 31.7096 428.74 32.5244C428.74 32.7951 428.804 33.1595 429.563 33.667C430.318 34.1709 431.585 34.6728 433.524 35.0674L434.397 35.2295L434.411 35.2314L442.578 36.6631H442.577C448.232 37.614 452.808 39.5291 455.987 42.6504C459.231 45.8347 460.766 50.0247 460.766 54.9521C460.766 61.1486 458.291 66.2139 453.407 69.9053C448.592 73.5667 441.976 75.2275 433.894 75.2275C430.234 75.2275 426.873 74.8818 423.83 74.167L423.816 74.1641L423.803 74.1602C420.848 73.4311 418.305 72.4616 416.251 71.1982L416.228 71.1846C414.241 69.933 412.541 68.4351 411.154 66.6846L411.146 66.6729L411.137 66.6621C409.82 64.9599 408.837 63.1761 408.249 61.3105L408.246 61.2988C407.689 59.5005 407.397 57.6347 407.364 55.71L407.322 53.168H426.701L426.854 55.5059C426.908 56.3434 427.317 57.2118 428.591 58.126C429.796 58.9708 431.634 59.5303 434.364 59.5303C437.08 59.5303 438.687 59.0386 439.562 58.4287C440.438 57.8174 440.715 57.2007 440.715 56.4238C440.715 55.804 440.526 55.4182 439.875 55.0273L439.855 55.0156C438.917 54.4398 437.134 53.8158 434.247 53.2734V53.2744L426.388 51.8037C420.83 50.7838 416.335 48.8433 413.215 45.7529C410.034 42.6023 408.519 38.4935 408.519 33.6777C408.519 29.6022 409.667 25.9654 412.029 22.8896C414.342 19.8522 417.479 17.6196 421.331 16.1514C425.147 14.6968 429.464 13.999 434.236 13.999Z" fill="white" stroke="black" stroke-width="5"/>
</g>
<defs>
<filter id="filter0_d_1504_4963" x="0.506445" y="0.899023" width="1073.16" height="290.862" filterUnits="userSpaceOnUse" color-interpolation-filters="sRGB">
<feFlood flood-opacity="0" result="BackgroundImageFix"/>
<feColorMatrix in="SourceAlpha" type="matrix" values="0 0 0 0 0 0 0 0 0 0 0 0 0 0 0 0 0 0 127 0" result="hardAlpha"/>
<feOffset dy="4"/>
<feGaussianBlur stdDeviation="7.3"/>
<feComposite in2="hardAlpha" operator="out"/>
<feColorMatrix type="matrix" values="0 0 0 0 0 0 0 0 0 0 0 0 0 0 0 0 0 0 0.25 0"/>
<feBlend mode="normal" in2="BackgroundImageFix" result="effect1_dropShadow_1504_4963"/>
<feBlend mode="normal" in="SourceGraphic" in2="effect1_dropShadow_1504_4963" result="shape"/>
</filter>
</defs>
</svg>
