<svg width="61" height="76" viewBox="0 0 61 76" fill="none" xmlns="http://www.w3.org/2000/svg">
<path d="M50.4193 10.3431L50.2311 10.155C44.9629 4.69853 38.0013 1.5 30.099 1.5C22.1966 1.5 15.235 4.69853 9.9668 9.96678L9.77861 10.3431C4.6986 15.6113 1.5 22.9492 1.5 31.0397C1.5 39.1301 4.69853 46.4682 9.77861 51.7364L9.9668 51.9245L30.099 72.9974L50.2311 52.1127L50.4193 51.9245C55.4993 46.6563 58.6979 39.3184 58.6979 31.0398C58.6979 22.9492 55.4994 15.6113 50.4193 10.3431Z" fill="#F69227" stroke="#FFECD0" stroke-width="3"/>
<path d="M44.0899 44.4956H39.1957V30.7384C39.1958 30.7071 39.1845 30.6768 39.1639 30.6531C39.1433 30.6294 39.1148 30.6138 39.0836 30.6091C39.0523 30.6045 39.0204 30.6112 38.9937 30.6279C38.967 30.6446 38.9473 30.6703 38.9382 30.7002C38.553 31.9404 37.7599 33.0175 36.6851 33.7601C35.6102 34.5027 34.3153 34.8683 33.0064 34.7986C31.467 34.6635 30.0369 33.955 29.0052 32.8162C27.9735 31.6774 27.4171 30.1934 27.4486 28.6641V27.0549C25.6488 27.0547 23.8665 27.4056 22.2036 28.0872C20.5408 28.7689 19.0298 29.7682 17.7571 31.0279C16.4844 32.2876 15.4749 33.7831 14.7862 35.429C14.0975 37.0749 13.743 38.839 13.7432 40.6205V42.558C13.7432 43.576 13.9458 44.584 14.3394 45.5245C14.733 46.465 15.3099 47.3195 16.0372 48.0392C16.7644 48.759 17.6278 49.3299 18.578 49.7194C19.5283 50.1089 20.5467 50.3093 21.5751 50.3092H28.582C28.2449 50.1555 27.9591 49.9097 27.7583 49.6008C27.5575 49.2918 27.4501 48.9325 27.4486 48.5651V46.4341H31.3637V48.5651C31.3623 48.9325 31.2548 49.2918 31.054 49.6008C30.8533 49.9097 30.5675 50.1555 30.2303 50.3092H36.414C36.0766 50.1557 35.7907 49.9099 35.5897 49.6009C35.3888 49.292 35.2812 48.9326 35.2797 48.5651V46.4341H39.1957V48.5651C39.1941 48.9326 39.0866 49.292 38.8856 49.6009C38.6847 49.9099 38.3987 50.1557 38.0614 50.3092H44.0899C44.8688 50.3092 45.6158 50.0029 46.1665 49.4578C46.7173 48.9127 47.0267 48.1733 47.0267 47.4024C47.0267 46.6315 46.7173 45.8921 46.1665 45.347C45.6158 44.8018 44.8688 44.4956 44.0899 44.4956ZM31.3637 15.4277L25.4902 19.3038V11.9535C25.4903 11.7619 25.5478 11.5745 25.6555 11.4152C25.7631 11.2559 25.9161 11.1318 26.0951 11.0585C26.274 10.9852 26.4709 10.9661 26.6608 11.0036C26.8507 11.041 27.0251 11.1334 27.162 11.2689L31.3637 15.4277ZM35.2797 15.4277L41.1532 19.3038V11.9535C41.1529 11.7621 41.0953 11.575 40.9877 11.4158C40.88 11.2567 40.7272 11.1327 40.5485 11.0595C40.3697 10.9863 40.1731 10.9671 39.9833 11.0043C39.7936 11.0416 39.6192 11.1337 39.4823 11.2689L35.2797 15.4277Z" fill="#FFECD0"/>
<path d="M39.1947 15.4272H25.4893V21.2408C25.4893 23.2967 26.3144 25.2683 27.7831 26.722C29.2517 28.1757 31.2437 28.9924 33.3208 28.9924C35.3978 28.9924 37.3898 28.1757 38.8585 26.722C40.3272 25.2683 41.1523 23.2967 41.1523 21.2408V15.4272H39.1947ZM29.8949 22.2101C29.5054 22.2101 29.1319 22.0569 28.8566 21.7844C28.5812 21.5118 28.4265 21.1421 28.4265 20.7567C28.4265 20.3712 28.5812 20.0015 28.8566 19.729C29.1319 19.4564 29.5054 19.3033 29.8949 19.3033C30.2843 19.3033 30.6578 19.4564 30.9332 19.729C31.2085 20.0015 31.3632 20.3712 31.3632 20.7567C31.3632 21.1421 31.2085 21.5118 30.9332 21.7844C30.6578 22.0569 30.2843 22.2101 29.8949 22.2101ZM37.2363 22.2101C36.8468 22.2101 36.4733 22.0569 36.198 21.7844C35.9226 21.5118 35.7679 21.1421 35.7679 20.7567C35.7679 20.3712 35.9226 20.0015 36.198 19.729C36.4733 19.4564 36.8468 19.3033 37.2363 19.3033C37.6257 19.3033 37.9992 19.4564 38.2746 19.729C38.5499 20.0015 38.7046 20.3712 38.7046 20.7567C38.7046 21.1421 38.5499 21.5118 38.2746 21.7844C37.9992 22.0569 37.6257 22.2101 37.2363 22.2101Z" fill="#FFECD0"/>
</svg>
