<svg width="61" height="76" viewBox="0 0 61 76" fill="none" xmlns="http://www.w3.org/2000/svg">
<path d="M50.4193 10.3431L50.2311 10.155C44.9629 4.69853 38.0013 1.5 30.099 1.5C22.1966 1.5 15.235 4.69853 9.9668 9.96678L9.77861 10.3431C4.6986 15.6113 1.5 22.9492 1.5 31.0397C1.5 39.1301 4.69853 46.4682 9.77861 51.7364L9.9668 51.9245L30.099 72.9974L50.2311 52.1127L50.4193 51.9245C55.4993 46.6563 58.6979 39.3184 58.6979 31.0398C58.6979 22.9492 55.4994 15.6113 50.4193 10.3431Z" fill="#3E26F3" stroke="#C8DBFF" stroke-width="3"/>
<path d="M40.2354 50.9468C40.2793 51.0863 40.1151 52.0808 40.0283 52.2192C39.6894 52.755 38.1291 53.15 37.501 53.2925C36.0159 53.629 34.4747 53.7805 32.9443 53.8745C33.0967 53.3288 33.2394 52.74 33.374 52.1128C34.418 50.7218 35.415 49.2994 36.3887 47.8628L40.2354 50.9468ZM23.751 47.8628C24.7374 49.3129 25.7444 50.7533 26.8281 52.1392C26.9597 52.7499 27.0996 53.3238 27.248 53.8569C25.5636 53.7379 23.8552 53.5667 22.2402 53.1362C21.7045 52.9934 20.4328 52.6072 20.1299 52.1636C19.9438 51.8907 19.9652 51.2033 19.9033 50.8647L23.751 47.8628ZM25.9287 45.9878C26.0641 47.466 26.2396 48.8553 26.4492 50.1304C25.7618 49.1909 25.1045 48.2311 24.4785 47.2563C24.4694 47.1556 25.4514 46.4062 25.6045 46.2739C25.7136 46.1797 25.8201 46.0826 25.9287 45.9878ZM34.2607 46.0581C34.7223 46.4649 35.1871 46.8686 35.6611 47.2632C35.0356 48.191 34.4091 49.1192 33.7627 50.0347C33.9621 48.8062 34.1297 47.4732 34.2607 46.0581ZM40.5693 40.1421C40.5751 40.2835 40.6264 40.438 40.6348 40.5757C40.7515 42.4941 40.6726 44.4794 40.5898 46.395C40.5393 47.5601 40.5077 48.7269 40.373 49.8862L36.8887 47.0581C38.2005 44.7962 39.5681 42.5493 40.5693 40.1421ZM19.5908 40.1841C19.6069 40.3439 19.6815 40.4919 19.7451 40.6372C20.7193 42.8682 21.9756 44.9776 23.2451 47.0649L19.7871 49.8032L19.5459 45.9448L19.5039 40.2456L19.5908 40.1841ZM39.1699 33.6304C39.6533 35.0903 40.0953 36.5627 40.459 38.0552C39.3048 40.9779 37.7744 43.7458 36.168 46.4604C36.0866 46.4521 36.0327 46.4011 35.9727 46.3569C35.5437 46.0429 35.0741 45.6326 34.6113 45.2095L34.3535 44.9692C34.5047 43.0067 34.5889 40.9052 34.5889 38.7202C34.5889 38.243 34.5829 37.7699 34.5752 37.3013C35.4164 36.3314 36.2331 35.3439 37.0117 34.3345C37.4865 33.719 38.0284 32.7978 38.5254 32.2603C38.5685 32.2136 38.5929 32.1582 38.6748 32.1743L39.1699 33.6304ZM21.4639 32.1323C21.4805 32.1478 21.6338 32.4399 21.6904 32.5171C22.9185 34.2038 24.2403 35.8278 25.6201 37.4067C25.6135 37.8409 25.6094 38.2788 25.6094 38.7202C25.6094 40.8635 25.6883 42.9266 25.834 44.8569C25.2177 45.3965 24.595 45.9296 23.9697 46.4585C22.3106 43.8182 20.8766 41.0568 19.6436 38.2134C19.9686 36.1638 20.9035 34.1883 21.3779 32.1948C21.3897 32.1457 21.3903 32.0639 21.4639 32.1323ZM30.0898 15.7837C30.8545 16.9199 31.6751 18.0227 32.418 19.1733C34.0845 21.7558 35.5101 24.4727 36.7344 27.2632C37.2816 28.5108 37.8063 29.7696 38.2725 31.0474C37.1246 32.7362 35.864 34.3527 34.542 35.9233C34.231 26.4268 32.3606 19.1265 30.0986 19.1265C27.8262 19.1269 25.9492 26.4952 25.6514 36.0562C24.2883 34.4523 22.9547 32.7816 21.8164 31.0405C23.7605 25.6064 26.5175 20.494 30 15.8101L30.0898 15.7847V15.7837ZM20.1357 30.2339C20.2503 30.475 20.7862 31.0543 20.7666 31.2817L19.7217 34.3608L20.1357 30.2339ZM40.3721 34.3179L39.9707 33.2388L39.3291 31.2817C39.3113 31.0277 39.8003 30.5272 39.917 30.2759L40.3721 34.3179ZM21.6162 22.3892C22.1098 23.3881 22.6225 24.3737 23.1953 25.3335C22.4969 26.8553 21.8454 28.3942 21.2236 29.9458C21.2028 29.9986 21.2004 30.0547 21.2021 30.1099L21.1475 30.1157C21.1113 30.1124 21.1253 30.0838 21.1055 30.0562C20.9509 29.844 20.4238 29.1051 20.3555 28.9106C20.3263 28.8268 20.3259 28.7704 20.3281 28.6841C20.3478 27.8798 20.6617 26.596 20.8242 25.7671C21.0464 24.6342 21.3051 23.5014 21.6162 22.3892ZM38.4111 22.4028C38.44 22.4233 38.4427 22.4623 38.4541 22.4966C38.6283 23.0108 38.7579 23.6989 38.8799 24.2388C39.2154 25.7259 39.459 27.2321 39.7178 28.7329C39.5269 29.2042 39.1947 29.6362 38.915 30.0679L36.8643 25.2993C37.4014 24.3482 38.0008 23.4158 38.3711 22.3892L38.4111 22.4028ZM23.8613 15.7427C24.4878 17.2077 25.349 18.581 26.0391 20.0122C25.6295 20.7722 25.17 21.5084 24.7539 22.2651C24.4163 22.8799 24.1001 23.6632 23.7402 24.2358C23.7224 24.2639 23.6733 24.3477 23.6445 24.3296L21.9932 21.0493C22.4598 19.4112 22.9264 17.7218 23.623 16.1567C23.6449 16.1075 23.8117 15.7063 23.8613 15.7427ZM36.2568 15.7837C37.0171 17.4975 37.5659 19.2912 38.0596 21.0913L36.4082 24.2876L34.0127 20.0132L36.2568 15.7837ZM29.4297 14.9858L26.5635 19.0874L24.2949 14.6079C24.83 13.4028 25.386 12.1865 26.1934 11.1196L29.4297 14.9858ZM33.7959 11.1187C33.8742 11.1034 33.9044 11.1554 33.9453 11.2036C34.215 11.5198 34.5672 12.1835 34.7764 12.563C35.1406 13.2219 35.461 13.9084 35.7451 14.6021C34.9944 16.0528 34.3369 17.5594 33.5361 18.9858C33.5118 19.0291 33.4991 19.104 33.4258 19.0874L30.627 15.02L33.7959 11.1196V11.1187ZM30.1602 8.69775C31.3998 8.7644 32.4953 9.42374 33.2285 10.353L30.0264 14.2554L26.7783 10.354C27.3426 9.61085 28.1335 8.99313 29.0977 8.79248C29.3438 8.74132 29.662 8.69437 29.9102 8.69189L30.1602 8.69775Z" fill="#C8DBFF"/>
<mask id="mask0_1819_297" style="mask-type:alpha" maskUnits="userSpaceOnUse" x="20" y="15" width="21" height="39">
<path d="M40.3994 52.1501C31.8346 55.3716 23.845 53.6974 20.1367 52.1501L23.2633 15.6924L38.0404 17.3758C39.0032 28.2389 40.823 50.4021 40.3994 52.1501Z" fill="#D9D9D9"/>
</mask>
<g mask="url(#mask0_1819_297)">
<ellipse cx="30.0991" cy="38.7206" rx="4.48974" ry="19.5941" stroke="#C8DBFF"/>
</g>
</svg>
