<svg width="61" height="76" viewBox="0 0 61 76" fill="none" xmlns="http://www.w3.org/2000/svg">
<path d="M50.4193 10.3431L50.2311 10.155C44.9629 4.69853 38.0013 1.5 30.099 1.5C22.1966 1.5 15.235 4.69853 9.9668 9.96678L9.77861 10.3431C4.6986 15.6113 1.5 22.9492 1.5 31.0397C1.5 39.1301 4.69853 46.4682 9.77861 51.7364L9.9668 51.9245L30.099 72.9974L50.2311 52.1127L50.4193 51.9245C55.4993 46.6563 58.6979 39.3184 58.6979 31.0398C58.6979 22.9492 55.4994 15.6113 50.4193 10.3431Z" fill="#4DC21F" stroke="#C9FFCD" stroke-width="3"/>
<path d="M47.3069 40.3139L38.905 29.4392H43.5144L30.0075 11.272L16.5005 29.4392H21.11L12.708 40.3139H27.8079V49.8882H32.2046V40.3139H47.3069Z" fill="#C9FFCD"/>
</svg>
