<svg width="61" height="76" viewBox="0 0 61 76" fill="none" xmlns="http://www.w3.org/2000/svg">
<path d="M50.4193 10.3431L50.2311 10.155C44.9629 4.69853 38.0013 1.5 30.099 1.5C22.1966 1.5 15.235 4.69853 9.9668 9.96678L9.77861 10.3431C4.6986 15.6113 1.5 22.9492 1.5 31.0397C1.5 39.1301 4.69853 46.4682 9.77861 51.7364L9.9668 51.9245L30.099 72.9974L50.2311 52.1127L50.4193 51.9245C55.4993 46.6563 58.6979 39.3184 58.6979 31.0398C58.6979 22.9492 55.4994 15.6113 50.4193 10.3431Z" fill="#F69227" stroke="#FFECD0" stroke-width="3"/>
<path d="M18.3586 16.8608C18.5956 16.8608 18.8302 16.907 19.0491 16.9968C19.2681 17.0865 19.467 17.2181 19.6345 17.3839C19.802 17.5497 19.9349 17.7466 20.0255 17.9632C20.1161 18.1799 20.1627 18.4121 20.1626 18.6465V32.9267H16.5537V18.6465C16.5536 18.412 16.6002 18.1797 16.6909 17.963C16.7815 17.7463 16.9145 17.5494 17.0821 17.3836C17.2497 17.2178 17.4487 17.0862 17.6678 16.9965C17.8868 16.9068 18.1215 16.8607 18.3586 16.8608Z" fill="#FFECD0"/>
<path d="M33.7996 33.5583C34.0152 33.2747 34.3357 33.0873 34.6908 33.0372C35.0458 32.9871 35.4065 33.0783 35.6937 33.2909C36.9486 34.2206 38.4408 33.8196 40.0101 33.8196V32.9268L35.0476 30.8626C33.5311 28.8619 36.409 27.7009 34.0759 26.8209C28.0845 24.5622 20.4501 26.0026 16.5537 31.142V46.315C16.5537 47.0252 16.8389 47.7063 17.3464 48.2084C17.854 48.7106 18.5424 48.9927 19.2602 48.9927C19.9779 48.9927 20.6663 48.7106 21.1739 48.2084C21.6815 47.7063 21.9666 47.0252 21.9666 46.315V39.5365C23.9686 38.7152 26.1146 38.2924 28.2819 38.2924C30.4492 38.2924 32.5952 38.7152 34.5972 39.5365V46.315C34.5972 47.0252 34.8824 47.7063 35.3899 48.2084C35.8975 48.7106 36.5859 48.9927 37.3037 48.9927C38.0215 48.9927 38.7099 48.7106 39.2174 48.2084C39.725 47.7063 40.0101 47.0252 40.0101 46.315V37.3901C37.8676 37.3956 35.782 36.7084 34.0707 35.4331C33.9285 35.3276 33.8087 35.1955 33.7181 35.0443C33.6275 34.8931 33.568 34.7257 33.5428 34.5517C33.5176 34.3776 33.5273 34.2004 33.5714 34.0301C33.6155 33.8598 33.693 33.6998 33.7996 33.5591V33.5583ZM38.2052 22.2162L32.7924 25.7867V19.0158C32.7925 18.8393 32.8455 18.6667 32.9447 18.52C33.0439 18.3732 33.1849 18.2589 33.3498 18.1914C33.5147 18.1239 33.6961 18.1062 33.8712 18.1408C34.0462 18.1753 34.2069 18.2603 34.3331 18.3852L38.2052 22.2162ZM41.8141 22.2162L47.227 25.7867V19.0158C47.2267 18.8395 47.1737 18.6671 47.0745 18.5205C46.9753 18.374 46.8345 18.2597 46.6697 18.1923C46.505 18.1248 46.3238 18.1071 46.1489 18.1415C45.974 18.1758 45.8134 18.2606 45.6872 18.3852L41.8141 22.2162Z" fill="#FFECD0"/>
<path d="M45.4226 22.2163H32.792V27.5716C32.792 28.5093 32.9787 29.4378 33.3414 30.3042C33.7041 31.1705 34.2357 31.9577 34.9059 32.6207C35.5761 33.2838 36.3717 33.8098 37.2474 34.1686C38.123 34.5275 39.0615 34.7122 40.0093 34.7122C40.9571 34.7122 41.8956 34.5275 42.7713 34.1686C43.6469 33.8098 44.4425 33.2838 45.1127 32.6207C45.7829 31.9577 46.3146 31.1705 46.6773 30.3042C47.04 29.4378 47.2266 28.5093 47.2266 27.5716V22.2163H45.4226ZM36.8521 28.4644C36.4932 28.4644 36.149 28.3234 35.8952 28.0723C35.6414 27.8212 35.4989 27.4807 35.4989 27.1256C35.4989 26.7705 35.6414 26.43 35.8952 26.1789C36.149 25.9278 36.4932 25.7868 36.8521 25.7868C37.211 25.7868 37.5552 25.9278 37.809 26.1789C38.0627 26.43 38.2053 26.7705 38.2053 27.1256C38.2053 27.4807 38.0627 27.8212 37.809 28.0723C37.5552 28.3234 37.211 28.4644 36.8521 28.4644ZM43.6178 28.4644C43.2589 28.4644 42.9147 28.3234 42.6609 28.0723C42.4071 27.8212 42.2645 27.4807 42.2645 27.1256C42.2645 26.7705 42.4071 26.43 42.6609 26.1789C42.9147 25.9278 43.2589 25.7868 43.6178 25.7868C43.9767 25.7868 44.3209 25.9278 44.5746 26.1789C44.8284 26.43 44.971 26.7705 44.971 27.1256C44.971 27.4807 44.8284 27.8212 44.5746 28.0723C44.3209 28.3234 43.9767 28.4644 43.6178 28.4644Z" fill="#FFECD0"/>
</svg>
