<svg width="61" height="76" viewBox="0 0 61 76" fill="none" xmlns="http://www.w3.org/2000/svg">
<path d="M50.4193 10.3431L50.2311 10.155C44.9629 4.69853 38.0013 1.5 30.099 1.5C22.1966 1.5 15.235 4.69853 9.9668 9.96678L9.77861 10.3431C4.6986 15.6113 1.5 22.9492 1.5 31.0397C1.5 39.1301 4.69853 46.4682 9.77861 51.7364L9.9668 51.9245L30.099 72.9974L50.2311 52.1127L50.4193 51.9245C55.4993 46.6563 58.6979 39.3184 58.6979 31.0398C58.6979 22.9492 55.4994 15.6113 50.4193 10.3431Z" fill="#BC34FB" stroke="#F1D1FF" stroke-width="3"/>
<path d="M27.7839 27.5616C27.7839 27.5616 28.4909 27.1509 29.5382 26.9461C31.4096 26.5804 33.0032 26.4633 33.705 27.6923C34.5632 29.1955 35.3204 32.3815 35.1523 35.1978C35.0646 36.6682 34.7466 37.14 34.7466 37.14C34.7466 37.14 33.4006 37.9762 30.5908 37.7436C27.5425 37.4912 27.082 36.4264 27.082 36.4264C27.082 36.4264 27.4768 35.434 27.7839 32.6957C28.0908 29.9574 27.7839 27.5616 27.7839 27.5616Z" fill="#F1D1FF"/>
<path d="M24.2753 33.9688C25.3767 33.6771 26.297 33.3377 26.7033 33.1801C26.7642 32.7669 26.8157 32.327 26.852 31.862C26.8758 31.5582 26.8929 31.2691 26.9049 30.9933C26.3032 30.7885 25.7168 30.5675 24.3794 30.1063C20.9857 28.9359 19.3629 28.614 19.3629 28.614C19.3629 28.614 20.613 28.3946 23.0691 28.8774C24.8235 29.2223 26.0882 29.7113 26.9269 30.1356C26.9946 28.7311 26.7095 27.2753 26.7095 27.2753C24.7796 23.742 18.6173 18.7822 15.5307 18.7822C13.2061 18.7822 10.9336 24.7954 10.9336 31.4231C10.9336 38.0508 12.9553 44.064 15.4553 44.064C18.3835 44.064 25.6789 37.0413 25.6789 37.0413C25.6789 37.0413 26.1826 35.9371 26.5461 34.0942C24.8968 34.5505 20.942 34.8467 20.942 34.8467C20.942 34.8467 22.7841 34.3639 24.2753 33.9688Z" fill="#F1D1FF"/>
<path d="M45.6632 18.7822C42.4705 18.7822 36.6774 23.742 34.7475 27.2753L34.6807 27.396C34.6807 27.396 34.8026 27.6178 34.8451 27.6923C35.1457 28.2186 35.4336 28.9518 35.6739 29.8027C36.3863 29.5565 37.7455 29.086 38.9678 28.6579C40.7222 28.0434 42.0381 27.824 42.0381 27.824C42.0381 27.824 37.3871 29.908 35.9279 30.8318C36.1183 31.7236 36.2521 32.6927 36.2982 33.6621C36.7742 33.8566 37.7511 34.2305 38.9241 34.5394C40.5908 34.9783 42.4704 35.5489 42.4704 35.5489C42.4704 35.5489 37.7124 35.0863 36.3155 34.4497C36.3144 34.7009 36.3072 34.9509 36.2925 35.1978C36.2049 36.6655 35.888 37.1382 35.8867 37.1399C36.5557 38.0654 42.4705 44.064 45.7385 44.064C48.2386 44.064 50.2603 38.0508 50.2603 31.4231C50.2603 24.7954 47.9877 18.7822 45.6632 18.7822Z" fill="#F1D1FF"/>
</svg>
