<svg width="61" height="76" viewBox="0 0 61 76" fill="none" xmlns="http://www.w3.org/2000/svg">
<g filter="url(#filter0_i_1817_2)">
<path d="M50.4193 10.3431L50.2311 10.155C44.9629 4.69853 38.0013 1.5 30.099 1.5C22.1966 1.5 15.235 4.69853 9.9668 9.96678L9.77861 10.3431C4.6986 15.6113 1.5 22.9492 1.5 31.0397C1.5 39.1301 4.69853 46.4682 9.77861 51.7364L9.9668 51.9245L30.099 72.9974L50.2311 52.1127L50.4193 51.9245C55.4993 46.6563 58.6979 39.3184 58.6979 31.0398C58.6979 22.9492 55.4994 15.6113 50.4193 10.3431Z" fill="url(#paint0_linear_1817_2)"/>
<path d="M50.4193 10.3431L50.2311 10.155C44.9629 4.69853 38.0013 1.5 30.099 1.5C22.1966 1.5 15.235 4.69853 9.9668 9.96678L9.77861 10.3431C4.6986 15.6113 1.5 22.9492 1.5 31.0397C1.5 39.1301 4.69853 46.4682 9.77861 51.7364L9.9668 51.9245L30.099 72.9974L50.2311 52.1127L50.4193 51.9245C55.4993 46.6563 58.6979 39.3184 58.6979 31.0398C58.6979 22.9492 55.4994 15.6113 50.4193 10.3431Z" fill="url(#paint1_linear_1817_2)"/>
<path d="M50.4193 10.3431L50.2311 10.155C44.9629 4.69853 38.0013 1.5 30.099 1.5C22.1966 1.5 15.235 4.69853 9.9668 9.96678L9.77861 10.3431C4.6986 15.6113 1.5 22.9492 1.5 31.0397C1.5 39.1301 4.69853 46.4682 9.77861 51.7364L9.9668 51.9245L30.099 72.9974L50.2311 52.1127L50.4193 51.9245C55.4993 46.6563 58.6979 39.3184 58.6979 31.0398C58.6979 22.9492 55.4994 15.6113 50.4193 10.3431Z" fill="#1774FF" fill-opacity="0.39"/>
</g>
<path d="M50.4193 10.3431L50.2311 10.155C44.9629 4.69853 38.0013 1.5 30.099 1.5C22.1966 1.5 15.235 4.69853 9.9668 9.96678L9.77861 10.3431C4.6986 15.6113 1.5 22.9492 1.5 31.0397C1.5 39.1301 4.69853 46.4682 9.77861 51.7364L9.9668 51.9245L30.099 72.9974L50.2311 52.1127L50.4193 51.9245C55.4993 46.6563 58.6979 39.3184 58.6979 31.0398C58.6979 22.9492 55.4994 15.6113 50.4193 10.3431Z" stroke="url(#paint2_linear_1817_2)" stroke-width="3"/>
<path d="M50.4193 10.3431L50.2311 10.155C44.9629 4.69853 38.0013 1.5 30.099 1.5C22.1966 1.5 15.235 4.69853 9.9668 9.96678L9.77861 10.3431C4.6986 15.6113 1.5 22.9492 1.5 31.0397C1.5 39.1301 4.69853 46.4682 9.77861 51.7364L9.9668 51.9245L30.099 72.9974L50.2311 52.1127L50.4193 51.9245C55.4993 46.6563 58.6979 39.3184 58.6979 31.0398C58.6979 22.9492 55.4994 15.6113 50.4193 10.3431Z" stroke="url(#paint3_linear_1817_2)" stroke-width="3"/>
<g filter="url(#filter1_d_1817_2)">
<path d="M43.7448 17.0571H16.4535C15.7593 17.0571 15.0935 17.3329 14.6026 17.8238C14.1117 18.3147 13.8359 18.9805 13.8359 19.6747V42.3813C13.8521 43.0647 14.135 43.7147 14.6242 44.1923C15.1133 44.6698 15.7699 44.9371 16.4535 44.9369H43.7448C44.4284 44.9371 45.085 44.6698 45.5741 44.1923C46.0633 43.7147 46.3462 43.0647 46.3624 42.3813V19.6747C46.3624 19.331 46.2947 18.9906 46.1631 18.673C46.0316 18.3554 45.8387 18.0669 45.5957 17.8238C45.3526 17.5807 45.064 17.3879 44.7465 17.2564C44.4289 17.1248 44.0885 17.0571 43.7448 17.0571ZM39.4544 31.1829C39.2303 31.0169 38.9588 30.9273 38.6799 30.9273C38.4011 30.9273 38.1296 31.0169 37.9055 31.1829L32.2521 34.9931L24.2134 24.9719C24.0915 24.8385 23.9432 24.732 23.7778 24.6592C23.6125 24.5863 23.4338 24.5487 23.2531 24.5487C23.0724 24.5487 22.8937 24.5863 22.7284 24.6592C22.5631 24.732 22.4147 24.8385 22.2928 24.9719L16.4535 30.9041V19.6747H43.7448V32.9641L39.4544 31.1829Z" fill="url(#paint4_linear_1817_2)"/>
<path d="M43.7448 17.0571H16.4535C15.7593 17.0571 15.0935 17.3329 14.6026 17.8238C14.1117 18.3147 13.8359 18.9805 13.8359 19.6747V42.3813C13.8521 43.0647 14.135 43.7147 14.6242 44.1923C15.1133 44.6698 15.7699 44.9371 16.4535 44.9369H43.7448C44.4284 44.9371 45.085 44.6698 45.5741 44.1923C46.0633 43.7147 46.3462 43.0647 46.3624 42.3813V19.6747C46.3624 19.331 46.2947 18.9906 46.1631 18.673C46.0316 18.3554 45.8387 18.0669 45.5957 17.8238C45.3526 17.5807 45.064 17.3879 44.7465 17.2564C44.4289 17.1248 44.0885 17.0571 43.7448 17.0571ZM39.4544 31.1829C39.2303 31.0169 38.9588 30.9273 38.6799 30.9273C38.4011 30.9273 38.1296 31.0169 37.9055 31.1829L32.2521 34.9931L24.2134 24.9719C24.0915 24.8385 23.9432 24.732 23.7778 24.6592C23.6125 24.5863 23.4338 24.5487 23.2531 24.5487C23.0724 24.5487 22.8937 24.5863 22.7284 24.6592C22.5631 24.732 22.4147 24.8385 22.2928 24.9719L16.4535 30.9041V19.6747H43.7448V32.9641L39.4544 31.1829Z" fill="url(#paint5_linear_1817_2)"/>
<path d="M16.4531 17.1411H43.7451C44.0775 17.1412 44.4067 17.2064 44.7139 17.3335C45.0213 17.4608 45.3009 17.648 45.5361 17.8833C45.7714 18.1186 45.9586 18.3982 46.0859 18.7056C46.2131 19.0127 46.2783 19.3419 46.2783 19.6743V42.3813C46.2621 43.0421 45.9886 43.6705 45.5156 44.1323C45.0422 44.5945 44.4067 44.8531 43.7451 44.853H16.4531C15.7915 44.8531 15.156 44.5945 14.6826 44.1323C14.2683 43.7278 14.0069 43.1954 13.9375 42.6255L13.9199 42.3794V19.6743C13.92 19.0025 14.187 18.3584 14.6621 17.8833C15.1372 17.4082 15.7813 17.1412 16.4531 17.1411ZM16.3701 31.1089L16.5137 30.9634L22.3525 25.0308L22.3545 25.0288C22.4685 24.904 22.608 24.804 22.7627 24.7358C22.9172 24.6678 23.0841 24.6323 23.2529 24.6323C23.422 24.6323 23.5895 24.6677 23.7441 24.7358C23.8986 24.8039 24.0374 24.9033 24.1514 25.0278L32.1865 35.0454L32.2354 35.106L32.2988 35.063L37.9521 31.2524L37.9551 31.2505C38.1646 31.0952 38.4189 31.0113 38.6797 31.0112C38.9406 31.0112 39.1947 31.0952 39.4043 31.2505L39.4131 31.2563L39.4219 31.2603L43.7129 33.0415L43.8291 33.0894V19.5913H16.3701V31.1089Z" stroke="url(#paint6_linear_1817_2)" stroke-width="0.167785"/>
<path d="M16.4531 17.1411H43.7451C44.0775 17.1412 44.4067 17.2064 44.7139 17.3335C45.0213 17.4608 45.3009 17.648 45.5361 17.8833C45.7714 18.1186 45.9586 18.3982 46.0859 18.7056C46.2131 19.0127 46.2783 19.3419 46.2783 19.6743V42.3813C46.2621 43.0421 45.9886 43.6705 45.5156 44.1323C45.0422 44.5945 44.4067 44.8531 43.7451 44.853H16.4531C15.7915 44.8531 15.156 44.5945 14.6826 44.1323C14.2683 43.7278 14.0069 43.1954 13.9375 42.6255L13.9199 42.3794V19.6743C13.92 19.0025 14.187 18.3584 14.6621 17.8833C15.1372 17.4082 15.7813 17.1412 16.4531 17.1411ZM16.3701 31.1089L16.5137 30.9634L22.3525 25.0308L22.3545 25.0288C22.4685 24.904 22.608 24.804 22.7627 24.7358C22.9172 24.6678 23.0841 24.6323 23.2529 24.6323C23.422 24.6323 23.5895 24.6677 23.7441 24.7358C23.8986 24.8039 24.0374 24.9033 24.1514 25.0278L32.1865 35.0454L32.2354 35.106L32.2988 35.063L37.9521 31.2524L37.9551 31.2505C38.1646 31.0952 38.4189 31.0113 38.6797 31.0112C38.9406 31.0112 39.1947 31.0952 39.4043 31.2505L39.4131 31.2563L39.4219 31.2603L43.7129 33.0415L43.8291 33.0894V19.5913H16.3701V31.1089Z" stroke="url(#paint7_linear_1817_2)" stroke-width="0.167785"/>
</g>
<path d="M36.8516 22.438C37.8029 22.438 38.715 22.8161 39.3877 23.4888C40.0603 24.1614 40.4385 25.0736 40.4385 26.0249C40.4385 26.7343 40.2281 27.4282 39.834 28.0181C39.44 28.6077 38.8797 29.0669 38.2246 29.3384C37.5692 29.6099 36.8472 29.6809 36.1514 29.5425C35.4558 29.404 34.817 29.0625 34.3154 28.561C33.8139 28.0595 33.4715 27.4208 33.333 26.7251C33.1946 26.0293 33.2656 25.3073 33.5371 24.6519C33.8086 23.9966 34.2687 23.4366 34.8584 23.0425C35.4483 22.6483 36.1421 22.438 36.8516 22.438ZM36.6299 24.8325C36.4094 24.8764 36.2068 24.9842 36.0479 25.1431C35.8889 25.302 35.7803 25.5047 35.7363 25.7251C35.6925 25.9456 35.7148 26.1746 35.8008 26.3823C35.8868 26.5901 36.0327 26.7681 36.2197 26.8931C36.3833 27.0023 36.5724 27.0631 36.7676 27.0776V27.146L36.8516 27.147C37.0066 27.1472 37.1603 27.1155 37.3027 27.0542C37.4451 26.993 37.5733 26.9031 37.6797 26.7905C37.7862 26.6777 37.8688 26.5437 37.9219 26.3979C37.9617 26.2886 37.9843 26.174 37.9893 26.0581L37.9883 25.9429C37.9874 25.7196 37.9209 25.5016 37.7969 25.3159C37.672 25.129 37.4947 24.9831 37.2871 24.897C37.0794 24.8109 36.8504 24.7887 36.6299 24.8325Z" fill="url(#paint8_linear_1817_2)"/>
<path d="M36.8516 22.438C37.8029 22.438 38.715 22.8161 39.3877 23.4888C40.0603 24.1614 40.4385 25.0736 40.4385 26.0249C40.4385 26.7343 40.2281 27.4282 39.834 28.0181C39.44 28.6077 38.8797 29.0669 38.2246 29.3384C37.5692 29.6099 36.8472 29.6809 36.1514 29.5425C35.4558 29.404 34.817 29.0625 34.3154 28.561C33.8139 28.0595 33.4715 27.4208 33.333 26.7251C33.1946 26.0293 33.2656 25.3073 33.5371 24.6519C33.8086 23.9966 34.2687 23.4366 34.8584 23.0425C35.4483 22.6483 36.1421 22.438 36.8516 22.438ZM36.6299 24.8325C36.4094 24.8764 36.2068 24.9842 36.0479 25.1431C35.8889 25.302 35.7803 25.5047 35.7363 25.7251C35.6925 25.9456 35.7148 26.1746 35.8008 26.3823C35.8868 26.5901 36.0327 26.7681 36.2197 26.8931C36.3833 27.0023 36.5724 27.0631 36.7676 27.0776V27.146L36.8516 27.147C37.0066 27.1472 37.1603 27.1155 37.3027 27.0542C37.4451 26.993 37.5733 26.9031 37.6797 26.7905C37.7862 26.6777 37.8688 26.5437 37.9219 26.3979C37.9617 26.2886 37.9843 26.174 37.9893 26.0581L37.9883 25.9429C37.9874 25.7196 37.9209 25.5016 37.7969 25.3159C37.672 25.129 37.4947 24.9831 37.2871 24.897C37.0794 24.8109 36.8504 24.7887 36.6299 24.8325Z" stroke="url(#paint9_linear_1817_2)" stroke-width="0.167785"/>
<path d="M36.8516 22.438C37.8029 22.438 38.715 22.8161 39.3877 23.4888C40.0603 24.1614 40.4385 25.0736 40.4385 26.0249C40.4385 26.7343 40.2281 27.4282 39.834 28.0181C39.44 28.6077 38.8797 29.0669 38.2246 29.3384C37.5692 29.6099 36.8472 29.6809 36.1514 29.5425C35.4558 29.404 34.817 29.0625 34.3154 28.561C33.8139 28.0595 33.4715 27.4208 33.333 26.7251C33.1946 26.0293 33.2656 25.3073 33.5371 24.6519C33.8086 23.9966 34.2687 23.4366 34.8584 23.0425C35.4483 22.6483 36.1421 22.438 36.8516 22.438ZM36.6299 24.8325C36.4094 24.8764 36.2068 24.9842 36.0479 25.1431C35.8889 25.302 35.7803 25.5047 35.7363 25.7251C35.6925 25.9456 35.7148 26.1746 35.8008 26.3823C35.8868 26.5901 36.0327 26.7681 36.2197 26.8931C36.3833 27.0023 36.5724 27.0631 36.7676 27.0776V27.146L36.8516 27.147C37.0066 27.1472 37.1603 27.1155 37.3027 27.0542C37.4451 26.993 37.5733 26.9031 37.6797 26.7905C37.7862 26.6777 37.8688 26.5437 37.9219 26.3979C37.9617 26.2886 37.9843 26.174 37.9893 26.0581L37.9883 25.9429C37.9874 25.7196 37.9209 25.5016 37.7969 25.3159C37.672 25.129 37.4947 24.9831 37.2871 24.897C37.0794 24.8109 36.8504 24.7887 36.6299 24.8325Z" stroke="url(#paint10_linear_1817_2)" stroke-width="0.167785"/>
<defs>
<filter id="filter0_i_1817_2" x="0" y="0" width="60.1982" height="77.5636" filterUnits="userSpaceOnUse" color-interpolation-filters="sRGB">
<feFlood flood-opacity="0" result="BackgroundImageFix"/>
<feBlend mode="normal" in="SourceGraphic" in2="BackgroundImageFix" result="shape"/>
<feColorMatrix in="SourceAlpha" type="matrix" values="0 0 0 0 0 0 0 0 0 0 0 0 0 0 0 0 0 0 127 0" result="hardAlpha"/>
<feOffset dy="4"/>
<feGaussianBlur stdDeviation="1.2"/>
<feComposite in2="hardAlpha" operator="arithmetic" k2="-1" k3="1"/>
<feColorMatrix type="matrix" values="0 0 0 0 0 0 0 0 0 0 0 0 0 0 0 0 0 0 0.25 0"/>
<feBlend mode="normal" in2="shape" result="effect1_innerShadow_1817_2"/>
</filter>
<filter id="filter1_d_1817_2" x="12.5359" y="16.7571" width="35.1264" height="30.4799" filterUnits="userSpaceOnUse" color-interpolation-filters="sRGB">
<feFlood flood-opacity="0" result="BackgroundImageFix"/>
<feColorMatrix in="SourceAlpha" type="matrix" values="0 0 0 0 0 0 0 0 0 0 0 0 0 0 0 0 0 0 127 0" result="hardAlpha"/>
<feOffset dy="1"/>
<feGaussianBlur stdDeviation="0.65"/>
<feComposite in2="hardAlpha" operator="out"/>
<feColorMatrix type="matrix" values="0 0 0 0 0 0 0 0 0 0 0 0 0 0 0 0 0 0 0.25 0"/>
<feBlend mode="normal" in2="BackgroundImageFix" result="effect1_dropShadow_1817_2"/>
<feBlend mode="normal" in="SourceGraphic" in2="effect1_dropShadow_1817_2" result="shape"/>
</filter>
<linearGradient id="paint0_linear_1817_2" x1="30.0989" y1="1.5" x2="30.0989" y2="72.9974" gradientUnits="userSpaceOnUse">
<stop stop-color="#3352FF"/>
<stop offset="1" stop-color="#931CFB"/>
</linearGradient>
<linearGradient id="paint1_linear_1817_2" x1="30.0989" y1="1.54266" x2="37.411" y2="104.491" gradientUnits="userSpaceOnUse">
<stop stop-color="white"/>
<stop offset="0.205" stop-color="#8AFBFF"/>
<stop offset="0.425" stop-color="#EF78FF"/>
<stop offset="0.64" stop-color="#E4FFAB"/>
<stop offset="1" stop-color="white"/>
</linearGradient>
<linearGradient id="paint2_linear_1817_2" x1="30.0989" y1="1.5" x2="30.0989" y2="72.9974" gradientUnits="userSpaceOnUse">
<stop stop-color="#DEF7FF"/>
<stop offset="1" stop-color="#63FFED"/>
</linearGradient>
<linearGradient id="paint3_linear_1817_2" x1="34.3802" y1="6.09626" x2="32.411" y2="78.6115" gradientUnits="userSpaceOnUse">
<stop stop-color="white"/>
<stop offset="0.205" stop-color="#8AFBFF"/>
<stop offset="0.64" stop-color="#E4FFAB"/>
<stop offset="1" stop-color="white"/>
</linearGradient>
<linearGradient id="paint4_linear_1817_2" x1="30.0992" y1="17.0571" x2="30.0992" y2="44.9369" gradientUnits="userSpaceOnUse">
<stop stop-color="#DEF7FF"/>
<stop offset="1" stop-color="#63FFED"/>
</linearGradient>
<linearGradient id="paint5_linear_1817_2" x1="32.5338" y1="18.8494" x2="45.9158" y2="57.976" gradientUnits="userSpaceOnUse">
<stop stop-color="white"/>
<stop offset="0.205" stop-color="#8AFBFF"/>
<stop offset="0.64" stop-color="#E4FFAB"/>
<stop offset="1" stop-color="white"/>
</linearGradient>
<linearGradient id="paint6_linear_1817_2" x1="30.0992" y1="17.0571" x2="30.0992" y2="44.9369" gradientUnits="userSpaceOnUse">
<stop stop-color="#DEF7FF"/>
<stop offset="1" stop-color="#63FFED"/>
</linearGradient>
<linearGradient id="paint7_linear_1817_2" x1="32.5338" y1="18.8494" x2="32.007" y2="47.1371" gradientUnits="userSpaceOnUse">
<stop stop-color="white"/>
<stop offset="0.205" stop-color="#8AFBFF"/>
<stop offset="0.64" stop-color="#E4FFAB"/>
<stop offset="1" stop-color="white"/>
</linearGradient>
<linearGradient id="paint8_linear_1817_2" x1="36.8515" y1="22.354" x2="36.8515" y2="29.6957" gradientUnits="userSpaceOnUse">
<stop stop-color="#DEF7FF"/>
<stop offset="1" stop-color="#63FFED"/>
</linearGradient>
<linearGradient id="paint9_linear_1817_2" x1="36.8515" y1="22.354" x2="36.8515" y2="29.6957" gradientUnits="userSpaceOnUse">
<stop stop-color="#DEF7FF"/>
<stop offset="1" stop-color="#63FFED"/>
</linearGradient>
<linearGradient id="paint10_linear_1817_2" x1="37.401" y1="22.826" x2="37.2392" y2="30.2742" gradientUnits="userSpaceOnUse">
<stop stop-color="white"/>
<stop offset="0.205" stop-color="#8AFBFF"/>
<stop offset="0.64" stop-color="#E4FFAB"/>
<stop offset="1" stop-color="white"/>
</linearGradient>
</defs>
</svg>
