<svg width="23" height="20" viewBox="0 0 23 20" fill="none" xmlns="http://www.w3.org/2000/svg">
<path d="M17.1437 8.16158C17.4691 8.16753 17.7924 8.10857 18.0948 7.98816C18.3971 7.86774 18.6725 7.68829 18.9047 7.46027C19.1369 7.23225 19.3214 6.96025 19.4473 6.66014C19.5732 6.36004 19.6381 6.03785 19.6381 5.7124C19.6381 5.38695 19.5732 5.06476 19.4473 4.76465C19.3214 4.46455 19.1369 4.19254 18.9047 3.96453C18.6725 3.73651 18.3971 3.55706 18.0948 3.43664C17.7924 3.31623 17.4691 3.25727 17.1437 3.26322C16.5019 3.27494 15.8903 3.53814 15.4406 3.99617C14.9909 4.45421 14.7389 5.07048 14.7389 5.7124C14.7389 6.35432 14.9909 6.97059 15.4406 7.42863C15.8903 7.88666 16.5019 8.14985 17.1437 8.16158ZM21.4281 0H1.42929C0.633092 0 0 0.64793 0 1.44412V18.144C0 18.9402 0.633092 19.5881 1.42929 19.5881H21.4281C22.2243 19.5881 22.8574 18.9402 22.8574 18.144V1.44412C22.8574 0.64793 22.2243 0 21.4281 0ZM16.1696 10.0853C16.0897 9.98892 15.9901 9.91077 15.8774 9.85617C15.7647 9.80156 15.6416 9.77175 15.5165 9.76876C15.2566 9.76876 15.0735 9.89085 14.8633 10.0592L13.9093 10.8658C13.7104 11.0088 13.5517 11.1056 13.3233 11.1056C13.1168 11.1069 12.9169 11.0324 12.7616 10.8963C12.6869 10.8282 12.6136 10.7584 12.5419 10.687L9.79752 7.71857C9.6913 7.5973 9.56025 7.50027 9.41325 7.43407C9.26625 7.36786 9.10674 7.33403 8.94553 7.33485C8.60369 7.33485 8.28714 7.50404 8.08831 7.73339L1.63247 15.5174V2.22983C1.68305 1.88274 1.9534 1.63247 2.30047 1.63247H20.5508C20.9031 1.63247 21.1883 1.89321 21.2092 2.24465L21.2241 15.5278L16.1679 10.0853H16.1696Z" fill="#8FE846"/>
</svg>
